<svg width="66" height="64" viewBox="0 0 66 64" fill="none" xmlns="http://www.w3.org/2000/svg">
<path d="M33.0003 5.19699C33.3446 4.92581 34.3086 4.72242 34.6528 4.04445C34.9283 3.50208 33.8266 2.28174 33.0003 2.28174C32.2429 2.28174 31.0723 3.50208 31.3478 4.04445C31.692 4.72242 32.5872 4.85801 33.0003 5.19699Z" fill="#8C837B"/>
<path d="M33.0004 58.8918C32.6561 59.163 31.6921 59.3664 31.3478 60.0444C31.0724 60.5868 32.1741 61.8071 33.0004 61.8071C33.8266 61.8071 34.9283 60.5868 34.6529 60.0444C34.2398 59.2986 33.3446 59.2308 33.0004 58.8918Z" fill="#8C837B"/>
<path d="M25.9081 6.07829C26.1835 5.67151 27.0098 5.33253 27.1475 4.58676C27.2852 3.9766 25.8392 3.09524 25.0818 3.29863C24.3244 3.50202 23.567 4.92575 23.9801 5.40032C24.531 6.01049 25.4261 5.8749 25.9081 6.07829Z" fill="#8C837B"/>
<path d="M40.0235 57.9426C39.7481 58.3494 38.9218 58.6884 38.7841 59.4342C38.6464 60.0443 40.0923 60.9257 40.8498 60.7223C41.6072 60.5189 42.3646 59.0952 41.9514 58.6206C41.4006 58.0782 40.5055 58.2138 40.0235 57.9426Z" fill="#8C837B"/>
<path d="M19.3666 8.79016C19.5043 8.38338 20.2617 7.77321 20.1929 7.02744C20.124 6.41727 18.5404 5.8749 17.8518 6.28168C17.1632 6.68846 16.819 8.24778 17.3698 8.65456C17.9895 8.99355 18.8158 8.65456 19.3666 8.79016Z" fill="#8C837B"/>
<path d="M46.6334 55.2986C46.4957 55.7054 45.7383 56.3156 45.8071 57.0613C45.876 57.6715 47.4597 58.2139 48.1482 57.8071C48.8368 57.4003 49.1811 55.841 48.6302 55.4342C47.9417 55.0275 47.1154 55.3664 46.6334 55.2986Z" fill="#8C837B"/>
<path d="M13.7204 13.0613C13.7204 12.5868 14.3401 11.841 14.0647 11.163C13.8582 10.5529 12.2056 10.4851 11.6548 11.0274C11.1039 11.5698 11.1728 13.1969 11.7925 13.4003C12.481 13.6037 13.1696 13.0613 13.7204 13.0613Z" fill="#8C837B"/>
<path d="M52.2801 51.0274C52.2801 51.502 51.6604 52.2478 51.9358 52.9257C52.1424 53.5359 53.7949 53.6037 54.3458 53.0613C54.8966 52.5189 54.8278 50.8918 54.2081 50.6884C53.5195 50.4173 52.7621 50.9596 52.2801 51.0274Z" fill="#8C837B"/>
<path d="M9.38283 18.6208C9.31397 18.214 9.65825 17.3326 9.17626 16.6547C8.83198 16.1123 7.17944 16.4513 6.76631 17.1292C6.35317 17.8072 6.90402 19.3665 7.52372 19.4343C8.34999 19.5021 8.90084 18.7564 9.38283 18.6208Z" fill="#8C837B"/>
<path d="M56.6179 45.4682C56.6868 45.875 56.3425 46.7563 56.8245 47.4343C57.1688 47.9767 58.8213 47.6377 59.2344 46.9597C59.6476 46.2818 59.0967 44.7224 58.477 44.6546C57.6507 44.5868 57.0999 45.2648 56.6179 45.4682Z" fill="#8C837B"/>
<path d="M6.62829 25.0615C6.42172 24.6547 6.49058 23.7056 5.93973 23.231C5.45774 22.8242 3.94291 23.57 3.8052 24.3157C3.59863 25.0615 4.49376 26.4174 5.11346 26.3496C5.87088 26.2141 6.21516 25.3327 6.62829 25.0615Z" fill="#8C837B"/>
<path d="M59.3032 38.9598C59.5098 39.3666 59.4409 40.3157 59.9918 40.7903C60.4738 41.1971 61.9886 40.4513 62.1263 39.7055C62.3329 38.9598 61.4378 37.6038 60.8181 37.6716C60.1295 37.875 59.7852 38.6886 59.3032 38.9598Z" fill="#8C837B"/>
<path d="M5.73327 32.0446C5.45784 31.7056 5.25127 30.7565 4.56272 30.4175C3.94301 30.1463 2.77246 31.231 2.77246 32.0446C2.77246 32.8582 4.01187 33.9429 4.56272 33.6717C5.25127 33.2649 5.38899 32.3836 5.73327 32.0446Z" fill="#8C837B"/>
<path d="M60.2671 32.0446C60.5425 32.3835 60.7491 33.3327 61.4376 33.6717C61.9885 33.9429 63.2279 32.8581 63.2279 32.0446C63.2279 31.2988 61.9885 30.1463 61.4376 30.4174C60.6802 30.7564 60.6114 31.6378 60.2671 32.0446Z" fill="#8C837B"/>
<path d="M6.62829 38.9596C6.21516 38.6884 5.87088 37.8749 5.11346 37.7393C4.49376 37.6037 3.59863 39.0274 3.8052 39.7732C4.01177 40.5189 5.45774 41.2647 5.93973 40.8579C6.55944 40.3155 6.42172 39.4342 6.62829 38.9596Z" fill="#8C837B"/>
<path d="M59.3032 25.0614C59.7164 25.3326 60.0606 26.1462 60.8181 26.2818C61.4378 26.4174 62.3329 24.9936 62.1263 24.2479C61.9197 23.5021 60.4738 22.7564 59.9918 23.1631C59.4409 23.7055 59.5786 24.5869 59.3032 25.0614Z" fill="#8C837B"/>
<path d="M9.38282 45.4681C8.96969 45.3325 8.34998 44.5867 7.59257 44.6545C6.97287 44.7223 6.42202 46.2816 6.83515 46.9596C7.24829 47.6375 8.83198 47.9765 9.24511 47.4342C9.58939 46.7562 9.24511 45.9426 9.38282 45.4681Z" fill="#8C837B"/>
<path d="M56.6178 18.6208C57.031 18.7564 57.6507 19.5021 58.4081 19.4343C59.0278 19.3665 59.5786 17.8072 59.1655 17.1292C58.7524 16.4513 57.1687 16.1123 56.7555 16.6547C56.3424 17.2648 56.6867 18.0784 56.6178 18.6208Z" fill="#8C837B"/>
<path d="M13.7204 51.0274C13.2384 51.0274 12.481 50.4172 11.7925 50.6884C11.1728 50.8918 11.1039 52.5189 11.6548 53.0613C12.2056 53.6036 13.8582 53.5358 14.0647 52.9257C14.2713 52.2477 13.7204 51.5019 13.7204 51.0274Z" fill="#8C837B"/>
<path d="M52.2797 13.0613C52.7617 13.0613 53.5192 13.6715 54.2077 13.4003C54.8274 13.1969 54.8963 11.5698 54.3454 11.0274C53.7946 10.4851 52.142 10.5529 51.9355 11.163C51.66 11.841 52.2109 12.519 52.2797 13.0613Z" fill="#8C837B"/>
<path d="M19.3666 55.2987C18.9535 55.3665 18.0584 55.0275 17.3698 55.5021C16.819 55.8411 17.1632 57.4682 17.8518 57.875C18.5404 58.2818 20.124 57.7394 20.1929 57.1292C20.2617 56.3156 19.5043 55.7733 19.3666 55.2987Z" fill="#8C837B"/>
<path d="M46.6338 8.79008C47.047 8.72228 47.9421 9.06127 48.6306 8.58669C49.1815 8.24771 48.8372 6.62059 48.1486 6.21381C47.4601 5.80703 45.8764 6.3494 45.8076 6.95957C45.7387 7.77313 46.4273 8.3155 46.6338 8.79008Z" fill="#8C837B"/>
<path d="M25.9081 57.9426C25.4949 58.146 24.531 58.0782 24.049 58.6206C23.6358 59.0952 24.3932 60.5867 25.1507 60.7223C25.9081 60.9257 27.2852 60.0443 27.2163 59.4342C27.0786 58.7562 26.1835 58.4172 25.9081 57.9426Z" fill="#8C837B"/>
<path d="M40.0236 6.07829C40.4368 5.8749 41.4008 5.9427 41.8827 5.40032C42.2959 4.92575 41.5385 3.43422 40.7811 3.29863C40.0236 3.09524 38.6465 3.9766 38.7154 4.58676C38.9219 5.33253 39.7482 5.67151 40.0236 6.07829Z" fill="#8C837B"/>
<path d="M29.7641 8.04449C30.1772 7.36652 31.21 7.09533 31.6232 6.68855C32.174 6.14618 31.5543 5.40042 31.0035 5.06144C30.3838 4.65466 29.6264 4.38347 29.2821 4.31567C28.9378 4.45127 28.3181 4.92584 27.7672 5.46822C27.2852 5.94279 26.941 6.82415 27.6295 7.23093C28.1115 7.50211 29.2132 7.50211 29.7641 8.04449Z" fill="#686058"/>
<path d="M36.1675 55.9768C35.7544 56.6548 34.7215 56.926 34.3084 57.3327C33.7576 57.8751 34.3773 58.6209 34.9281 58.9599C35.5478 59.3666 36.3052 59.6378 36.6495 59.7056C36.9938 59.57 37.6135 59.0955 38.1643 58.5531C38.6463 58.0785 38.9906 57.1971 38.3021 56.7904C37.8889 56.5192 36.7184 56.587 36.1675 55.9768Z" fill="#686058"/>
<path d="M23.5668 9.73937C23.7733 8.9936 24.7373 8.45123 25.0127 7.97665C25.4259 7.29869 24.6684 6.68852 23.9799 6.55293C23.2913 6.34954 22.4651 6.28174 22.1208 6.28174C21.8454 6.55292 21.3634 7.0953 20.9502 7.77326C20.6059 8.31564 20.5371 9.33259 21.2945 9.46818C21.8454 9.60377 22.8782 9.26479 23.5668 9.73937Z" fill="#686058"/>
<path d="M42.3646 54.3496C42.158 55.0954 41.194 55.6377 40.9186 56.1123C40.5055 56.7903 41.2629 57.4005 41.9515 57.5361C42.64 57.7394 43.4663 57.8072 43.8106 57.8072C44.086 57.536 44.568 56.9937 44.9811 56.3157C45.3254 55.7733 45.3943 54.7564 44.6368 54.6208C44.1549 54.4852 43.0532 54.7564 42.3646 54.3496Z" fill="#686058"/>
<path d="M18.0583 12.858C18.0583 12.0444 18.8158 11.2987 18.9535 10.7563C19.16 10.0105 18.2649 9.67156 17.5763 9.60376C16.8189 9.60376 16.0615 9.67156 15.7172 9.80715C15.5107 10.1461 15.1664 10.8241 15.0287 11.5699C14.891 12.18 15.0287 13.197 15.7861 13.1292C16.3369 13.197 17.3009 12.6546 18.0583 12.858Z" fill="#686058"/>
<path d="M47.942 51.1632C47.942 51.9768 47.1845 52.7225 47.0468 53.2649C46.8403 54.0107 47.7354 54.3496 48.4239 54.4174C49.1814 54.4174 49.9388 54.3496 50.2831 54.2141C50.4896 53.8751 50.8339 53.1971 50.9716 52.4513C51.1093 51.8412 50.9716 50.8242 50.2142 50.892C49.6634 50.8242 48.6994 51.4344 47.942 51.1632Z" fill="#686058"/>
<path d="M13.5138 17.3325C13.3073 16.5868 13.8581 15.6376 13.8581 15.0952C13.8581 14.3495 12.8941 14.2139 12.2744 14.3495C11.517 14.5529 10.8284 14.8241 10.4842 15.0275C10.3464 15.3664 10.2087 16.1122 10.2776 16.858C10.2776 17.5359 10.6907 18.4173 11.4481 18.2139C11.9301 18.0783 12.6875 17.3325 13.5138 17.3325Z" fill="#686058"/>
<path d="M52.4175 46.7563C52.6241 47.5021 52.0732 48.4512 52.0732 48.9936C52.0732 49.7394 53.0372 49.875 53.6569 49.7394C54.4143 49.536 55.1029 49.2648 55.4472 49.0614C55.5849 48.7224 55.7226 47.9767 55.6538 47.2309C55.6538 46.5529 55.2406 45.6716 54.4832 45.875C54.0012 45.9428 53.2438 46.7563 52.4175 46.7563Z" fill="#686058"/>
<path d="M10.3465 22.7564C9.93332 22.0784 10.2087 20.9937 10.071 20.5191C9.86447 19.7734 8.90048 19.9089 8.34964 20.1801C7.66108 20.5191 7.11023 20.9937 6.83481 21.3327C6.76595 21.7395 6.90366 22.4852 7.11023 23.1632C7.3168 23.7733 7.9365 24.5191 8.5562 24.1801C8.96934 23.9089 9.52019 22.9598 10.3465 22.7564Z" fill="#686058"/>
<path d="M55.6538 41.2647C56.0669 41.9427 55.7915 43.0274 55.9292 43.502C56.1358 44.2477 57.0998 44.1121 57.6506 43.841C58.3392 43.502 58.89 43.0274 59.1655 42.6884C59.2343 42.2816 59.0966 41.5359 58.89 40.8579C58.6835 40.2477 58.0638 39.502 57.4441 39.841C56.9621 40.1121 56.4112 41.0613 55.6538 41.2647Z" fill="#686058"/>
<path d="M8.62497 28.8581C8.07412 28.3157 8.07412 27.231 7.7987 26.7564C7.45442 26.0784 6.49043 26.4174 6.00844 26.892C5.45759 27.4343 4.9756 28.0445 4.83789 28.3835C4.90675 28.7903 5.18217 29.4682 5.59531 30.0784C5.93959 30.6208 6.76586 31.2309 7.24785 30.6886C7.66098 30.3496 7.93641 29.2648 8.62497 28.8581Z" fill="#686058"/>
<path d="M57.3062 35.1632C57.857 35.7056 57.857 36.7903 58.1324 37.2649C58.4767 37.9429 59.4407 37.6039 59.9227 37.1293C60.4735 36.5869 60.9555 35.9768 61.0932 35.6378C61.0244 35.231 60.7489 34.553 60.3358 33.9429C59.9915 33.4005 59.1653 32.7903 58.6833 33.3327C58.2701 33.7395 57.9947 34.8242 57.3062 35.1632Z" fill="#686058"/>
<path d="M8.62497 35.1632C7.93641 34.7564 7.66098 33.7395 7.24785 33.3327C6.697 32.7903 5.93959 33.4005 5.59531 33.9429C5.18217 34.553 4.90675 35.2988 4.83789 35.6378C4.9756 35.9768 5.45759 36.5869 6.00844 37.1293C6.49043 37.6039 7.38556 37.9429 7.7987 37.2649C8.07412 36.8581 8.07412 35.7056 8.62497 35.1632Z" fill="#686058"/>
<path d="M57.3062 28.8581C57.9947 29.2648 58.2701 30.2818 58.6833 30.6886C59.2341 31.2309 59.9915 30.6208 60.3358 30.0784C60.7489 29.4682 61.0244 28.7225 61.0932 28.3835C60.9555 28.0445 60.4735 27.4343 59.9227 26.892C59.4407 26.4174 58.5456 26.0784 58.1324 26.7564C57.857 27.231 57.9259 28.3157 57.3062 28.8581Z" fill="#686058"/>
<path d="M10.3466 41.2649C9.5892 41.0615 9.03835 40.1123 8.55636 39.8411C7.8678 39.4344 7.2481 40.1801 7.11039 40.8581C6.90382 41.5361 6.83496 42.3496 6.83496 42.6886C7.11038 42.9598 7.66123 43.4344 8.34979 43.8411C8.90064 44.1801 9.93348 44.2479 10.0712 43.5022C10.2089 43.0276 9.86462 41.9428 10.3466 41.2649Z" fill="#686058"/>
<path d="M55.6538 22.7564C56.4112 22.9598 56.9621 23.9089 57.4441 24.1801C58.1326 24.5869 58.7523 23.8412 58.89 23.1632C59.0966 22.4852 59.1655 21.6717 59.1655 21.3327C58.89 21.0615 58.3392 20.5869 57.6506 20.2479C57.0998 19.909 56.0669 19.8412 55.9292 20.5869C55.7915 21.0615 56.0669 22.0784 55.6538 22.7564Z" fill="#686058"/>
<path d="M13.5141 46.7563C12.6878 46.7563 11.9304 46.0106 11.3795 45.875C10.6221 45.6716 10.2778 46.5529 10.209 47.2309C10.209 47.9767 10.2778 48.7224 10.4156 49.0614C10.7598 49.2648 11.4484 49.6038 12.2058 49.7394C12.8255 49.875 13.8583 49.7394 13.7895 48.9936C13.8583 48.4512 13.3075 47.5021 13.5141 46.7563Z" fill="#686058"/>
<path d="M52.417 17.3325C53.2433 17.3325 54.0007 18.0783 54.5516 18.2139C55.309 18.4173 55.6533 17.5359 55.7221 16.858C55.7221 16.1122 55.6533 15.3664 55.5156 15.0275C55.1713 14.8241 54.4827 14.4851 53.7253 14.3495C53.1056 14.2139 52.0728 14.3495 52.1416 15.0952C52.0728 15.6376 52.6925 16.5868 52.417 17.3325Z" fill="#686058"/>
<path d="M18.0583 51.1632C17.3009 51.3666 16.3369 50.8242 15.7861 50.8242C15.0287 50.8242 14.891 51.7734 15.0287 52.3835C15.2352 53.1293 15.5107 53.8073 15.7172 54.1463C16.0615 54.2818 16.8189 54.4174 17.5763 54.3496C18.2649 54.3496 19.16 53.9429 18.9535 53.1971C18.8158 52.7225 18.0583 51.9768 18.0583 51.1632Z" fill="#686058"/>
<path d="M47.942 12.858C48.6994 12.6546 49.6634 13.197 50.2142 13.197C50.9716 13.197 51.1093 12.2479 50.9716 11.6377C50.7651 10.8919 50.4896 10.214 50.2831 9.87499C49.9388 9.73939 49.1814 9.6038 48.4239 9.6716C47.7354 9.6716 46.8403 10.0784 47.0468 10.8241C47.1157 11.2987 47.942 12.0445 47.942 12.858Z" fill="#686058"/>
<path d="M23.5666 54.3496C22.8781 54.7564 21.7764 54.4852 21.2944 54.6208C20.537 54.8242 20.6747 55.7733 20.9501 56.3157C21.2944 56.9937 21.7764 57.5361 22.1207 57.8072C22.5338 57.875 23.2912 57.7395 23.9798 57.5361C24.5995 57.3327 25.3569 56.7225 25.0126 56.1123C24.7372 55.6377 23.7732 55.0954 23.5666 54.3496Z" fill="#686058"/>
<path d="M42.3642 9.73942C43.0527 9.33264 44.1544 9.60383 44.6364 9.46824C45.3938 9.26485 45.2561 8.31569 44.9807 7.77332C44.6364 7.09536 44.1544 6.55298 43.8102 6.2818C43.397 6.214 42.6396 6.34959 41.9511 6.55298C41.3313 6.75637 40.5739 7.36654 40.9182 7.97671C41.1936 8.38349 42.1576 8.92586 42.3642 9.73942Z" fill="#686058"/>
<path d="M29.7641 55.9768C29.2132 56.5192 28.1115 56.5192 27.6295 56.7904C26.941 57.1293 27.2852 58.0785 27.7672 58.5531C28.3181 59.0955 28.9378 59.57 29.2821 59.7056C29.6952 59.6378 30.3838 59.3666 31.0035 58.9599C31.5543 58.6209 32.174 57.8073 31.6232 57.3327C31.2789 56.926 30.1772 56.6548 29.7641 55.9768Z" fill="#686058"/>
<path d="M36.1675 8.04449C36.7184 7.50211 37.8201 7.50211 38.3021 7.23093C38.9906 6.89194 38.6463 5.94279 38.1643 5.46822C37.6135 4.92584 36.9938 4.45127 36.6495 4.31567C36.3052 4.45127 35.5478 4.72245 34.9281 5.06144C34.3773 5.40042 33.7576 6.21398 34.3084 6.68855C34.7215 7.09533 35.8232 7.36652 36.1675 8.04449Z" fill="#686058"/>
<path d="M58.3391 32.0443C57.5817 31.9088 57.5817 29.8071 55.998 29.1291C57.3751 28.1121 56.8243 26.0104 57.5128 25.6715C56.7554 25.6715 56.2046 23.6376 54.4143 23.4342C55.4471 22.0782 54.3454 20.2477 54.8963 19.7732C54.1389 19.9766 53.0372 18.0782 51.2469 18.4172C51.8666 16.8579 50.3518 15.2986 50.7649 14.6884C50.1452 15.0952 48.5615 13.5359 46.909 14.2816C47.1844 12.5867 45.2565 11.502 45.463 10.7562C44.9122 11.2986 43.0531 10.2138 41.676 11.2986C41.4694 9.53587 39.3349 8.9935 39.4037 8.24774C39.0594 8.9257 36.9938 8.38333 35.8921 9.73926C35.2724 8.04435 33.0001 8.04435 32.8624 7.29858C32.7247 8.04435 30.5901 8.04435 29.9016 9.60367C28.8688 8.24774 26.7342 8.79011 26.3899 8.11214C26.3899 8.85791 24.3243 9.40028 24.1177 11.163C22.7406 10.146 20.8815 11.2308 20.3995 10.6884C20.606 11.4342 18.6781 12.5189 19.0224 14.2816C17.4387 13.6715 15.855 15.163 15.2353 14.7562C15.6484 15.3664 14.0647 16.9257 14.8221 18.5528C13.1007 18.2816 11.999 20.1799 11.2416 19.9766C11.7925 20.5189 10.6908 22.3494 11.7925 23.7054C10.0022 23.9088 9.45138 26.0104 8.69396 25.9427C9.38252 26.2816 8.83168 28.3155 10.2088 29.4003C8.4874 30.0104 8.4874 32.2477 7.72998 32.3833C8.4874 32.5189 8.4874 34.6206 10.0711 35.2986C8.69396 36.3155 9.24481 38.4172 8.55625 38.7562C9.31367 38.7562 9.86451 40.7901 11.6548 40.9935C10.6219 42.3494 11.7236 44.1799 11.1728 44.6545C11.9302 44.4511 13.0319 46.3494 14.8221 46.0105C14.2024 47.5698 15.7173 49.1291 15.3041 49.7393C15.9238 49.3325 17.5075 50.8918 19.1601 50.146C18.8846 51.841 20.8126 52.9257 20.606 53.6715C21.1569 53.1291 23.016 54.2138 24.3931 53.1291C24.5997 54.8918 26.7342 55.4342 26.6654 56.1799C27.0096 55.502 29.0753 56.0443 30.177 54.6884C30.7967 56.3833 33.069 56.3833 33.2067 57.1291C33.3444 56.3833 35.4789 56.3833 36.1675 54.824C37.2003 56.1799 39.3349 55.6376 39.6791 56.3155C39.6791 55.5698 41.7448 55.0274 41.9514 53.2647C43.3285 54.2816 45.1876 53.1969 45.6696 53.7393C45.463 52.9935 47.391 51.9088 47.0467 50.146C48.6304 50.7562 50.2141 49.2647 50.8338 49.6715C50.4207 49.0613 52.0043 47.502 51.2469 45.8749C52.9683 46.146 54.07 44.2477 54.8274 44.4511C54.2077 43.9766 55.3094 42.0782 54.2766 40.7223C56.0668 40.5189 56.6177 38.4172 57.3751 38.485C56.6865 38.146 57.2374 36.1121 55.8603 35.0274C57.5817 34.4172 57.5817 32.1799 58.3391 32.0443Z" fill="url(#paint0_radial)"/>
<path d="M38.0448 2.67726C38.1193 2.12044 37.6906 1.60568 37.0874 1.5275C36.4842 1.44932 35.9348 1.83732 35.8604 2.39414C35.7859 2.95096 36.2146 3.46572 36.8178 3.5439C37.421 3.62208 37.9704 3.23407 38.0448 2.67726Z" fill="#AFA99F"/>
<path d="M30.1303 61.7034C30.2047 61.1466 29.776 60.6318 29.1728 60.5536C28.5696 60.4754 28.0203 60.8634 27.9458 61.4203C27.8714 61.9771 28.3 62.4918 28.9033 62.57C29.5065 62.6482 30.0558 62.2602 30.1303 61.7034Z" fill="#AFA99F"/>
<path d="M29.1435 3.56576C29.7467 3.48758 30.1754 2.97282 30.101 2.416C30.0265 1.85919 29.4772 1.47118 28.874 1.54936C28.2707 1.62754 27.8421 2.14231 27.9165 2.69912C27.991 3.25594 28.5403 3.64395 29.1435 3.56576Z" fill="#AFA99F"/>
<path d="M37.0571 62.5428C37.6603 62.4646 38.089 61.9499 38.0145 61.3931C37.9401 60.8362 37.3908 60.4482 36.7875 60.5264C36.1843 60.6046 35.7557 61.1194 35.8301 61.6762C35.9045 62.233 36.4539 62.621 37.0571 62.5428Z" fill="#AFA99F"/>
<path d="M21.8196 5.45471C22.3818 5.22544 22.6605 4.61892 22.4422 4.10002C22.2239 3.58111 21.5912 3.34632 21.0291 3.57559C20.4669 3.80486 20.1882 4.41138 20.4065 4.93028C20.6248 5.44919 21.2575 5.68398 21.8196 5.45471Z" fill="#AFA99F"/>
<path d="M44.9568 60.4362C45.519 60.2069 45.7977 59.6004 45.5794 59.0815C45.3611 58.5626 44.7284 58.3278 44.1663 58.557C43.6041 58.7863 43.3254 59.3928 43.5437 59.9117C43.762 60.4306 44.3947 60.6654 44.9568 60.4362Z" fill="#AFA99F"/>
<path d="M15.2576 9.23455C15.7404 8.86983 15.8502 8.21292 15.5029 7.76731C15.1557 7.3217 14.4828 7.25613 14.0001 7.62086C13.5173 7.98558 13.4075 8.64249 13.7548 9.0881C14.102 9.53371 14.7749 9.59928 15.2576 9.23455Z" fill="#AFA99F"/>
<path d="M52.0189 56.4423C52.5016 56.0776 52.6114 55.4207 52.2642 54.9751C51.9169 54.5295 51.244 54.4639 50.7613 54.8286C50.2785 55.1933 50.1687 55.8503 50.516 56.2959C50.8633 56.7415 51.5361 56.807 52.0189 56.4423Z" fill="#AFA99F"/>
<path d="M9.86968 14.5277C10.2401 14.0524 10.1735 13.3899 9.72094 13.048C9.26837 12.7061 8.60119 12.8142 8.23077 13.2895C7.86035 13.7648 7.92694 14.4273 8.37951 14.7693C8.83209 15.1112 9.49926 15.0031 9.86968 14.5277Z" fill="#AFA99F"/>
<path d="M57.7881 50.7609C58.1586 50.2856 58.092 49.6231 57.6394 49.2811C57.1868 48.9392 56.5197 49.0474 56.1492 49.5227C55.7788 49.998 55.8454 50.6605 56.298 51.0024C56.7505 51.3443 57.4177 51.2362 57.7881 50.7609Z" fill="#AFA99F"/>
<path d="M6.02346 21.0535C6.25631 20.5 6.01785 19.8771 5.49084 19.6621C4.96382 19.4472 4.34783 19.7216 4.11498 20.2751C3.88212 20.8286 4.12059 21.4516 4.6476 21.6665C5.17461 21.8815 5.7906 21.607 6.02346 21.0535Z" fill="#AFA99F"/>
<path d="M61.8711 43.8267C62.104 43.2732 61.8655 42.6503 61.3385 42.4353C60.8115 42.2204 60.1955 42.4948 59.9626 43.0483C59.7298 43.6018 59.9682 44.2248 60.4953 44.4397C61.0223 44.6547 61.6383 44.3802 61.8711 43.8267Z" fill="#AFA99F"/>
<path d="M4.01542 28.2471C4.09482 27.6532 3.70075 27.1123 3.13523 27.039C2.56971 26.9657 2.0469 27.3878 1.9675 27.9817C1.8881 28.5756 2.28217 29.1165 2.84769 29.1898C3.4132 29.2631 3.93601 28.8411 4.01542 28.2471Z" fill="#AFA99F"/>
<path d="M63.9637 36.0396C64.0431 35.4457 63.649 34.9048 63.0835 34.8315C62.518 34.7582 61.9951 35.1803 61.9157 35.7742C61.8363 36.3681 62.2304 36.909 62.7959 36.9823C63.3614 37.0556 63.8843 36.6336 63.9637 36.0396Z" fill="#AFA99F"/>
<path d="M3.18992 36.9793C3.75543 36.906 4.1495 36.3651 4.0701 35.7712C3.9907 35.1772 3.46789 34.7552 2.90237 34.8285C2.33686 34.9018 1.94279 35.4427 2.02219 36.0366C2.10159 36.6305 2.6244 37.0526 3.18992 36.9793Z" fill="#AFA99F"/>
<path d="M63.0884 29.1873C63.6539 29.114 64.0479 28.5731 63.9685 27.9792C63.8891 27.3852 63.3663 26.9632 62.8008 27.0365C62.2353 27.1098 61.8412 27.6507 61.9206 28.2446C62 28.8385 62.5228 29.2606 63.0884 29.1873Z" fill="#AFA99F"/>
<path d="M5.4757 44.4431C6.00271 44.2281 6.24117 43.6052 6.00832 43.0517C5.77547 42.4982 5.15947 42.2238 4.63246 42.4387C4.10545 42.6536 3.86699 43.2766 4.09984 43.8301C4.33269 44.3836 4.94869 44.658 5.4757 44.4431Z" fill="#AFA99F"/>
<path d="M61.3165 21.6616C61.8435 21.4467 62.082 20.8237 61.8491 20.2702C61.6163 19.7167 61.0003 19.4423 60.4733 19.6572C59.9463 19.8721 59.7078 20.4951 59.9407 21.0486C60.1735 21.6021 60.7895 21.8765 61.3165 21.6616Z" fill="#AFA99F"/>
<path d="M9.70726 50.9901C10.1598 50.6482 10.2264 49.9857 9.85601 49.5103C9.48558 49.035 8.81841 48.9269 8.36584 49.2688C7.91327 49.6108 7.84667 50.2733 8.2171 50.7486C8.58752 51.2239 9.25469 51.332 9.70726 50.9901Z" fill="#AFA99F"/>
<path d="M57.6531 14.7943C58.1056 14.4524 58.1722 13.7899 57.8018 13.3145C57.4314 12.8392 56.7642 12.7311 56.3116 13.073C55.8591 13.415 55.7925 14.0775 56.1629 14.5528C56.5333 15.0281 57.2005 15.1362 57.6531 14.7943Z" fill="#AFA99F"/>
<path d="M15.4839 56.2759C15.8312 55.8303 15.7213 55.1734 15.2386 54.8087C14.7559 54.4439 14.083 54.5095 13.7357 54.9551C13.3885 55.4007 13.4983 56.0576 13.981 56.4224C14.4638 56.7871 15.1366 56.7215 15.4839 56.2759Z" fill="#AFA99F"/>
<path d="M52.2832 9.09499C52.6305 8.64938 52.5207 7.99248 52.0379 7.62775C51.5552 7.26303 50.8823 7.3286 50.535 7.77421C50.1878 8.21982 50.2976 8.87672 50.7803 9.24145C51.2631 9.60617 51.9359 9.5406 52.2832 9.09499Z" fill="#AFA99F"/>
<path d="M22.4281 59.9159C22.6464 59.3969 22.3676 58.7904 21.8055 58.5612C21.2433 58.3319 20.6106 58.5667 20.3923 59.0856C20.174 59.6045 20.4528 60.211 21.0149 60.4403C21.5771 60.6696 22.2098 60.4348 22.4281 59.9159Z" fill="#AFA99F"/>
<path d="M45.557 4.92757C45.7753 4.40867 45.4965 3.80215 44.9344 3.57288C44.3722 3.34361 43.7395 3.5784 43.5212 4.09731C43.3029 4.61621 43.5817 5.22273 44.1438 5.452C44.706 5.68127 45.3387 5.44647 45.557 4.92757Z" fill="#AFA99F"/>
<path d="M32.9312 1.40037C33.3115 1.40037 33.6198 1.09683 33.6198 0.7224C33.6198 0.347969 33.3115 0.0444336 32.9312 0.0444336C32.551 0.0444336 32.2427 0.347969 32.2427 0.7224C32.2427 1.09683 32.551 1.40037 32.9312 1.40037Z" fill="#C4BEB6"/>
<path d="M33.0001 63.9765C33.3804 63.9765 33.6886 63.673 33.6886 63.2986C33.6886 62.9241 33.3804 62.6206 33.0001 62.6206C32.6198 62.6206 32.3115 62.9241 32.3115 63.2986C32.3115 63.673 32.6198 63.9765 33.0001 63.9765Z" fill="#C4BEB6"/>
<path d="M24.7374 2.48508C25.1177 2.48508 25.4259 2.18155 25.4259 1.80712C25.4259 1.43269 25.1177 1.12915 24.7374 1.12915C24.3571 1.12915 24.0488 1.43269 24.0488 1.80712C24.0488 2.18155 24.3571 2.48508 24.7374 2.48508Z" fill="#C4BEB6"/>
<path d="M41.2628 62.9597C41.6431 62.9597 41.9513 62.6562 41.9513 62.2817C41.9513 61.9073 41.6431 61.6038 41.2628 61.6038C40.8825 61.6038 40.5742 61.9073 40.5742 62.2817C40.5742 62.6562 40.8825 62.9597 41.2628 62.9597Z" fill="#C4BEB6"/>
<path d="M17.0943 5.60373C17.4746 5.60373 17.7829 5.3002 17.7829 4.92577C17.7829 4.55134 17.4746 4.2478 17.0943 4.2478C16.714 4.2478 16.4058 4.55134 16.4058 4.92577C16.4058 5.3002 16.714 5.60373 17.0943 5.60373Z" fill="#C4BEB6"/>
<path d="M48.9058 59.7732C49.2861 59.7732 49.5944 59.4696 49.5944 59.0952C49.5944 58.7208 49.2861 58.4172 48.9058 58.4172C48.5256 58.4172 48.2173 58.7208 48.2173 59.0952C48.2173 59.4696 48.5256 59.7732 48.9058 59.7732Z" fill="#C4BEB6"/>
<path d="M10.484 10.6206C10.8643 10.6206 11.1725 10.317 11.1725 9.94261C11.1725 9.56818 10.8643 9.26465 10.484 9.26465C10.1037 9.26465 9.79541 9.56818 9.79541 9.94261C9.79541 10.317 10.1037 10.6206 10.484 10.6206Z" fill="#C4BEB6"/>
<path d="M55.4469 54.8239C55.8271 54.8239 56.1354 54.5204 56.1354 54.146C56.1354 53.7716 55.8271 53.468 55.4469 53.468C55.0666 53.468 54.7583 53.7716 54.7583 54.146C54.7583 54.5204 55.0666 54.8239 55.4469 54.8239Z" fill="#C4BEB6"/>
<path d="M5.4576 17.0613C5.83788 17.0613 6.14616 16.7577 6.14616 16.3833C6.14616 16.0089 5.83788 15.7053 5.4576 15.7053C5.07732 15.7053 4.76904 16.0089 4.76904 16.3833C4.76904 16.7577 5.07732 17.0613 5.4576 17.0613Z" fill="#C4BEB6"/>
<path d="M60.5421 48.3156C60.9224 48.3156 61.2306 48.0121 61.2306 47.6377C61.2306 47.2633 60.9224 46.9597 60.5421 46.9597C60.1618 46.9597 59.8535 47.2633 59.8535 47.6377C59.8535 48.0121 60.1618 48.3156 60.5421 48.3156Z" fill="#C4BEB6"/>
<path d="M2.29012 24.6545C2.6704 24.6545 2.97868 24.351 2.97868 23.9766C2.97868 23.6021 2.6704 23.2986 2.29012 23.2986C1.90984 23.2986 1.60156 23.6021 1.60156 23.9766C1.60156 24.351 1.90984 24.6545 2.29012 24.6545Z" fill="#C4BEB6"/>
<path d="M63.71 40.7903C64.0903 40.7903 64.3986 40.4867 64.3986 40.1123C64.3986 39.7379 64.0903 39.4343 63.71 39.4343C63.3298 39.4343 63.0215 39.7379 63.0215 40.1123C63.0215 40.4867 63.3298 40.7903 63.71 40.7903Z" fill="#C4BEB6"/>
<path d="M1.18856 32.7224C1.56884 32.7224 1.87712 32.4188 1.87712 32.0444C1.87712 31.67 1.56884 31.3665 1.18856 31.3665C0.808279 31.3665 0.5 31.67 0.5 32.0444C0.5 32.4188 0.808279 32.7224 1.18856 32.7224Z" fill="#C4BEB6"/>
<path d="M64.7428 32.6545C65.123 32.6545 65.4313 32.351 65.4313 31.9766C65.4313 31.6021 65.123 31.2986 64.7428 31.2986C64.3625 31.2986 64.0542 31.6021 64.0542 31.9766C64.0542 32.351 64.3625 32.6545 64.7428 32.6545Z" fill="#C4BEB6"/>
<path d="M2.29012 40.8581C2.6704 40.8581 2.97868 40.5546 2.97868 40.1802C2.97868 39.8057 2.6704 39.5022 2.29012 39.5022C1.90984 39.5022 1.60156 39.8057 1.60156 40.1802C1.60156 40.5546 1.90984 40.8581 2.29012 40.8581Z" fill="#C4BEB6"/>
<path d="M63.71 24.5869C64.0903 24.5869 64.3986 24.2834 64.3986 23.9089C64.3986 23.5345 64.0903 23.231 63.71 23.231C63.3298 23.231 63.0215 23.5345 63.0215 23.9089C63.0215 24.2834 63.3298 24.5869 63.71 24.5869Z" fill="#C4BEB6"/>
<path d="M5.4576 48.3833C5.83788 48.3833 6.14616 48.0797 6.14616 47.7053C6.14616 47.3309 5.83788 47.0273 5.4576 47.0273C5.07732 47.0273 4.76904 47.3309 4.76904 47.7053C4.76904 48.0797 5.07732 48.3833 5.4576 48.3833Z" fill="#C4BEB6"/>
<path d="M60.4732 17.0613C60.8535 17.0613 61.1618 16.7577 61.1618 16.3833C61.1618 16.0089 60.8535 15.7053 60.4732 15.7053C60.0929 15.7053 59.7847 16.0089 59.7847 16.3833C59.7847 16.7577 60.0929 17.0613 60.4732 17.0613Z" fill="#C4BEB6"/>
<path d="M10.5528 54.8239C10.9331 54.8239 11.2414 54.5204 11.2414 54.146C11.2414 53.7716 10.9331 53.468 10.5528 53.468C10.1725 53.468 9.86426 53.7716 9.86426 54.146C9.86426 54.5204 10.1725 54.8239 10.5528 54.8239Z" fill="#C4BEB6"/>
<path d="M55.4469 10.553C55.8271 10.553 56.1354 10.2494 56.1354 9.87499C56.1354 9.50056 55.8271 9.19702 55.4469 9.19702C55.0666 9.19702 54.7583 9.50056 54.7583 9.87499C54.7583 10.2494 55.0666 10.553 55.4469 10.553Z" fill="#C4BEB6"/>
<path d="M17.0943 59.841C17.4746 59.841 17.7829 59.5375 17.7829 59.1631C17.7829 58.7886 17.4746 58.4851 17.0943 58.4851C16.714 58.4851 16.4058 58.7886 16.4058 59.1631C16.4058 59.5375 16.714 59.841 17.0943 59.841Z" fill="#C4BEB6"/>
<path d="M48.837 5.60373C49.2173 5.60373 49.5256 5.3002 49.5256 4.92577C49.5256 4.55134 49.2173 4.2478 48.837 4.2478C48.4567 4.2478 48.1484 4.55134 48.1484 4.92577C48.1484 5.3002 48.4567 5.60373 48.837 5.60373Z" fill="#C4BEB6"/>
<path d="M24.8062 62.9597C25.1865 62.9597 25.4948 62.6562 25.4948 62.2817C25.4948 61.9073 25.1865 61.6038 24.8062 61.6038C24.426 61.6038 24.1177 61.9073 24.1177 62.2817C24.1177 62.6562 24.426 62.9597 24.8062 62.9597Z" fill="#C4BEB6"/>
<path d="M41.1939 2.48508C41.5742 2.48508 41.8825 2.18155 41.8825 1.80712C41.8825 1.43269 41.5742 1.12915 41.1939 1.12915C40.8137 1.12915 40.5054 1.43269 40.5054 1.80712C40.5054 2.18155 40.8137 2.48508 41.1939 2.48508Z" fill="#C4BEB6"/>
<path d="M32.9998 43.9087C45.3969 43.9087 55.4468 38.5969 55.4468 32.0443C55.4468 25.4918 45.3969 20.1799 32.9998 20.1799C20.6026 20.1799 10.5527 25.4918 10.5527 32.0443C10.5527 38.5969 20.6026 43.9087 32.9998 43.9087Z" fill="url(#paint1_radial)"/>
<path d="M45.3253 22.0781C44.6368 22.0781 44.1548 22.6205 44.1548 23.2985C44.1548 23.9086 44.5679 24.3832 45.1188 24.451C45.1876 24.451 45.2565 24.6544 45.1876 24.79C45.1876 25.0612 45.1188 25.4002 44.9811 25.6713L44.8433 26.0103C44.8433 26.0781 44.7745 26.1459 44.7745 26.2815C44.7745 26.4849 44.9122 26.6205 45.1188 26.6205C45.3253 26.6205 45.6008 26.4171 45.945 25.8747C46.4959 25.1968 46.7024 24.451 46.7024 23.7052C46.6336 22.6883 46.0827 22.0781 45.3253 22.0781Z" fill="black"/>
<path d="M43.1219 24.9935C42.9842 24.7223 42.8465 24.4511 42.7088 24.2478C42.2956 23.4342 41.8825 22.7562 41.5382 22.7562C41.5382 22.7562 39.1282 22.6884 37.0626 22.6884C36.1674 22.6206 35.4789 22.1461 35.2723 21.5359C35.0657 22.2139 34.3772 22.6884 33.4821 22.6884C31.4164 22.6884 29.0064 22.7562 29.0064 22.7562C28.6621 22.7562 28.3179 23.502 27.8359 24.2478C27.6982 24.5189 27.5604 24.7901 27.4227 24.9935C27.3539 25.0613 27.3539 25.1291 27.4227 25.1969C27.4916 25.3325 30.8655 25.4003 31.5541 25.4003C31.9672 25.4003 32.3804 25.3325 32.5181 25.3325C32.6558 25.3325 32.7246 25.3325 32.7935 25.3325C32.8624 25.3325 32.9312 25.3325 33.0001 25.3325C33.4821 25.3325 33.7575 25.4681 33.7575 26.2817V38.0105C33.7575 38.824 33.5509 39.0952 32.6558 39.2308L32.3115 39.2986C31.8295 39.3664 31.4852 39.502 31.4852 40.0444C31.4852 40.5189 31.8295 40.6545 32.1738 40.6545C32.1738 40.6545 32.9312 40.7223 33.6886 40.7223C34.446 40.8579 34.9969 41.2647 35.2035 41.8749C35.41 41.2647 35.9609 40.8579 36.7183 40.7223C37.4757 40.6545 38.2331 40.6545 38.2331 40.6545C38.5774 40.6545 38.9217 40.4511 38.9217 40.0444C38.9217 39.5698 38.6463 39.4342 38.0954 39.2986L37.7511 39.2308C36.856 39.0274 36.6494 38.824 36.6494 38.0105V26.2817C36.6494 25.4681 36.856 25.3325 37.4068 25.3325C37.4757 25.3325 37.5446 25.3325 37.6134 25.3325C37.6823 25.3325 37.82 25.3325 37.8888 25.3325C38.0954 25.3325 38.4397 25.3325 38.8528 25.4003C39.6102 25.4681 42.9153 25.3325 42.9842 25.1969C43.1907 25.1291 43.1907 25.0613 43.1219 24.9935Z" fill="#221F1F"/>
<path d="M23.36 40.2477C24.3929 39.9765 26.252 38.6206 26.5274 38.6206C26.8028 38.6206 27.2159 38.5528 27.4225 38.2816C27.6291 37.9426 27.4225 37.4002 27.4225 37.4002C27.4225 37.3324 27.4225 36.9935 27.4225 36.4511V34.7562C27.4225 34.0782 27.4914 33.9426 28.1799 33.807C28.7996 33.6714 29.0751 33.4002 29.0751 32.8579C29.0751 32.1121 28.4554 31.9765 28.0422 31.9765H22.7403C22.2583 31.9765 21.7075 32.1121 21.7075 32.8579C21.7075 33.2647 21.914 33.6036 22.3272 33.6714L22.6026 33.7392L23.2912 33.807C24.1174 33.8748 24.324 33.9426 24.5306 34.0104C24.9437 34.2138 25.1503 34.6206 25.1503 35.3663C25.1503 36.1121 25.0126 36.8579 24.7371 37.1291C24.0486 37.807 22.6026 38.146 21.5698 38.146H21.5009C20.3992 38.146 19.4352 37.5358 18.7467 36.4511C18.0581 35.2985 17.645 33.5358 17.645 31.4341C17.645 27.2308 19.0221 24.8579 21.432 24.8579C21.5698 24.8579 21.7075 24.8579 21.914 24.8579C23.4977 24.9935 24.5306 25.7392 25.4945 27.5697C25.7011 27.9087 25.8388 28.1799 26.252 28.2477H26.3208C26.734 28.2477 27.0094 27.8409 27.0782 27.5019C27.1471 26.9596 26.734 25.5358 26.252 24.3833C25.77 23.163 25.2191 22.5528 24.7371 22.5528C24.5994 22.5528 24.5306 22.6206 24.4617 22.6206L24.2551 22.7562C24.1863 22.824 23.9109 22.8918 23.9109 22.9596C23.6354 22.7562 23.2223 22.6206 22.7403 22.5528C22.6715 22.5528 22.6026 22.5528 22.5337 22.485C22.4649 22.485 22.3272 22.4172 22.2583 22.3494C22.1895 22.2816 21.9829 22.2138 21.8452 22.0782C21.6386 21.9426 21.5009 21.7392 21.5009 21.6714C21.5009 21.6036 21.432 21.5358 21.432 21.468C21.432 21.4002 21.3632 21.4002 21.3632 21.3324V21.2646C21.3632 21.2646 21.3632 21.2646 21.3632 21.3324C21.3632 21.4002 21.2943 21.4002 21.2943 21.468C21.2943 21.5358 21.2255 21.5358 21.2255 21.6036C21.2255 21.6036 21.2255 21.6714 21.1566 21.6714C21.1566 21.6714 21.1566 21.7392 21.0878 21.7392C21.0189 21.807 21.0189 21.8748 20.9501 21.9426C20.8812 22.0104 20.8812 22.0104 20.8123 22.0782C20.8123 22.0782 20.8123 22.0782 20.7435 22.146C20.4681 22.4172 20.3992 22.4172 20.3304 22.485C20.3304 22.485 20.3304 22.485 20.2615 22.485C20.1926 22.485 20.1926 22.5528 20.1238 22.5528C20.0549 22.5528 20.0549 22.6206 19.9861 22.6206C19.9172 22.6884 19.7795 22.6884 19.7106 22.7562C19.6418 22.824 19.5041 22.824 19.3664 22.8918C16.0613 23.9087 13.9956 27.2308 13.9956 31.7053C13.9956 33.9426 14.4776 35.9765 15.4416 37.468C16.4056 38.9596 17.7138 39.9765 19.3664 40.3833H19.4352C20.2615 40.6545 20.8812 41.1291 21.0878 41.807C21.2943 41.1291 22.0518 40.5189 22.7403 40.3155L23.36 40.2477Z" fill="#221F1F"/>
<path d="M48.5614 32.3155L47.2531 31.8409C46.7711 31.6375 45.4628 31.1629 45.4628 30.7561C45.4628 30.3494 45.6006 29.9426 47.1154 29.9426C48.0105 29.9426 48.8368 30.6205 49.3876 31.7731C49.5253 32.0443 49.6631 32.3155 50.0073 32.3833H50.0762C50.4893 32.3833 50.7648 32.0443 50.8336 31.7731C50.9713 31.2307 50.5582 29.8748 50.4893 29.6036C50.2139 28.7222 49.8008 28.1799 49.3876 28.1799C49.2499 28.1799 49.1811 28.1799 49.1122 28.2477L48.9745 28.3155C48.9745 28.3155 48.9056 28.3833 48.8368 28.3833C48.8368 28.3833 48.8368 28.3833 48.7679 28.3833C48.6991 28.3833 48.6991 28.3155 48.6302 28.3155C48.4237 28.1799 48.2171 28.1121 48.0105 28.0443C47.7351 27.9087 47.5285 27.7731 47.322 27.6375C47.2531 27.6375 46.9088 27.2307 46.9088 27.2307C46.7023 27.4341 46.5645 27.6375 46.2891 27.8409C46.0826 27.9765 45.7383 28.0443 45.4628 28.1121C45.3251 28.1121 45.2563 28.1799 45.1186 28.1799C44.9809 28.1799 44.912 28.2477 44.7743 28.3155H44.7054H44.6366C43.3283 28.79 42.7775 29.6714 42.7775 31.0951C42.7775 32.4511 44.0169 33.7392 46.1514 34.5527L46.4268 34.6883L46.7023 34.8239L47.5285 35.1629C47.804 35.2307 48.0794 35.4341 48.4925 35.6375C48.9745 35.9765 49.2499 36.4511 49.2499 37.0612C49.2499 38.146 47.9417 38.9595 46.7711 38.9595C45.0497 38.9595 43.948 38.146 43.948 37.468C43.948 36.9256 44.1546 36.5866 44.7054 36.3155C44.8431 36.2477 44.9809 36.1799 45.1186 36.0443C45.3251 35.9087 45.394 35.7053 45.394 35.4341C45.394 35.0951 45.1874 34.8239 44.7743 34.6883C44.5677 34.6205 44.2923 34.5527 44.0169 34.5527C43.0529 34.5527 41.7446 35.3663 41.7446 37.1968C41.7446 38.8917 43.1906 40.3833 45.0497 40.79C45.1186 40.79 45.2563 40.79 45.3251 40.8578C45.5317 40.9256 45.7383 40.9256 45.9448 40.9934C46.2891 41.129 46.4957 41.4002 46.7711 41.6714L46.84 41.7392L46.9088 41.6714C46.9777 41.5358 47.1154 41.468 47.1842 41.3324C47.2531 41.2646 47.322 41.1968 47.3908 41.1968C47.5974 41.0612 47.8728 40.9256 48.1482 40.8578C48.4237 40.79 48.6991 40.7222 48.9745 40.5866C49.3188 40.4511 49.5942 40.3155 49.8696 40.1121C50.2828 39.8409 50.6959 39.5019 50.9713 39.0951C51.2467 38.6883 51.5222 38.2816 51.6599 37.807C51.7976 37.4002 51.8664 36.9934 51.8664 36.5188C51.8664 34.6205 50.6959 33.129 48.5614 32.3155Z" fill="black"/>
<defs>
<radialGradient id="paint0_radial" cx="0" cy="0" r="1" gradientUnits="userSpaceOnUse" gradientTransform="translate(33.2414 31.936) scale(24.7586 24.3777)">
<stop offset="0.2105" stop-color="#FBFBF9"/>
<stop offset="0.3313" stop-color="#F7F7F5"/>
<stop offset="0.4503" stop-color="#EDECE9"/>
<stop offset="0.5686" stop-color="#DBD9D5"/>
<stop offset="0.6865" stop-color="#C1BEB9"/>
<stop offset="0.8041" stop-color="#A09C96"/>
<stop offset="0.92" stop-color="#79726A"/>
<stop offset="0.964" stop-color="#686058"/>
</radialGradient>
<radialGradient id="paint1_radial" cx="0" cy="0" r="1" gradientUnits="userSpaceOnUse" gradientTransform="translate(33.0926 32.0296) scale(22.6651 11.6928)">
<stop stop-color="#F8F8F4"/>
<stop offset="1" stop-color="#F8F8F4" stop-opacity="0"/>
</radialGradient>
</defs>
</svg>
