<svg id="e0n8dpFsVlg1" xmlns="http://www.w3.org/2000/svg" xmlns:xlink="http://www.w3.org/1999/xlink" viewBox="0 0 159 157" shape-rendering="geometricPrecision" text-rendering="geometricPrecision"><style><![CDATA[#e0n8dpFsVlg100_to {animation: e0n8dpFsVlg100_to__to 12000ms linear infinite normal forwards}@keyframes e0n8dpFsVlg100_to__to { 0% {transform: translate(106.126770px,58.503643px)} 33.333333% {transform: translate(89.983931px,50.717622px)} 62.500000% {transform: translate(105.022079px,48.333164px)} 100% {transform: translate(106.126770px,58.503643px)}} #e0n8dpFsVlg100_tr {animation: e0n8dpFsVlg100_tr__tr 12000ms linear infinite normal forwards}@keyframes e0n8dpFsVlg100_tr__tr { 0% {transform: rotate(0deg)} 33.333333% {transform: rotate(0deg)} 62.500000% {transform: rotate(-31.284144deg)} 100% {transform: rotate(0deg)}} #e0n8dpFsVlg102_to {animation: e0n8dpFsVlg102_to__to 12000ms linear infinite normal forwards}@keyframes e0n8dpFsVlg102_to__to { 0% {transform: translate(86.616695px,107.409954px)} 25% {transform: translate(76.133976px,119.230656px)} 62.500000% {transform: translate(65.448100px,93.116051px)} 100% {transform: translate(86.616695px,107.409954px)}} #e0n8dpFsVlg102_tr {animation: e0n8dpFsVlg102_tr__tr 12000ms linear infinite normal forwards}@keyframes e0n8dpFsVlg102_tr__tr { 0% {transform: rotate(0deg)} 25% {transform: rotate(0deg)} 62.500000% {transform: rotate(150.314152deg)} 100% {transform: rotate(0deg)}} #e0n8dpFsVlg104_to {animation: e0n8dpFsVlg104_to__to 12000ms linear infinite normal forwards}@keyframes e0n8dpFsVlg104_to__to { 0% {transform: translate(49.832678px,82.717190px)} 25% {transform: translate(47.495790px,71.471135px)} 75% {transform: translate(39.456420px,87.682575px)} 100% {transform: translate(49.832678px,82.717190px)}} #e0n8dpFsVlg104_tr {animation: e0n8dpFsVlg104_tr__tr 12000ms linear infinite normal forwards}@keyframes e0n8dpFsVlg104_tr__tr { 0% {transform: rotate(0deg)} 25% {transform: rotate(0deg)} 100% {transform: rotate(-360deg)}} #e0n8dpFsVlg106_to {animation: e0n8dpFsVlg106_to__to 12000ms linear infinite normal forwards}@keyframes e0n8dpFsVlg106_to__to { 0% {transform: translate(106.872894px,86.563553px)} 25% {transform: translate(98.152069px,94.891747px)} 62.500000% {transform: translate(104.803428px,82.695338px)} 100% {transform: translate(106.872894px,86.563553px)}} #e0n8dpFsVlg106_tr {animation: e0n8dpFsVlg106_tr__tr 12000ms linear infinite normal forwards}@keyframes e0n8dpFsVlg106_tr__tr { 0% {transform: rotate(0deg)} 100% {transform: rotate(-360deg)}} #e0n8dpFsVlg108_to {animation: e0n8dpFsVlg108_to__to 12000ms linear infinite normal forwards}@keyframes e0n8dpFsVlg108_to__to { 0% {transform: translate(74.554995px,71.885008px)} 25% {transform: translate(65.863346px,64.156439px)} 50% {transform: translate(69.202696px,56.959349px)} 75% {transform: translate(81.000010px,64.422178px)} 100% {transform: translate(74.554995px,71.885008px)}} #e0n8dpFsVlg108_tr {animation: e0n8dpFsVlg108_tr__tr 12000ms linear infinite normal forwards}@keyframes e0n8dpFsVlg108_tr__tr { 0% {transform: rotate(0deg)} 100% {transform: rotate(360deg)}}]]></style><defs><linearGradient id="e0n8dpFsVlg3-fill" x1="59.270000" y1="-20.770000" x2="171.270000" y2="149.680000" spreadMethod="pad" gradientUnits="userSpaceOnUse"><stop id="e0n8dpFsVlg3-fill-0" offset="0%" stop-color="rgb(237,207,49)"/><stop id="e0n8dpFsVlg3-fill-1" offset="100%" stop-color="rgb(206,14,45)"/></linearGradient><linearGradient id="e0n8dpFsVlg4-fill" x1="-3.940000" y1="20.770000" x2="108.060000" y2="191.210000" spreadMethod="pad" gradientUnits="userSpaceOnUse"><stop id="e0n8dpFsVlg4-fill-0" offset="0%" stop-color="rgb(237,207,49)"/><stop id="e0n8dpFsVlg4-fill-1" offset="100%" stop-color="rgb(206,14,45)"/></linearGradient><linearGradient id="e0n8dpFsVlg5-fill" x1="45.440000" y1="-11.680000" x2="157.440000" y2="158.770000" spreadMethod="pad" gradientUnits="userSpaceOnUse"><stop id="e0n8dpFsVlg5-fill-0" offset="0%" stop-color="rgb(237,207,49)"/><stop id="e0n8dpFsVlg5-fill-1" offset="100%" stop-color="rgb(206,14,45)"/></linearGradient><linearGradient id="e0n8dpFsVlg6-fill" x1="9.890000" y1="11.680000" x2="121.890000" y2="182.130000" spreadMethod="pad" gradientUnits="userSpaceOnUse"><stop id="e0n8dpFsVlg6-fill-0" offset="0%" stop-color="rgb(237,207,49)"/><stop id="e0n8dpFsVlg6-fill-1" offset="100%" stop-color="rgb(206,14,45)"/></linearGradient><linearGradient id="e0n8dpFsVlg7-fill" x1="30.640000" y1="-1.960000" x2="142.640000" y2="168.490000" spreadMethod="pad" gradientUnits="userSpaceOnUse"><stop id="e0n8dpFsVlg7-fill-0" offset="0%" stop-color="rgb(237,207,49)"/><stop id="e0n8dpFsVlg7-fill-1" offset="100%" stop-color="rgb(206,14,45)"/></linearGradient><linearGradient id="e0n8dpFsVlg8-fill" x1="24.680000" y1="1.960000" x2="136.680000" y2="172.400000" spreadMethod="pad" gradientUnits="userSpaceOnUse"><stop id="e0n8dpFsVlg8-fill-0" offset="0%" stop-color="rgb(237,207,49)"/><stop id="e0n8dpFsVlg8-fill-1" offset="100%" stop-color="rgb(206,14,45)"/></linearGradient><linearGradient id="e0n8dpFsVlg9-fill" x1="15.580000" y1="7.940000" x2="127.580000" y2="178.380000" spreadMethod="pad" gradientUnits="userSpaceOnUse"><stop id="e0n8dpFsVlg9-fill-0" offset="0%" stop-color="rgb(237,207,49)"/><stop id="e0n8dpFsVlg9-fill-1" offset="100%" stop-color="rgb(206,14,45)"/></linearGradient><linearGradient id="e0n8dpFsVlg10-fill" x1="39.730000" y1="-7.930000" x2="151.730000" y2="162.520000" spreadMethod="pad" gradientUnits="userSpaceOnUse"><stop id="e0n8dpFsVlg10-fill-0" offset="0%" stop-color="rgb(237,207,49)"/><stop id="e0n8dpFsVlg10-fill-1" offset="100%" stop-color="rgb(206,14,45)"/></linearGradient><linearGradient id="e0n8dpFsVlg11-fill" x1="1.210000" y1="17.380000" x2="113.210000" y2="187.830000" spreadMethod="pad" gradientUnits="userSpaceOnUse"><stop id="e0n8dpFsVlg11-fill-0" offset="0%" stop-color="rgb(237,207,49)"/><stop id="e0n8dpFsVlg11-fill-1" offset="100%" stop-color="rgb(206,14,45)"/></linearGradient><linearGradient id="e0n8dpFsVlg12-fill" x1="54.140000" y1="-17.400000" x2="166.140000" y2="153.050000" spreadMethod="pad" gradientUnits="userSpaceOnUse"><stop id="e0n8dpFsVlg12-fill-0" offset="0%" stop-color="rgb(237,207,49)"/><stop id="e0n8dpFsVlg12-fill-1" offset="100%" stop-color="rgb(206,14,45)"/></linearGradient><linearGradient id="e0n8dpFsVlg13-fill" x1="-11.290000" y1="25.600000" x2="100.710000" y2="196.040000" spreadMethod="pad" gradientUnits="userSpaceOnUse"><stop id="e0n8dpFsVlg13-fill-0" offset="0%" stop-color="rgb(237,207,49)"/><stop id="e0n8dpFsVlg13-fill-1" offset="100%" stop-color="rgb(206,14,45)"/></linearGradient><linearGradient id="e0n8dpFsVlg14-fill" x1="66.630000" y1="-25.600000" x2="178.630000" y2="144.840000" spreadMethod="pad" gradientUnits="userSpaceOnUse"><stop id="e0n8dpFsVlg14-fill-0" offset="0%" stop-color="rgb(237,207,49)"/><stop id="e0n8dpFsVlg14-fill-1" offset="100%" stop-color="rgb(206,14,45)"/></linearGradient><linearGradient id="e0n8dpFsVlg15-fill" x1="-21.250000" y1="32.140000" x2="90.750000" y2="202.590000" spreadMethod="pad" gradientUnits="userSpaceOnUse"><stop id="e0n8dpFsVlg15-fill-0" offset="0%" stop-color="rgb(237,207,49)"/><stop id="e0n8dpFsVlg15-fill-1" offset="100%" stop-color="rgb(206,14,45)"/></linearGradient><linearGradient id="e0n8dpFsVlg16-fill" x1="76.560000" y1="-32.130000" x2="188.560000" y2="138.310000" spreadMethod="pad" gradientUnits="userSpaceOnUse"><stop id="e0n8dpFsVlg16-fill-0" offset="0%" stop-color="rgb(237,207,49)"/><stop id="e0n8dpFsVlg16-fill-1" offset="100%" stop-color="rgb(206,14,45)"/></linearGradient><linearGradient id="e0n8dpFsVlg17-fill" x1="-27.780000" y1="36.430000" x2="84.220000" y2="206.880000" spreadMethod="pad" gradientUnits="userSpaceOnUse"><stop id="e0n8dpFsVlg17-fill-0" offset="0%" stop-color="rgb(237,207,49)"/><stop id="e0n8dpFsVlg17-fill-1" offset="100%" stop-color="rgb(206,14,45)"/></linearGradient><linearGradient id="e0n8dpFsVlg18-fill" x1="83.100000" y1="-36.430000" x2="195.100000" y2="134.020000" spreadMethod="pad" gradientUnits="userSpaceOnUse"><stop id="e0n8dpFsVlg18-fill-0" offset="0%" stop-color="rgb(237,207,49)"/><stop id="e0n8dpFsVlg18-fill-1" offset="100%" stop-color="rgb(206,14,45)"/></linearGradient><linearGradient id="e0n8dpFsVlg19-fill" x1="-30.450000" y1="38.190000" x2="81.550000" y2="208.630000" spreadMethod="pad" gradientUnits="userSpaceOnUse"><stop id="e0n8dpFsVlg19-fill-0" offset="0%" stop-color="rgb(237,207,49)"/><stop id="e0n8dpFsVlg19-fill-1" offset="100%" stop-color="rgb(206,14,45)"/></linearGradient><linearGradient id="e0n8dpFsVlg20-fill" x1="85.770000" y1="-38.190000" x2="197.770000" y2="132.260000" spreadMethod="pad" gradientUnits="userSpaceOnUse"><stop id="e0n8dpFsVlg20-fill-0" offset="0%" stop-color="rgb(237,207,49)"/><stop id="e0n8dpFsVlg20-fill-1" offset="100%" stop-color="rgb(206,14,45)"/></linearGradient><linearGradient id="e0n8dpFsVlg21-fill" x1="-29.270000" y1="37.410000" x2="82.730000" y2="207.860000" spreadMethod="pad" gradientUnits="userSpaceOnUse"><stop id="e0n8dpFsVlg21-fill-0" offset="0%" stop-color="rgb(237,207,49)"/><stop id="e0n8dpFsVlg21-fill-1" offset="100%" stop-color="rgb(206,14,45)"/></linearGradient><linearGradient id="e0n8dpFsVlg22-fill" x1="84.600000" y1="-37.410000" x2="196.600000" y2="133.030000" spreadMethod="pad" gradientUnits="userSpaceOnUse"><stop id="e0n8dpFsVlg22-fill-0" offset="0%" stop-color="rgb(237,207,49)"/><stop id="e0n8dpFsVlg22-fill-1" offset="100%" stop-color="rgb(206,14,45)"/></linearGradient><linearGradient id="e0n8dpFsVlg23-fill" x1="-24.370000" y1="34.190000" x2="87.630000" y2="204.630000" spreadMethod="pad" gradientUnits="userSpaceOnUse"><stop id="e0n8dpFsVlg23-fill-0" offset="0%" stop-color="rgb(237,207,49)"/><stop id="e0n8dpFsVlg23-fill-1" offset="100%" stop-color="rgb(206,14,45)"/></linearGradient><linearGradient id="e0n8dpFsVlg24-fill" x1="79.690000" y1="-34.190000" x2="191.690000" y2="136.260000" spreadMethod="pad" gradientUnits="userSpaceOnUse"><stop id="e0n8dpFsVlg24-fill-0" offset="0%" stop-color="rgb(237,207,49)"/><stop id="e0n8dpFsVlg24-fill-1" offset="100%" stop-color="rgb(206,14,45)"/></linearGradient><linearGradient id="e0n8dpFsVlg25-fill" x1="-15.590000" y1="28.420000" x2="96.410000" y2="198.870000" spreadMethod="pad" gradientUnits="userSpaceOnUse"><stop id="e0n8dpFsVlg25-fill-0" offset="0%" stop-color="rgb(237,207,49)"/><stop id="e0n8dpFsVlg25-fill-1" offset="100%" stop-color="rgb(206,14,45)"/></linearGradient><linearGradient id="e0n8dpFsVlg26-fill" x1="70.920000" y1="-28.420000" x2="182.920000" y2="142.020000" spreadMethod="pad" gradientUnits="userSpaceOnUse"><stop id="e0n8dpFsVlg26-fill-0" offset="0%" stop-color="rgb(237,207,49)"/><stop id="e0n8dpFsVlg26-fill-1" offset="100%" stop-color="rgb(206,14,45)"/></linearGradient><linearGradient id="e0n8dpFsVlg27-fill" x1="50.510000" y1="-15.010000" x2="162.510000" y2="155.440000" spreadMethod="pad" gradientUnits="userSpaceOnUse"><stop id="e0n8dpFsVlg27-fill-0" offset="0%" stop-color="rgb(237,207,49)"/><stop id="e0n8dpFsVlg27-fill-1" offset="100%" stop-color="rgb(206,14,45)"/></linearGradient><linearGradient id="e0n8dpFsVlg28-fill" x1="4.820000" y1="15.010000" x2="116.820000" y2="185.460000" spreadMethod="pad" gradientUnits="userSpaceOnUse"><stop id="e0n8dpFsVlg28-fill-0" offset="0%" stop-color="rgb(237,207,49)"/><stop id="e0n8dpFsVlg28-fill-1" offset="100%" stop-color="rgb(206,14,45)"/></linearGradient><linearGradient id="e0n8dpFsVlg29-fill" x1="37.360000" y1="-6.380000" x2="149.370000" y2="164.070000" spreadMethod="pad" gradientUnits="userSpaceOnUse"><stop id="e0n8dpFsVlg29-fill-0" offset="0%" stop-color="rgb(237,207,49)"/><stop id="e0n8dpFsVlg29-fill-1" offset="100%" stop-color="rgb(206,14,45)"/></linearGradient><linearGradient id="e0n8dpFsVlg30-fill" x1="17.960000" y1="6.370000" x2="129.960000" y2="176.820000" spreadMethod="pad" gradientUnits="userSpaceOnUse"><stop id="e0n8dpFsVlg30-fill-0" offset="0%" stop-color="rgb(237,207,49)"/><stop id="e0n8dpFsVlg30-fill-1" offset="100%" stop-color="rgb(206,14,45)"/></linearGradient><linearGradient id="e0n8dpFsVlg31-fill" x1="23.500000" y1="2.740000" x2="135.500000" y2="173.180000" spreadMethod="pad" gradientUnits="userSpaceOnUse"><stop id="e0n8dpFsVlg31-fill-0" offset="0%" stop-color="rgb(237,207,49)"/><stop id="e0n8dpFsVlg31-fill-1" offset="100%" stop-color="rgb(206,14,45)"/></linearGradient><linearGradient id="e0n8dpFsVlg32-fill" x1="31.830000" y1="-2.740000" x2="143.830000" y2="167.710000" spreadMethod="pad" gradientUnits="userSpaceOnUse"><stop id="e0n8dpFsVlg32-fill-0" offset="0%" stop-color="rgb(237,207,49)"/><stop id="e0n8dpFsVlg32-fill-1" offset="100%" stop-color="rgb(206,14,45)"/></linearGradient><linearGradient id="e0n8dpFsVlg33-fill" x1="9.940000" y1="11.640000" x2="121.940000" y2="182.090000" spreadMethod="pad" gradientUnits="userSpaceOnUse"><stop id="e0n8dpFsVlg33-fill-0" offset="0%" stop-color="rgb(237,207,49)"/><stop id="e0n8dpFsVlg33-fill-1" offset="100%" stop-color="rgb(206,14,45)"/></linearGradient><linearGradient id="e0n8dpFsVlg34-fill" x1="45.380000" y1="-11.640000" x2="157.380000" y2="158.800000" spreadMethod="pad" gradientUnits="userSpaceOnUse"><stop id="e0n8dpFsVlg34-fill-0" offset="0%" stop-color="rgb(237,207,49)"/><stop id="e0n8dpFsVlg34-fill-1" offset="100%" stop-color="rgb(206,14,45)"/></linearGradient><linearGradient id="e0n8dpFsVlg35-fill" x1="-2.390000" y1="19.750000" x2="109.610000" y2="190.190000" spreadMethod="pad" gradientUnits="userSpaceOnUse"><stop id="e0n8dpFsVlg35-fill-0" offset="0%" stop-color="rgb(237,207,49)"/><stop id="e0n8dpFsVlg35-fill-1" offset="100%" stop-color="rgb(206,14,45)"/></linearGradient><linearGradient id="e0n8dpFsVlg36-fill" x1="57.720000" y1="-19.750000" x2="169.720000" y2="150.700000" spreadMethod="pad" gradientUnits="userSpaceOnUse"><stop id="e0n8dpFsVlg36-fill-0" offset="0%" stop-color="rgb(237,207,49)"/><stop id="e0n8dpFsVlg36-fill-1" offset="100%" stop-color="rgb(206,14,45)"/></linearGradient><linearGradient id="e0n8dpFsVlg37-fill" x1="-12.810000" y1="26.600000" x2="99.190000" y2="197.040000" spreadMethod="pad" gradientUnits="userSpaceOnUse"><stop id="e0n8dpFsVlg37-fill-0" offset="0%" stop-color="rgb(237,207,49)"/><stop id="e0n8dpFsVlg37-fill-1" offset="100%" stop-color="rgb(206,14,45)"/></linearGradient><linearGradient id="e0n8dpFsVlg38-fill" x1="68.330000" y1="-26.720000" x2="180.330000" y2="143.720000" spreadMethod="pad" gradientUnits="userSpaceOnUse"><stop id="e0n8dpFsVlg38-fill-0" offset="0%" stop-color="rgb(237,207,49)"/><stop id="e0n8dpFsVlg38-fill-1" offset="100%" stop-color="rgb(206,14,45)"/></linearGradient><linearGradient id="e0n8dpFsVlg39-fill" x1="-20.790000" y1="31.840000" x2="91.210000" y2="202.290000" spreadMethod="pad" gradientUnits="userSpaceOnUse"><stop id="e0n8dpFsVlg39-fill-0" offset="0%" stop-color="rgb(237,207,49)"/><stop id="e0n8dpFsVlg39-fill-1" offset="100%" stop-color="rgb(206,14,45)"/></linearGradient><linearGradient id="e0n8dpFsVlg40-fill" x1="76.120000" y1="-31.840000" x2="188.120000" y2="138.610000" spreadMethod="pad" gradientUnits="userSpaceOnUse"><stop id="e0n8dpFsVlg40-fill-0" offset="0%" stop-color="rgb(237,207,49)"/><stop id="e0n8dpFsVlg40-fill-1" offset="100%" stop-color="rgb(206,14,45)"/></linearGradient><linearGradient id="e0n8dpFsVlg41-fill" x1="-24.960000" y1="34.580000" x2="87.040000" y2="205.030000" spreadMethod="pad" gradientUnits="userSpaceOnUse"><stop id="e0n8dpFsVlg41-fill-0" offset="0%" stop-color="rgb(237,207,49)"/><stop id="e0n8dpFsVlg41-fill-1" offset="100%" stop-color="rgb(206,14,45)"/></linearGradient><linearGradient id="e0n8dpFsVlg42-fill" x1="80.250000" y1="-34.560000" x2="192.250000" y2="135.890000" spreadMethod="pad" gradientUnits="userSpaceOnUse"><stop id="e0n8dpFsVlg42-fill-0" offset="0%" stop-color="rgb(237,207,49)"/><stop id="e0n8dpFsVlg42-fill-1" offset="100%" stop-color="rgb(206,14,45)"/></linearGradient><linearGradient id="e0n8dpFsVlg43-fill" x1="-25.800000" y1="35.130000" x2="86.200000" y2="205.570000" spreadMethod="pad" gradientUnits="userSpaceOnUse"><stop id="e0n8dpFsVlg43-fill-0" offset="0%" stop-color="rgb(237,207,49)"/><stop id="e0n8dpFsVlg43-fill-1" offset="100%" stop-color="rgb(206,14,45)"/></linearGradient><linearGradient id="e0n8dpFsVlg44-fill" x1="81.120000" y1="-35.130000" x2="193.120000" y2="135.320000" spreadMethod="pad" gradientUnits="userSpaceOnUse"><stop id="e0n8dpFsVlg44-fill-0" offset="0%" stop-color="rgb(237,207,49)"/><stop id="e0n8dpFsVlg44-fill-1" offset="100%" stop-color="rgb(206,14,45)"/></linearGradient><linearGradient id="e0n8dpFsVlg45-fill" x1="-22.790000" y1="33.150000" x2="89.210000" y2="203.600000" spreadMethod="pad" gradientUnits="userSpaceOnUse"><stop id="e0n8dpFsVlg45-fill-0" offset="0%" stop-color="rgb(237,207,49)"/><stop id="e0n8dpFsVlg45-fill-1" offset="100%" stop-color="rgb(206,14,45)"/></linearGradient><linearGradient id="e0n8dpFsVlg46-fill" x1="78.070000" y1="-33.130000" x2="190.070000" y2="137.320000" spreadMethod="pad" gradientUnits="userSpaceOnUse"><stop id="e0n8dpFsVlg46-fill-0" offset="0%" stop-color="rgb(237,207,49)"/><stop id="e0n8dpFsVlg46-fill-1" offset="100%" stop-color="rgb(206,14,45)"/></linearGradient><linearGradient id="e0n8dpFsVlg47-fill" x1="-16.410000" y1="28.960000" x2="95.590000" y2="199.410000" spreadMethod="pad" gradientUnits="userSpaceOnUse"><stop id="e0n8dpFsVlg47-fill-0" offset="0%" stop-color="rgb(237,207,49)"/><stop id="e0n8dpFsVlg47-fill-1" offset="100%" stop-color="rgb(206,14,45)"/></linearGradient><linearGradient id="e0n8dpFsVlg48-fill" x1="71.740000" y1="-28.960000" x2="183.740000" y2="141.480000" spreadMethod="pad" gradientUnits="userSpaceOnUse"><stop id="e0n8dpFsVlg48-fill-0" offset="0%" stop-color="rgb(237,207,49)"/><stop id="e0n8dpFsVlg48-fill-1" offset="100%" stop-color="rgb(206,14,45)"/></linearGradient><linearGradient id="e0n8dpFsVlg49-fill" x1="-6.940000" y1="22.740000" x2="105.060000" y2="193.180000" spreadMethod="pad" gradientUnits="userSpaceOnUse"><stop id="e0n8dpFsVlg49-fill-0" offset="0%" stop-color="rgb(237,207,49)"/><stop id="e0n8dpFsVlg49-fill-1" offset="100%" stop-color="rgb(206,14,45)"/></linearGradient><linearGradient id="e0n8dpFsVlg50-fill" x1="62.270000" y1="-22.740000" x2="174.270000" y2="147.710000" spreadMethod="pad" gradientUnits="userSpaceOnUse"><stop id="e0n8dpFsVlg50-fill-0" offset="0%" stop-color="rgb(237,207,49)"/><stop id="e0n8dpFsVlg50-fill-1" offset="100%" stop-color="rgb(206,14,45)"/></linearGradient><linearGradient id="e0n8dpFsVlg51-fill" x1="67.390000" y1="-26.110000" x2="179.390000" y2="144.340000" spreadMethod="pad" gradientUnits="userSpaceOnUse"><stop id="e0n8dpFsVlg51-fill-0" offset="0%" stop-color="rgb(237,207,49)"/><stop id="e0n8dpFsVlg51-fill-1" offset="100%" stop-color="rgb(206,14,45)"/></linearGradient><linearGradient id="e0n8dpFsVlg52-fill" x1="-12.080000" y1="26.110000" x2="99.920000" y2="196.560000" spreadMethod="pad" gradientUnits="userSpaceOnUse"><stop id="e0n8dpFsVlg52-fill-0" offset="0%" stop-color="rgb(237,207,49)"/><stop id="e0n8dpFsVlg52-fill-1" offset="100%" stop-color="rgb(206,14,45)"/></linearGradient><linearGradient id="e0n8dpFsVlg53-fill" x1="54.030000" y1="-17.320000" x2="166.030000" y2="153.120000" spreadMethod="pad" gradientUnits="userSpaceOnUse"><stop id="e0n8dpFsVlg53-fill-0" offset="0%" stop-color="rgb(237,207,49)"/><stop id="e0n8dpFsVlg53-fill-1" offset="100%" stop-color="rgb(206,14,45)"/></linearGradient><linearGradient id="e0n8dpFsVlg54-fill" x1="1.300000" y1="17.320000" x2="113.300000" y2="187.770000" spreadMethod="pad" gradientUnits="userSpaceOnUse"><stop id="e0n8dpFsVlg54-fill-0" offset="0%" stop-color="rgb(237,207,49)"/><stop id="e0n8dpFsVlg54-fill-1" offset="100%" stop-color="rgb(206,14,45)"/></linearGradient><linearGradient id="e0n8dpFsVlg55-fill" x1="38.880000" y1="-7.370000" x2="150.880000" y2="163.070000" spreadMethod="pad" gradientUnits="userSpaceOnUse"><stop id="e0n8dpFsVlg55-fill-0" offset="0%" stop-color="rgb(237,207,49)"/><stop id="e0n8dpFsVlg55-fill-1" offset="100%" stop-color="rgb(206,14,45)"/></linearGradient><linearGradient id="e0n8dpFsVlg56-fill" x1="16.460000" y1="7.360000" x2="128.460000" y2="177.810000" spreadMethod="pad" gradientUnits="userSpaceOnUse"><stop id="e0n8dpFsVlg56-fill-0" offset="0%" stop-color="rgb(237,207,49)"/><stop id="e0n8dpFsVlg56-fill-1" offset="100%" stop-color="rgb(206,14,45)"/></linearGradient><linearGradient id="e0n8dpFsVlg57-fill" x1="22.780000" y1="3.210000" x2="134.780000" y2="173.650000" spreadMethod="pad" gradientUnits="userSpaceOnUse"><stop id="e0n8dpFsVlg57-fill-0" offset="0%" stop-color="rgb(237,207,49)"/><stop id="e0n8dpFsVlg57-fill-1" offset="100%" stop-color="rgb(206,14,45)"/></linearGradient><linearGradient id="e0n8dpFsVlg58-fill" x1="32.540000" y1="-3.210000" x2="144.540000" y2="167.240000" spreadMethod="pad" gradientUnits="userSpaceOnUse"><stop id="e0n8dpFsVlg58-fill-0" offset="0%" stop-color="rgb(237,207,49)"/><stop id="e0n8dpFsVlg58-fill-1" offset="100%" stop-color="rgb(206,14,45)"/></linearGradient><linearGradient id="e0n8dpFsVlg59-fill" x1="7.230000" y1="13.430000" x2="119.230000" y2="183.880000" spreadMethod="pad" gradientUnits="userSpaceOnUse"><stop id="e0n8dpFsVlg59-fill-0" offset="0%" stop-color="rgb(237,207,49)"/><stop id="e0n8dpFsVlg59-fill-1" offset="100%" stop-color="rgb(206,14,45)"/></linearGradient><linearGradient id="e0n8dpFsVlg60-fill" x1="48.100000" y1="-13.430000" x2="160.100000" y2="157.020000" spreadMethod="pad" gradientUnits="userSpaceOnUse"><stop id="e0n8dpFsVlg60-fill-0" offset="0%" stop-color="rgb(237,207,49)"/><stop id="e0n8dpFsVlg60-fill-1" offset="100%" stop-color="rgb(206,14,45)"/></linearGradient><linearGradient id="e0n8dpFsVlg61-fill" x1="-7.100000" y1="22.840000" x2="104.900000" y2="193.290000" spreadMethod="pad" gradientUnits="userSpaceOnUse"><stop id="e0n8dpFsVlg61-fill-0" offset="0%" stop-color="rgb(237,207,49)"/><stop id="e0n8dpFsVlg61-fill-1" offset="100%" stop-color="rgb(206,14,45)"/></linearGradient><linearGradient id="e0n8dpFsVlg62-fill" x1="62.460000" y1="-22.860000" x2="174.460000" y2="147.580000" spreadMethod="pad" gradientUnits="userSpaceOnUse"><stop id="e0n8dpFsVlg62-fill-0" offset="0%" stop-color="rgb(237,207,49)"/><stop id="e0n8dpFsVlg62-fill-1" offset="100%" stop-color="rgb(206,14,45)"/></linearGradient><linearGradient id="e0n8dpFsVlg63-fill" x1="-18.960000" y1="30.630000" x2="93.040000" y2="201.080000" spreadMethod="pad" gradientUnits="userSpaceOnUse"><stop id="e0n8dpFsVlg63-fill-0" offset="0%" stop-color="rgb(237,207,49)"/><stop id="e0n8dpFsVlg63-fill-1" offset="100%" stop-color="rgb(206,14,45)"/></linearGradient><linearGradient id="e0n8dpFsVlg64-fill" x1="74.280000" y1="-30.640000" x2="186.280000" y2="139.810000" spreadMethod="pad" gradientUnits="userSpaceOnUse"><stop id="e0n8dpFsVlg64-fill-0" offset="0%" stop-color="rgb(237,207,49)"/><stop id="e0n8dpFsVlg64-fill-1" offset="100%" stop-color="rgb(206,14,45)"/></linearGradient><linearGradient id="e0n8dpFsVlg65-fill" x1="-27.590000" y1="36.310000" x2="84.410000" y2="206.750000" spreadMethod="pad" gradientUnits="userSpaceOnUse"><stop id="e0n8dpFsVlg65-fill-0" offset="0%" stop-color="rgb(237,207,49)"/><stop id="e0n8dpFsVlg65-fill-1" offset="100%" stop-color="rgb(206,14,45)"/></linearGradient><linearGradient id="e0n8dpFsVlg66-fill" x1="82.830000" y1="-36.250000" x2="194.840000" y2="134.190000" spreadMethod="pad" gradientUnits="userSpaceOnUse"><stop id="e0n8dpFsVlg66-fill-0" offset="0%" stop-color="rgb(237,207,49)"/><stop id="e0n8dpFsVlg66-fill-1" offset="100%" stop-color="rgb(206,14,45)"/></linearGradient><linearGradient id="e0n8dpFsVlg67-fill" x1="-32.580000" y1="39.580000" x2="79.420000" y2="210.030000" spreadMethod="pad" gradientUnits="userSpaceOnUse"><stop id="e0n8dpFsVlg67-fill-0" offset="0%" stop-color="rgb(237,207,49)"/><stop id="e0n8dpFsVlg67-fill-1" offset="100%" stop-color="rgb(206,14,45)"/></linearGradient><linearGradient id="e0n8dpFsVlg68-fill" x1="87.900000" y1="-39.590000" x2="199.910000" y2="130.860000" spreadMethod="pad" gradientUnits="userSpaceOnUse"><stop id="e0n8dpFsVlg68-fill-0" offset="0%" stop-color="rgb(237,207,49)"/><stop id="e0n8dpFsVlg68-fill-1" offset="100%" stop-color="rgb(206,14,45)"/></linearGradient><linearGradient id="e0n8dpFsVlg69-fill" x1="-33.320000" y1="40.070000" x2="78.680000" y2="210.520000" spreadMethod="pad" gradientUnits="userSpaceOnUse"><stop id="e0n8dpFsVlg69-fill-0" offset="0%" stop-color="rgb(237,207,49)"/><stop id="e0n8dpFsVlg69-fill-1" offset="100%" stop-color="rgb(206,14,45)"/></linearGradient><linearGradient id="e0n8dpFsVlg70-fill" x1="88.640000" y1="-40.070000" x2="200.640000" y2="130.380000" spreadMethod="pad" gradientUnits="userSpaceOnUse"><stop id="e0n8dpFsVlg70-fill-0" offset="0%" stop-color="rgb(237,207,49)"/><stop id="e0n8dpFsVlg70-fill-1" offset="100%" stop-color="rgb(206,14,45)"/></linearGradient><linearGradient id="e0n8dpFsVlg71-fill" x1="-30.120000" y1="37.970000" x2="81.880000" y2="208.410000" spreadMethod="pad" gradientUnits="userSpaceOnUse"><stop id="e0n8dpFsVlg71-fill-0" offset="0%" stop-color="rgb(237,207,49)"/><stop id="e0n8dpFsVlg71-fill-1" offset="100%" stop-color="rgb(206,14,45)"/></linearGradient><linearGradient id="e0n8dpFsVlg72-fill" x1="85.440000" y1="-37.970000" x2="197.440000" y2="132.480000" spreadMethod="pad" gradientUnits="userSpaceOnUse"><stop id="e0n8dpFsVlg72-fill-0" offset="0%" stop-color="rgb(237,207,49)"/><stop id="e0n8dpFsVlg72-fill-1" offset="100%" stop-color="rgb(206,14,45)"/></linearGradient><linearGradient id="e0n8dpFsVlg73-fill" x1="-22.800000" y1="33.160000" x2="89.200000" y2="203.610000" spreadMethod="pad" gradientUnits="userSpaceOnUse"><stop id="e0n8dpFsVlg73-fill-0" offset="0%" stop-color="rgb(237,207,49)"/><stop id="e0n8dpFsVlg73-fill-1" offset="100%" stop-color="rgb(206,14,45)"/></linearGradient><linearGradient id="e0n8dpFsVlg74-fill" x1="78.130000" y1="-33.160000" x2="190.130000" y2="137.290000" spreadMethod="pad" gradientUnits="userSpaceOnUse"><stop id="e0n8dpFsVlg74-fill-0" offset="0%" stop-color="rgb(237,207,49)"/><stop id="e0n8dpFsVlg74-fill-1" offset="100%" stop-color="rgb(206,14,45)"/></linearGradient><linearGradient id="e0n8dpFsVlg75-fill" x1="62.700000" y1="-23.030000" x2="174.700000" y2="147.420000" spreadMethod="pad" gradientUnits="userSpaceOnUse"><stop id="e0n8dpFsVlg75-fill-0" offset="0%" stop-color="rgb(237,207,49)"/><stop id="e0n8dpFsVlg75-fill-1" offset="100%" stop-color="rgb(206,14,45)"/></linearGradient><linearGradient id="e0n8dpFsVlg76-fill" x1="-7.380000" y1="23.020000" x2="104.620000" y2="193.470000" spreadMethod="pad" gradientUnits="userSpaceOnUse"><stop id="e0n8dpFsVlg76-fill-0" offset="0%" stop-color="rgb(237,207,49)"/><stop id="e0n8dpFsVlg76-fill-1" offset="100%" stop-color="rgb(206,14,45)"/></linearGradient><linearGradient id="e0n8dpFsVlg77-fill" x1="47.480000" y1="-13.020000" x2="159.480000" y2="157.430000" spreadMethod="pad" gradientUnits="userSpaceOnUse"><stop id="e0n8dpFsVlg77-fill-0" offset="0%" stop-color="rgb(237,207,49)"/><stop id="e0n8dpFsVlg77-fill-1" offset="100%" stop-color="rgb(206,14,45)"/></linearGradient><linearGradient id="e0n8dpFsVlg78-fill" x1="7.820000" y1="13.030000" x2="119.820000" y2="183.480000" spreadMethod="pad" gradientUnits="userSpaceOnUse"><stop id="e0n8dpFsVlg78-fill-0" offset="0%" stop-color="rgb(237,207,49)"/><stop id="e0n8dpFsVlg78-fill-1" offset="100%" stop-color="rgb(206,14,45)"/></linearGradient><linearGradient id="e0n8dpFsVlg79-fill" x1="31" y1="-2.190000" x2="143" y2="168.260000" spreadMethod="pad" gradientUnits="userSpaceOnUse"><stop id="e0n8dpFsVlg79-fill-0" offset="0%" stop-color="rgb(237,207,49)"/><stop id="e0n8dpFsVlg79-fill-1" offset="100%" stop-color="rgb(206,14,45)"/></linearGradient><linearGradient id="e0n8dpFsVlg80-fill" x1="24.330000" y1="2.190000" x2="136.330000" y2="172.640000" spreadMethod="pad" gradientUnits="userSpaceOnUse"><stop id="e0n8dpFsVlg80-fill-0" offset="0%" stop-color="rgb(237,207,49)"/><stop id="e0n8dpFsVlg80-fill-1" offset="100%" stop-color="rgb(206,14,45)"/></linearGradient><linearGradient id="e0n8dpFsVlg81-fill" x1="14.160000" y1="8.870000" x2="126.160000" y2="179.320000" spreadMethod="pad" gradientUnits="userSpaceOnUse"><stop id="e0n8dpFsVlg81-fill-0" offset="0%" stop-color="rgb(237,207,49)"/><stop id="e0n8dpFsVlg81-fill-1" offset="100%" stop-color="rgb(206,14,45)"/></linearGradient><linearGradient id="e0n8dpFsVlg82-fill" x1="41.160000" y1="-8.870000" x2="153.160000" y2="161.570000" spreadMethod="pad" gradientUnits="userSpaceOnUse"><stop id="e0n8dpFsVlg82-fill-0" offset="0%" stop-color="rgb(237,207,49)"/><stop id="e0n8dpFsVlg82-fill-1" offset="100%" stop-color="rgb(206,14,45)"/></linearGradient><linearGradient id="e0n8dpFsVlg83-fill" x1="-1.580000" y1="19.210000" x2="110.420000" y2="189.660000" spreadMethod="pad" gradientUnits="userSpaceOnUse"><stop id="e0n8dpFsVlg83-fill-0" offset="0%" stop-color="rgb(237,207,49)"/><stop id="e0n8dpFsVlg83-fill-1" offset="100%" stop-color="rgb(206,14,45)"/></linearGradient><linearGradient id="e0n8dpFsVlg84-fill" x1="56.900000" y1="-19.210000" x2="168.900000" y2="151.230000" spreadMethod="pad" gradientUnits="userSpaceOnUse"><stop id="e0n8dpFsVlg84-fill-0" offset="0%" stop-color="rgb(237,207,49)"/><stop id="e0n8dpFsVlg84-fill-1" offset="100%" stop-color="rgb(206,14,45)"/></linearGradient><linearGradient id="e0n8dpFsVlg85-fill" x1="-15.530000" y1="28.380000" x2="96.470000" y2="198.830000" spreadMethod="pad" gradientUnits="userSpaceOnUse"><stop id="e0n8dpFsVlg85-fill-0" offset="0%" stop-color="rgb(237,207,49)"/><stop id="e0n8dpFsVlg85-fill-1" offset="100%" stop-color="rgb(206,14,45)"/></linearGradient><linearGradient id="e0n8dpFsVlg86-fill" x1="70.880000" y1="-28.400000" x2="182.880000" y2="142.050000" spreadMethod="pad" gradientUnits="userSpaceOnUse"><stop id="e0n8dpFsVlg86-fill-0" offset="0%" stop-color="rgb(237,207,49)"/><stop id="e0n8dpFsVlg86-fill-1" offset="100%" stop-color="rgb(206,14,45)"/></linearGradient><linearGradient id="e0n8dpFsVlg87-fill" x1="-26.340000" y1="35.490000" x2="85.660000" y2="205.930000" spreadMethod="pad" gradientUnits="userSpaceOnUse"><stop id="e0n8dpFsVlg87-fill-0" offset="0%" stop-color="rgb(237,207,49)"/><stop id="e0n8dpFsVlg87-fill-1" offset="100%" stop-color="rgb(206,14,45)"/></linearGradient><linearGradient id="e0n8dpFsVlg88-fill" x1="81.670000" y1="-35.490000" x2="193.670000" y2="134.960000" spreadMethod="pad" gradientUnits="userSpaceOnUse"><stop id="e0n8dpFsVlg88-fill-0" offset="0%" stop-color="rgb(237,207,49)"/><stop id="e0n8dpFsVlg88-fill-1" offset="100%" stop-color="rgb(206,14,45)"/></linearGradient><linearGradient id="e0n8dpFsVlg89-fill" x1="-33.590000" y1="40.250000" x2="78.410000" y2="210.700000" spreadMethod="pad" gradientUnits="userSpaceOnUse"><stop id="e0n8dpFsVlg89-fill-0" offset="0%" stop-color="rgb(237,207,49)"/><stop id="e0n8dpFsVlg89-fill-1" offset="100%" stop-color="rgb(206,14,45)"/></linearGradient><linearGradient id="e0n8dpFsVlg90-fill" x1="88.940000" y1="-40.270000" x2="200.940000" y2="130.180000" spreadMethod="pad" gradientUnits="userSpaceOnUse"><stop id="e0n8dpFsVlg90-fill-0" offset="0%" stop-color="rgb(237,207,49)"/><stop id="e0n8dpFsVlg90-fill-1" offset="100%" stop-color="rgb(206,14,45)"/></linearGradient><linearGradient id="e0n8dpFsVlg91-fill" x1="-36.690000" y1="42.280000" x2="75.310000" y2="212.730000" spreadMethod="pad" gradientUnits="userSpaceOnUse"><stop id="e0n8dpFsVlg91-fill-0" offset="0%" stop-color="rgb(237,207,49)"/><stop id="e0n8dpFsVlg91-fill-1" offset="100%" stop-color="rgb(206,14,45)"/></linearGradient><linearGradient id="e0n8dpFsVlg92-fill" x1="92.010000" y1="-42.290000" x2="204.010000" y2="128.160000" spreadMethod="pad" gradientUnits="userSpaceOnUse"><stop id="e0n8dpFsVlg92-fill-0" offset="0%" stop-color="rgb(237,207,49)"/><stop id="e0n8dpFsVlg92-fill-1" offset="100%" stop-color="rgb(206,14,45)"/></linearGradient><linearGradient id="e0n8dpFsVlg93-fill" x1="-35.250000" y1="41.340000" x2="76.750000" y2="211.780000" spreadMethod="pad" gradientUnits="userSpaceOnUse"><stop id="e0n8dpFsVlg93-fill-0" offset="0%" stop-color="rgb(237,207,49)"/><stop id="e0n8dpFsVlg93-fill-1" offset="100%" stop-color="rgb(206,14,45)"/></linearGradient><linearGradient id="e0n8dpFsVlg94-fill" x1="90.690000" y1="-41.420000" x2="202.690000" y2="129.030000" spreadMethod="pad" gradientUnits="userSpaceOnUse"><stop id="e0n8dpFsVlg94-fill-0" offset="0%" stop-color="rgb(237,207,49)"/><stop id="e0n8dpFsVlg94-fill-1" offset="100%" stop-color="rgb(206,14,45)"/></linearGradient><linearGradient id="e0n8dpFsVlg95-fill" x1="-29.680000" y1="37.680000" x2="82.320000" y2="208.120000" spreadMethod="pad" gradientUnits="userSpaceOnUse"><stop id="e0n8dpFsVlg95-fill-0" offset="0%" stop-color="rgb(237,207,49)"/><stop id="e0n8dpFsVlg95-fill-1" offset="100%" stop-color="rgb(206,14,45)"/></linearGradient><linearGradient id="e0n8dpFsVlg96-fill" x1="85" y1="-37.680000" x2="197" y2="132.770000" spreadMethod="pad" gradientUnits="userSpaceOnUse"><stop id="e0n8dpFsVlg96-fill-0" offset="0%" stop-color="rgb(237,207,49)"/><stop id="e0n8dpFsVlg96-fill-1" offset="100%" stop-color="rgb(206,14,45)"/></linearGradient><linearGradient id="e0n8dpFsVlg97-fill" x1="-20.130000" y1="31.400000" x2="91.870000" y2="201.850000" spreadMethod="pad" gradientUnits="userSpaceOnUse"><stop id="e0n8dpFsVlg97-fill-0" offset="0%" stop-color="rgb(237,207,49)"/><stop id="e0n8dpFsVlg97-fill-1" offset="100%" stop-color="rgb(206,14,45)"/></linearGradient><linearGradient id="e0n8dpFsVlg98-fill" x1="75.390000" y1="-31.360000" x2="187.390000" y2="139.080000" spreadMethod="pad" gradientUnits="userSpaceOnUse"><stop id="e0n8dpFsVlg98-fill-0" offset="0%" stop-color="rgb(237,207,49)"/><stop id="e0n8dpFsVlg98-fill-1" offset="100%" stop-color="rgb(206,14,45)"/></linearGradient><linearGradient id="e0n8dpFsVlg99-fill" x1="27.460000" y1="0.130000" x2="139.460000" y2="170.580000" spreadMethod="pad" gradientUnits="userSpaceOnUse"><stop id="e0n8dpFsVlg99-fill-0" offset="0%" stop-color="rgb(237,207,49)"/><stop id="e0n8dpFsVlg99-fill-1" offset="100%" stop-color="rgb(206,14,45)"/></linearGradient></defs><g id="e0n8dpFsVlg2"><path id="e0n8dpFsVlg3" d="M79.300000,13.140000C80.130000,12.470000,82.480000,11.980000,83.300000,10.330000C84,8.840000,81.140000,6,79.300000,6C77.460000,6,74.610000,8.810000,75.300000,10.300000C76.110000,12,78.290000,12.310000,79.300000,13.140000Z" fill="url(#e0n8dpFsVlg3-fill)" stroke="none" stroke-width="1"/><path id="e0n8dpFsVlg4" d="M79.300000,144C78.460000,144.660000,76.120000,145.150000,75.300000,146.810000C74.630000,148.130000,77.300000,151.100000,79.300000,151.100000C81.300000,151.100000,83.980000,148.100000,83.300000,146.810000C82.480000,145.170000,80.300000,144.840000,79.300000,144Z" fill="url(#e0n8dpFsVlg4-fill)" stroke="none" stroke-width="1"/><path id="e0n8dpFsVlg5" d="M62.060000,15.280000C62.730000,14.280000,64.730000,13.470000,65.060000,11.650000C65.390000,10.160000,61.880000,8.010000,60.060000,8.510000C58.240000,9.010000,56.380000,12.510000,57.380000,13.630000C58.880000,15.120000,61.050000,14.790000,62.060000,15.280000Z" fill="url(#e0n8dpFsVlg5-fill)" stroke="none" stroke-width="1"/><path id="e0n8dpFsVlg6" d="M96.530000,141.870000C95.860000,142.870000,93.860000,143.690000,93.530000,145.500000C93.200000,146.990000,96.710000,149.140000,98.530000,148.640000C100.350000,148.140000,102.210000,144.640000,101.210000,143.520000C99.710000,142,97.540000,142.360000,96.530000,141.870000Z" fill="url(#e0n8dpFsVlg6-fill)" stroke="none" stroke-width="1"/><path id="e0n8dpFsVlg7" d="M41.300000,21.400000C42.810000,22.400000,44.820000,21.560000,46.160000,21.890000C46.490000,20.890000,48.330000,19.420000,48.160000,17.600000C48,16.110000,44.160000,14.790000,42.470000,15.780000C41,16.610000,40,20.570000,41.300000,21.400000Z" fill="url(#e0n8dpFsVlg7-fill)" stroke="none" stroke-width="1"/><path id="e0n8dpFsVlg8" d="M117.290000,135.750000C115.780000,134.750000,113.770000,135.590000,112.430000,135.260000C112.100000,136.260000,110.260000,137.740000,110.430000,139.550000C110.590000,141.040000,114.430000,142.360000,116.120000,141.370000C117.790000,140.550000,118.630000,136.580000,117.290000,135.750000Z" fill="url(#e0n8dpFsVlg8-fill)" stroke="none" stroke-width="1"/><path id="e0n8dpFsVlg9" d="M27.580000,33.130000C29.420000,33.790000,31.090000,32.470000,32.430000,32.310000C32.430000,31.150000,33.940000,29.310000,33.270000,27.510000C32.770000,26.030000,28.750000,25.860000,27.410000,27.180000C25.900000,28.500000,26.070000,32.640000,27.580000,33.130000Z" fill="url(#e0n8dpFsVlg9-fill)" stroke="none" stroke-width="1"/><path id="e0n8dpFsVlg10" d="M131,124C129.160000,123.340000,127.490000,124.660000,126.150000,124.830000C126.150000,125.980000,124.640000,127.830000,125.310000,129.620000C125.810000,131.110000,129.830000,131.270000,131.170000,129.950000C132.690000,128.650000,132.520000,124.680000,131,124Z" fill="url(#e0n8dpFsVlg10-fill)" stroke="none" stroke-width="1"/><path id="e0n8dpFsVlg11" d="M17.370000,47.840000C19.210000,48,20.550000,46.190000,21.720000,45.840000C21.550000,44.840000,22.390000,42.700000,21.220000,41.040000C20.380000,39.720000,16.360000,40.550000,15.360000,42.200000C14.690000,43.870000,15.860000,47.670000,17.370000,47.840000Z" fill="url(#e0n8dpFsVlg11-fill)" stroke="none" stroke-width="1"/><path id="e0n8dpFsVlg12" d="M141.220000,109.310000C139.380000,109.150000,138.040000,110.970000,136.870000,111.310000C137.040000,112.310000,136.200000,114.450000,137.370000,116.100000C138.210000,117.420000,142.230000,116.590000,143.230000,114.940000C144.230000,113.290000,142.730000,109.480000,141.220000,109.310000Z" fill="url(#e0n8dpFsVlg12-fill)" stroke="none" stroke-width="1"/><path id="e0n8dpFsVlg13" d="M11.510000,64.690000C13.350000,64.360000,14.190000,62.380000,15.190000,61.690000C14.690000,60.690000,14.860000,58.390000,13.520000,57.230000C12.350000,56.230000,8.660000,58.050000,8.330000,59.870000C8,61.690000,10,65,11.510000,64.690000Z" fill="url(#e0n8dpFsVlg13-fill)" stroke="none" stroke-width="1"/><path id="e0n8dpFsVlg14" d="M147.080000,92.460000C145.240000,92.790000,144.400000,94.770000,143.400000,95.460000C143.900000,96.460000,143.730000,98.770000,145.070000,99.920000C146.240000,100.920000,149.930000,99.100000,150.260000,97.280000C150.760000,95.600000,148.590000,92.130000,147.080000,92.460000Z" fill="url(#e0n8dpFsVlg14-fill)" stroke="none" stroke-width="1"/><path id="e0n8dpFsVlg15" d="M10.170000,74.610000C8.830000,73.950000,5.820000,76.610000,5.820000,78.610000C5.820000,80.610000,8.660000,83.230000,10.170000,82.610000C11.840000,81.790000,12.170000,79.610000,13.020000,78.610000C12.180000,77.750000,11.840000,75.440000,10.170000,74.610000Z" fill="url(#e0n8dpFsVlg15-fill)" stroke="none" stroke-width="1"/><path id="e0n8dpFsVlg16" d="M148.420000,82.540000C149.760000,83.200000,152.770000,80.540000,152.770000,78.540000C152.770000,76.540000,149.770000,73.910000,148.420000,74.540000C146.750000,75.370000,146.420000,77.540000,145.570000,78.540000C146.410000,79.400000,146.750000,81.720000,148.420000,82.540000Z" fill="url(#e0n8dpFsVlg16-fill)" stroke="none" stroke-width="1"/><path id="e0n8dpFsVlg17" d="M11.510000,92.460000C10,92.130000,7.830000,95.600000,8.330000,97.460000C8.830000,99.320000,12.330000,101.090000,13.520000,100.100000C15.020000,98.940000,14.690000,96.790000,15.190000,95.640000C14.350000,94.940000,13.350000,92.790000,11.510000,92.460000Z" fill="url(#e0n8dpFsVlg17-fill)" stroke="none" stroke-width="1"/><path id="e0n8dpFsVlg18" d="M147.080000,64.690000C148.590000,65.030000,150.760000,61.560000,150.260000,59.740000C149.760000,57.920000,146.260000,56.100000,145.070000,57.090000C143.570000,58.250000,143.900000,60.400000,143.400000,61.560000C144.240000,62.220000,145.240000,64.360000,147.080000,64.690000Z" fill="url(#e0n8dpFsVlg18-fill)" stroke="none" stroke-width="1"/><path id="e0n8dpFsVlg19" d="M21.380000,116.090000C22.380000,114.600000,21.550000,112.620000,21.890000,111.300000C20.890000,110.970000,19.380000,109.150000,17.530000,109.300000C16.030000,109.470000,14.690000,113.300000,15.690000,114.920000C16.530000,116.580000,20.550000,117.410000,21.380000,116.090000Z" fill="url(#e0n8dpFsVlg19-fill)" stroke="none" stroke-width="1"/><path id="e0n8dpFsVlg20" d="M137.210000,41.060000C136.210000,42.550000,137.040000,44.530000,136.700000,45.860000C137.700000,46.190000,139.210000,48,141.060000,47.860000C142.560000,47.690000,143.900000,43.860000,142.900000,42.240000C142.060000,40.730000,138,39.740000,137.210000,41.060000Z" fill="url(#e0n8dpFsVlg20-fill)" stroke="none" stroke-width="1"/><path id="e0n8dpFsVlg21" d="M33.270000,129.640000C33.940000,127.820000,32.600000,126.170000,32.430000,124.850000C31.260000,124.850000,29.430000,123.360000,27.580000,124.020000C26.070000,124.520000,25.900000,128.480000,27.240000,129.800000C28.580000,131.290000,32.770000,131.130000,33.270000,129.640000Z" fill="url(#e0n8dpFsVlg21-fill)" stroke="none" stroke-width="1"/><path id="e0n8dpFsVlg22" d="M125.320000,27.510000C124.650000,29.330000,125.990000,30.980000,126.160000,32.300000C127.330000,32.300000,129.160000,33.790000,131.010000,33.130000C132.520000,32.640000,132.690000,28.670000,131.350000,27.350000C130,25.860000,126,26,125.320000,27.510000Z" fill="url(#e0n8dpFsVlg22-fill)" stroke="none" stroke-width="1"/><path id="e0n8dpFsVlg23" d="M41.300000,135.750000C39.960000,136.580000,40.800000,140.550000,42.470000,141.540000C44.140000,142.530000,48,141.210000,48.160000,139.720000C48.330000,137.900000,46.490000,136.580000,46.160000,135.420000C45,135.590000,42.810000,134.760000,41.300000,135.750000Z" fill="url(#e0n8dpFsVlg23-fill)" stroke="none" stroke-width="1"/><path id="e0n8dpFsVlg24" d="M117.290000,21.400000C118.630000,20.570000,117.790000,16.610000,116.120000,15.610000C114.450000,14.610000,110.590000,15.940000,110.430000,17.430000C110.260000,19.250000,112.100000,20.570000,112.430000,21.730000C113.610000,21.560000,115.780000,22.390000,117.290000,21.400000Z" fill="url(#e0n8dpFsVlg24-fill)" stroke="none" stroke-width="1"/><path id="e0n8dpFsVlg25" d="M62.060000,141.870000C61.060000,142.360000,58.710000,142.200000,57.540000,143.520000C56.540000,144.680000,58.370000,148.310000,60.210000,148.640000C62.050000,148.970000,65.400000,146.990000,65.210000,145.500000C64.900000,143.690000,62.890000,142.860000,62.060000,141.870000Z" fill="url(#e0n8dpFsVlg25-fill)" stroke="none" stroke-width="1"/><path id="e0n8dpFsVlg26" d="M96.530000,15.280000C97.530000,14.790000,99.880000,14.950000,101.050000,13.630000C102.050000,12.470000,100.220000,8.840000,98.380000,8.510000C96.530000,8.010000,93.190000,10.160000,93.380000,11.650000C93.690000,13.470000,95.700000,14.290000,96.530000,15.280000Z" fill="url(#e0n8dpFsVlg26-fill)" stroke="none" stroke-width="1"/><path id="e0n8dpFsVlg27" d="M66.240000,18.090000C67.410000,18.750000,70.090000,18.750000,71.430000,20.090000C72.430000,18.430000,74.940000,17.770000,75.950000,16.780000C77.290000,15.460000,75.780000,13.640000,74.440000,12.780000C73.156866,11.955473,71.743642,11.353670,70.260000,11C68.886772,11.727329,67.643320,12.676813,66.580000,13.810000C65.570000,15.120000,64.730000,17.270000,66.240000,18.090000Z" fill="url(#e0n8dpFsVlg27-fill)" stroke="none" stroke-width="1"/><path id="e0n8dpFsVlg28" d="M92.350000,139.060000C91.180000,138.400000,88.500000,138.400000,87.160000,137.060000C86.160000,138.710000,83.650000,139.370000,82.640000,140.360000C81.300000,141.680000,82.810000,143.500000,84.150000,144.360000C85.433629,145.190381,86.846144,145.802021,88.330000,146.170000C89.705158,145.445231,90.951787,144.499280,92.020000,143.370000C93,142,93.860000,139.890000,92.350000,139.060000Z" fill="url(#e0n8dpFsVlg28-fill)" stroke="none" stroke-width="1"/><path id="e0n8dpFsVlg29" d="M50.170000,19.420000C49.340000,20.740000,49.170000,23.220000,51.010000,23.550000C52.350000,23.880000,54.860000,23.220000,56.530000,24.210000C57.030000,22.390000,59.380000,21.070000,60.050000,19.910000C61.050000,18.260000,59.210000,16.770000,57.540000,16.440000C56.060235,16.030946,54.534984,15.809213,53,15.780000C51.782794,16.753160,50.813057,18.000454,50.170000,19.420000Z" fill="url(#e0n8dpFsVlg29-fill)" stroke="none" stroke-width="1"/><path id="e0n8dpFsVlg30" d="M108.420000,137.740000C109.250000,136.410000,109.420000,133.940000,107.580000,133.610000C106.240000,133.270000,103.730000,133.940000,102.060000,132.950000C101.560000,134.760000,99.210000,136.090000,98.540000,137.240000C97.540000,138.890000,99.380000,140.380000,101.050000,140.710000C102.523296,141.117403,104.041725,141.339121,105.570000,141.370000C106.794608,140.403315,107.771530,139.159024,108.420000,137.740000Z" fill="url(#e0n8dpFsVlg30-fill)" stroke="none" stroke-width="1"/><path id="e0n8dpFsVlg31" d="M37.450000,32.640000C38.790000,32.640000,41.130000,31.310000,42.980000,31.810000C42.980000,29.810000,44.820000,28.010000,45.150000,26.690000C45.650000,24.870000,43.480000,24.040000,41.800000,23.880000C40.277439,23.820275,38.754392,23.985385,37.280000,24.370000C36.486020,25.699484,35.921468,27.153122,35.610000,28.670000C35.280000,30.320000,35.610000,32.640000,37.450000,32.640000Z" fill="url(#e0n8dpFsVlg31-fill)" stroke="none" stroke-width="1"/><path id="e0n8dpFsVlg32" d="M121.140000,124.520000C119.800000,124.520000,117.460000,125.840000,115.620000,125.340000C115.620000,127.340000,113.770000,129.140000,113.440000,130.470000C112.940000,132.280000,115.110000,133.110000,116.790000,133.270000C118.312561,133.329725,119.835608,133.164615,121.310000,132.780000C122.103980,131.450516,122.668532,129.996878,122.980000,128.480000C123.320000,126.830000,123,124.520000,121.140000,124.520000Z" fill="url(#e0n8dpFsVlg32-fill)" stroke="none" stroke-width="1"/><path id="e0n8dpFsVlg33" d="M28.920000,35.440000C27.406300,35.819493,25.942800,36.376698,24.560000,37.100000C24.085479,38.535826,23.915197,40.054743,24.060000,41.560000C24.060000,43.210000,25.060000,45.360000,26.910000,44.860000C28.250000,44.530000,30.090000,42.550000,32.100000,42.720000C31.590000,40.900000,32.930000,38.580000,32.930000,37.260000C32.770000,35.440000,30.420000,35.110000,28.920000,35.440000Z" fill="url(#e0n8dpFsVlg33-fill)" stroke="none" stroke-width="1"/><path id="e0n8dpFsVlg34" d="M129.680000,121.710000C131.187967,121.327018,132.647381,120.773447,134.030000,120.060000C134.502768,118.620343,134.672993,117.098534,134.530000,115.590000C134.530000,113.940000,133.530000,111.790000,131.680000,112.290000C130.340000,112.620000,128.500000,114.600000,126.500000,114.440000C127,116.250000,125.660000,118.570000,125.660000,119.890000C125.820000,121.710000,128.170000,122,129.680000,121.710000Z" fill="url(#e0n8dpFsVlg34-fill)" stroke="none" stroke-width="1"/><path id="e0n8dpFsVlg35" d="M23.560000,50.480000C23.060000,48.670000,20.710000,49,19.380000,49.660000C17.971919,50.336332,16.716388,51.292441,15.690000,52.470000C15.632798,53.985465,15.860053,55.498232,16.360000,56.930000C16.870000,58.420000,18.360000,60.230000,19.880000,59.410000C21.050000,58.750000,22.390000,56.410000,24.230000,55.940000C23.230000,54.450000,23.890000,51.800000,23.560000,50.480000Z" fill="url(#e0n8dpFsVlg35-fill)" stroke="none" stroke-width="1"/><path id="e0n8dpFsVlg36" d="M135,106.670000C135.500000,108.490000,137.850000,108.160000,139.180000,107.500000C140.583924,106.816897,141.838190,105.861751,142.870000,104.690000C142.931829,103.171011,142.704463,101.654108,142.200000,100.220000C141.700000,98.740000,140.200000,96.920000,138.680000,97.750000C137.510000,98.410000,136.170000,100.750000,134.330000,101.220000C135.370000,102.700000,134.700000,105.350000,135,106.670000Z" fill="url(#e0n8dpFsVlg36-fill)" stroke="none" stroke-width="1"/><path id="e0n8dpFsVlg37" d="M11,69.650000C11.339458,71.133045,11.964418,72.535810,12.840000,73.780000C13.680000,75.110000,15.680000,76.590000,16.840000,75.270000C17.670000,74.270000,18.340000,71.800000,20.180000,70.810000C18.840000,69.490000,18.840000,66.810000,18.180000,65.690000C17.370000,64,15,64.860000,13.850000,66C12.707075,67.052889,11.744329,68.285879,11,69.650000Z" fill="url(#e0n8dpFsVlg37-fill)" stroke="none" stroke-width="1"/><path id="e0n8dpFsVlg38" d="M147.580000,87.500000C147.211769,86.000435,146.650411,84.555021,145.910000,83.200000C145.070000,81.880000,143.060000,80.390000,141.910000,81.720000C141.080000,82.720000,140.410000,85.190000,138.560000,86.180000C139.900000,87.500000,139.900000,90.180000,140.560000,91.300000C141.400000,92.950000,143.740000,92.130000,144.920000,90.970000C145.987877,89.964244,146.886132,88.792461,147.580000,87.500000Z" fill="url(#e0n8dpFsVlg38-fill)" stroke="none" stroke-width="1"/><path id="e0n8dpFsVlg39" d="M18,91.470000C18.670000,90.310000,18.670000,87.670000,20,86.340000C18.320000,85.340000,17.650000,82.870000,16.650000,81.880000C15.310000,80.560000,13.470000,82.050000,12.650000,83.370000C11.811838,84.635080,11.190014,86.030806,10.810000,87.500000C11.556732,88.859586,12.519255,90.088913,13.660000,91.140000C15,92.130000,17.200000,93,18,91.470000Z" fill="url(#e0n8dpFsVlg39-fill)" stroke="none" stroke-width="1"/><path id="e0n8dpFsVlg40" d="M140.550000,65.690000C139.880000,66.840000,139.880000,69.490000,138.550000,70.810000C140.230000,71.810000,140.900000,74.280000,141.900000,75.270000C143.240000,76.590000,145.080000,75.110000,145.900000,73.780000C146.739975,72.515916,147.361939,71.119876,147.740000,69.650000C146.998319,68.289566,146.042800,67.057183,144.910000,66C143.570000,65,141.390000,64.200000,140.550000,65.690000Z" fill="url(#e0n8dpFsVlg40-fill)" stroke="none" stroke-width="1"/><path id="e0n8dpFsVlg41" d="M19.880000,97.750000C18.200000,96.750000,16.700000,98.570000,16.360000,100.220000C15.949736,101.675930,15.724628,103.177767,15.690000,104.690000C16.809794,105.763177,18.047707,106.705870,19.380000,107.500000C20.720000,108.320000,23.230000,108.500000,23.560000,106.670000C23.900000,105.350000,23.230000,102.870000,24.230000,101.220000C22.220000,100.720000,20.880000,98.410000,19.880000,97.750000Z" fill="url(#e0n8dpFsVlg41-fill)" stroke="none" stroke-width="1"/><path id="e0n8dpFsVlg42" d="M138.710000,59.410000C140.390000,60.410000,141.890000,58.580000,142.230000,56.930000C142.640059,55.477437,142.865171,53.978932,142.900000,52.470000C141.846296,51.363965,140.594707,50.465128,139.210000,49.820000C137.880000,49,135.370000,48.820000,135.030000,50.650000C134.700000,51.970000,135.370000,54.450000,134.360000,56.100000C136.370000,56.430000,137.710000,58.750000,138.710000,59.410000Z" fill="url(#e0n8dpFsVlg42-fill)" stroke="none" stroke-width="1"/><path id="e0n8dpFsVlg43" d="M28.920000,121.710000C30.420000,122.040000,32.920000,121.710000,32.770000,119.890000C32.770000,118.570000,31.430000,116.250000,31.930000,114.440000C29.930000,114.440000,28.080000,112.620000,26.740000,112.290000C24.900000,111.790000,24.060000,113.940000,23.900000,115.590000C23.837486,117.096788,24.006107,118.604264,24.400000,120.060000C25.855225,120.741821,27.367753,121.293960,28.920000,121.710000Z" fill="url(#e0n8dpFsVlg43-fill)" stroke="none" stroke-width="1"/><path id="e0n8dpFsVlg44" d="M129.670000,35.440000C128.170000,35.110000,125.670000,35.440000,125.820000,37.260000C125.820000,38.580000,127.160000,40.900000,126.660000,42.720000C128.660000,42.720000,130.510000,44.530000,131.850000,44.860000C133.690000,45.360000,134.530000,43.210000,134.700000,41.560000C134.761097,40.055926,134.589061,38.551455,134.190000,37.100000C132.737926,36.408041,131.224772,35.852325,129.670000,35.440000Z" fill="url(#e0n8dpFsVlg44-fill)" stroke="none" stroke-width="1"/><path id="e0n8dpFsVlg45" d="M45.150000,130.300000C44.820000,128.980000,42.810000,127.160000,42.980000,125.180000C41.130000,125.840000,38.790000,124.520000,37.450000,124.520000C35.610000,124.520000,35.280000,126.830000,35.610000,128.320000C35.993515,129.811506,36.554169,131.251750,37.280000,132.610000C38.736682,133.083731,40.274997,133.253899,41.800000,133.110000C43.480000,133.110000,45.650000,132.120000,45.150000,130.300000Z" fill="url(#e0n8dpFsVlg45-fill)" stroke="none" stroke-width="1"/><path id="e0n8dpFsVlg46" d="M113.440000,26.850000C113.770000,28.170000,115.780000,29.990000,115.620000,31.970000C117.460000,31.480000,119.800000,32.800000,121.140000,32.800000C122.980000,32.800000,123.320000,30.490000,122.980000,29C122.596238,27.505380,122.035613,26.061855,121.310000,24.700000C119.852442,24.230474,118.314315,24.063730,116.790000,24.210000C115.110000,24,112.940000,25,113.440000,26.850000Z" fill="url(#e0n8dpFsVlg46-fill)" stroke="none" stroke-width="1"/><path id="e0n8dpFsVlg47" d="M59.880000,137.240000C59.210000,136.090000,56.880000,134.760000,56.370000,132.950000C54.690000,133.950000,52.010000,133.270000,50.840000,133.610000C49,134.100000,49.340000,136.410000,50.010000,137.740000C50.699643,139.130742,51.666058,140.365983,52.850000,141.370000C54.384782,141.436541,55.918325,141.212617,57.370000,140.710000C59,140.380000,60.880000,138.890000,59.880000,137.240000Z" fill="url(#e0n8dpFsVlg47-fill)" stroke="none" stroke-width="1"/><path id="e0n8dpFsVlg48" d="M98.710000,19.910000C99.380000,21.070000,101.710000,22.390000,102.220000,24.210000C103.900000,23.210000,106.580000,23.880000,107.750000,23.550000C109.590000,23.050000,109.250000,20.740000,108.590000,19.420000C107.896425,18.026108,106.926802,16.787712,105.740000,15.780000C104.205218,15.713459,102.671675,15.937383,101.220000,16.440000C99.550000,16.770000,97.710000,18.260000,98.710000,19.910000Z" fill="url(#e0n8dpFsVlg48-fill)" stroke="none" stroke-width="1"/><path id="e0n8dpFsVlg49" d="M76,140.220000C75,139.390000,72.480000,138.730000,71.480000,136.910000C70.140000,138.230000,67.480000,138.230000,66.290000,138.910000C64.620000,139.740000,65.450000,142.050000,66.630000,143.210000C67.682540,144.328661,68.908201,145.270698,70.260000,146C71.755017,145.660464,73.172942,145.043091,74.440000,144.180000C76,143.520000,77.290000,141.540000,76,140.220000Z" fill="url(#e0n8dpFsVlg49-fill)" stroke="none" stroke-width="1"/><path id="e0n8dpFsVlg50" d="M82.640000,16.940000C83.640000,17.760000,86.160000,18.420000,87.160000,20.240000C88.500000,18.920000,91.160000,18.920000,92.350000,18.240000C94.020000,17.410000,93.190000,15.100000,92.020000,13.940000C90.948744,12.811406,89.702809,11.862604,88.330000,11.130000C86.824955,11.511125,85.371190,12.071815,84,12.800000C82.640000,13.630000,81.300000,15.610000,82.640000,16.940000Z" fill="url(#e0n8dpFsVlg50-fill)" stroke="none" stroke-width="1"/><path id="e0n8dpFsVlg51" d="M91.600000,7C91.720999,5.571576,90.696497,4.300863,89.274909,4.116137C87.853321,3.931410,86.538084,4.898090,86.290000,6.310000C86.226015,6.989023,86.434562,7.665633,86.869710,8.190812C87.304858,8.715990,87.930916,9.046663,88.610000,9.110000C90.016711,9.345886,91.350828,8.404419,91.600000,7Z" fill="url(#e0n8dpFsVlg51-fill)" stroke="none" stroke-width="1"/><path id="e0n8dpFsVlg52" d="M70.090000,148C69.420000,148,67.240000,148.830000,67.090000,150.150000C67.026120,150.833257,67.237075,151.513811,67.676208,152.041147C68.115342,152.568482,68.746467,152.899144,69.430000,152.960000C70.846742,153.171991,72.175487,152.219724,72.430000,150.810000C72.600000,149.470000,70.590000,148.150000,70.090000,148Z" fill="url(#e0n8dpFsVlg52-fill)" stroke="none" stroke-width="1"/><path id="e0n8dpFsVlg53" d="M70.090000,9.170000C70.760000,9.170000,72.600000,7.680000,72.430000,6.360000C72.170737,4.953285,70.845419,4.003474,69.430000,4.210000C68.738814,4.243767,68.092855,4.563648,67.647048,5.092926C67.201241,5.622203,66.995801,6.313131,67.080000,7C67.240000,8.340000,69.420000,9.170000,70.090000,9.170000Z" fill="url(#e0n8dpFsVlg53-fill)" stroke="none" stroke-width="1"/><path id="e0n8dpFsVlg54" d="M88.500000,148C87.830000,148,85.990000,149.490000,86.160000,150.810000C86.419263,152.216715,87.744581,153.166526,89.160000,152.960000C89.843533,152.899144,90.474658,152.568482,90.913792,152.041147C91.352925,151.513811,91.563880,150.833257,91.500000,150.150000C91.350000,148.810000,89.170000,148,88.500000,148Z" fill="url(#e0n8dpFsVlg54-fill)" stroke="none" stroke-width="1"/><path id="e0n8dpFsVlg55" d="M52.180000,13.800000C52.680000,13.630000,54.180000,11.800000,53.690000,10.490000C53.099610,9.209666,51.604633,8.622643,50.300820,9.159191C48.997006,9.695740,48.348223,11.164969,48.830000,12.490000C49.340000,13.800000,51.510000,14.130000,52.180000,13.800000Z" fill="url(#e0n8dpFsVlg55-fill)" stroke="none" stroke-width="1"/><path id="e0n8dpFsVlg56" d="M106.410000,143.360000C105.910000,143.520000,104.410000,145.360000,104.900000,146.660000C105.490390,147.940334,106.985367,148.527357,108.289180,147.990809C109.592994,147.454260,110.241777,145.985031,109.760000,144.660000C109.420000,143.360000,107.080000,143,106.410000,143.360000Z" fill="url(#e0n8dpFsVlg56-fill)" stroke="none" stroke-width="1"/><path id="e0n8dpFsVlg57" d="M36.110000,23.050000C36.620000,22.720000,37.620000,20.570000,36.620000,19.420000C36.194222,18.858235,35.551851,18.501394,34.849937,18.436719C34.148022,18.372043,33.451261,18.605496,32.930000,19.080000C32.347213,19.471115,31.959240,20.092541,31.863727,20.787875C31.768214,21.483208,31.974258,22.186230,32.430000,22.720000C33.270000,23.710000,35.610000,23.380000,36.110000,23.050000Z" fill="url(#e0n8dpFsVlg57-fill)" stroke="none" stroke-width="1"/><path id="e0n8dpFsVlg58" d="M122.480000,134.100000C121.980000,134.430000,120.970000,136.580000,121.980000,137.740000C122.409039,138.294514,123.049694,138.645223,123.748006,138.707843C124.446317,138.770463,125.139149,138.539334,125.660000,138.070000C126.242787,137.678885,126.630760,137.057459,126.726273,136.362125C126.821786,135.666792,126.615742,134.963770,126.160000,134.430000C125.320000,133.440000,123,133.770000,122.480000,134.100000Z" fill="url(#e0n8dpFsVlg58-fill)" stroke="none" stroke-width="1"/><path id="e0n8dpFsVlg59" d="M19.380000,36.440000C20.550000,37.260000,22.560000,36.440000,23.060000,35.940000C23.390000,35.440000,23.730000,33.130000,22.720000,32.310000C21.553401,31.433291,19.899786,31.651106,19,32.800000C18.525796,33.315212,18.295791,34.009322,18.368497,34.705761C18.441202,35.402200,18.809608,36.033839,19.380000,36.440000Z" fill="url(#e0n8dpFsVlg59-fill)" stroke="none" stroke-width="1"/><path id="e0n8dpFsVlg60" d="M139.210000,120.720000C138.040000,119.890000,136.040000,120.720000,135.530000,121.210000C135.200000,121.710000,134.860000,124.020000,135.870000,124.850000C137.033398,125.692669,138.653613,125.472532,139.550000,124.350000C140.031201,123.843356,140.269925,123.153448,140.204764,122.457749C140.139602,121.762051,139.776914,121.128473,139.210000,120.720000Z" fill="url(#e0n8dpFsVlg60-fill)" stroke="none" stroke-width="1"/><path id="e0n8dpFsVlg61" d="M10.340000,53.290000C11.660107,53.558129,13.005058,52.959927,13.690000,51.800000C13.850000,51.310000,13.690000,49,12.350000,48.500000C11.010965,47.997756,9.517123,48.666641,9,50C8.587758,51.276587,9.153137,52.664720,10.340000,53.290000Z" fill="url(#e0n8dpFsVlg61-fill)" stroke="none" stroke-width="1"/><path id="e0n8dpFsVlg62" d="M148.250000,103.860000C146.932811,103.593328,145.591497,104.191698,144.910000,105.350000C144.740000,105.840000,144.910000,108.160000,146.240000,108.650000C147.538895,109.103547,148.966279,108.466698,149.496375,107.197119C150.026470,105.927539,149.475757,104.464763,148.240000,103.860000Z" fill="url(#e0n8dpFsVlg62-fill)" stroke="none" stroke-width="1"/><path id="e0n8dpFsVlg63" d="M4,68.830000C3.777664,70.256016,4.746050,71.594798,6.170000,71.830000C7.490000,72,9,70.150000,9,69.490000C9,68.830000,8.160000,66.680000,6.820000,66.490000C6.131140,66.403001,5.437015,66.605238,4.902684,67.048619C4.368352,67.492001,4.041555,68.136912,4,68.830000Z" fill="url(#e0n8dpFsVlg63-fill)" stroke="none" stroke-width="1"/><path id="e0n8dpFsVlg64" d="M154.610000,88.330000C154.826658,86.905354,153.860872,85.570166,152.440000,85.330000C151.100000,85.170000,149.590000,86.980000,149.590000,87.650000C149.590000,88.320000,150.430000,90.450000,151.770000,90.650000C152.459332,90.746012,153.157485,90.550321,153.696487,90.110010C154.235489,89.669699,154.566543,89.024628,154.610000,88.330000Z" fill="url(#e0n8dpFsVlg64-fill)" stroke="none" stroke-width="1"/><path id="e0n8dpFsVlg65" d="M6.150000,85.520000C4.722939,85.750164,3.751905,87.092607,3.980000,88.520000C4.066719,89.183922,4.416135,89.785313,4.949975,90.189452C5.483814,90.593591,6.157458,90.766700,6.820000,90.670000C8.160000,90.500000,9,88.360000,9,87.670000C9,86.980000,7.490000,85.190000,6.150000,85.520000Z" fill="url(#e0n8dpFsVlg65-fill)" stroke="none" stroke-width="1"/><path id="e0n8dpFsVlg66" d="M152.460000,71.800000C153.540201,71.713266,154.458750,70.977572,154.779310,69.942392C155.099870,68.907211,154.757841,67.781159,153.915696,67.099140C153.073551,66.417121,151.901004,66.316580,150.955044,66.845275C150.009085,67.373971,149.480349,68.425358,149.620000,69.500000C149.782442,70.912095,151.044977,71.934571,152.460000,71.800000Z" fill="url(#e0n8dpFsVlg66-fill)" stroke="none" stroke-width="1"/><path id="e0n8dpFsVlg67" d="M12.350000,108.820000C13.690000,108.320000,13.850000,106.010000,13.690000,105.510000C13.530000,105.010000,11.690000,103.510000,10.340000,104.030000C9.715830,104.279191,9.220153,104.771966,8.967301,105.394662C8.714449,106.017357,8.726256,106.716202,9,107.330000C9.574393,108.607196,11.016838,109.248762,12.350000,108.820000Z" fill="url(#e0n8dpFsVlg67-fill)" stroke="none" stroke-width="1"/><path id="e0n8dpFsVlg68" d="M146.240000,48.330000C144.910000,48.830000,144.740000,51.140000,144.910000,51.640000C145.080000,52.140000,146.910000,53.640000,148.250000,53.130000C148.872997,52.876418,149.366903,52.381578,149.619307,51.758103C149.871710,51.134628,149.861140,50.435559,149.590000,49.820000C149.015607,48.542804,147.573162,47.901238,146.240000,48.330000Z" fill="url(#e0n8dpFsVlg68-fill)" stroke="none" stroke-width="1"/><path id="e0n8dpFsVlg69" d="M23.060000,121.210000C22.720000,120.720000,20.550000,119.720000,19.380000,120.720000C18.813086,121.128473,18.450398,121.762051,18.385236,122.457749C18.320075,123.153448,18.558799,123.843356,19.040000,124.350000C19.442897,124.929750,20.070515,125.313903,20.770088,125.408953C21.469660,125.504004,22.177023,125.301234,22.720000,124.850000C23.900000,123.860000,23.390000,121.710000,23.060000,121.210000Z" fill="url(#e0n8dpFsVlg69-fill)" stroke="none" stroke-width="1"/><path id="e0n8dpFsVlg70" d="M135.530000,35.940000C135.870000,36.440000,138.040000,37.430000,139.210000,36.440000C139.774598,36.027578,140.135143,35.392766,140.200169,34.696609C140.265194,34.000453,140.028451,33.309849,139.550000,32.800000C139.143289,32.225301,138.516285,31.845196,137.818640,31.750408C137.120996,31.655619,136.415305,31.854651,135.870000,32.300000C134.860000,33.130000,135.200000,35.440000,135.530000,35.940000Z" fill="url(#e0n8dpFsVlg70-fill)" stroke="none" stroke-width="1"/><path id="e0n8dpFsVlg71" d="M32.430000,134.600000C31.570829,135.741812,31.794132,137.362987,32.930000,138.230000C34.071110,139.052231,35.642897,138.911665,36.620000,137.900000C37.450000,136.750000,36.620000,134.760000,36.110000,134.270000C35.600000,133.780000,33.270000,133.440000,32.430000,134.600000Z" fill="url(#e0n8dpFsVlg71-fill)" stroke="none" stroke-width="1"/><path id="e0n8dpFsVlg72" d="M126.160000,22.560000C127.020225,21.414981,126.797104,19.790660,125.660000,18.920000C124.542976,18.014591,122.908640,18.160751,121.970000,19.250000C121.140000,20.410000,121.970000,22.390000,122.480000,22.890000C122.990000,23.390000,125.320000,23.710000,126.160000,22.560000Z" fill="url(#e0n8dpFsVlg72-fill)" stroke="none" stroke-width="1"/><path id="e0n8dpFsVlg73" d="M52.180000,143.360000C51.680000,143.190000,49.340000,143.360000,48.830000,144.680000C48.348223,146.005031,48.997006,147.474260,50.300820,148.010809C51.604633,148.547357,53.099610,147.960334,53.690000,146.680000C54.190000,145.340000,52.680000,143.520000,52.180000,143.360000Z" fill="url(#e0n8dpFsVlg73-fill)" stroke="none" stroke-width="1"/><path id="e0n8dpFsVlg74" d="M106.410000,13.800000C106.910000,13.960000,109.250000,13.800000,109.760000,12.470000C110.241777,11.144969,109.592994,9.675740,108.289180,9.139191C106.985367,8.602643,105.490390,9.189666,104.900000,10.470000C104.400000,11.810000,105.910000,13.630000,106.410000,13.800000Z" fill="url(#e0n8dpFsVlg74-fill)" stroke="none" stroke-width="1"/><path id="e0n8dpFsVlg75" d="M79.300000,3.880000C79.745419,3.890743,80.176459,3.721980,80.496176,3.411667C80.815894,3.101353,80.997446,2.675541,81,2.230000C80.932342,1.355009,80.202603,0.679518,79.325000,0.679518C78.447397,0.679518,77.717658,1.355009,77.650000,2.230000C77.655460,3.138999,78.391001,3.874540,79.300000,3.880000Z" fill="url(#e0n8dpFsVlg75-fill)" stroke="none" stroke-width="1"/><path id="e0n8dpFsVlg76" d="M79.300000,156.580000C80.214108,156.568986,80.947268,155.820972,80.939947,154.906827C80.932626,153.992682,80.187581,153.256506,79.273414,153.260134C78.359246,153.263761,77.620066,154.005825,77.620000,154.920000C77.619968,155.363747,77.797603,155.789034,78.113252,156.100925C78.428902,156.412817,78.856286,156.585346,79.300000,156.580000Z" fill="url(#e0n8dpFsVlg76-fill)" stroke="none" stroke-width="1"/><path id="e0n8dpFsVlg77" d="M59.710000,6.530000C60.140887,6.437490,60.513052,6.168138,60.735584,5.787742C60.958116,5.407346,61.010522,4.950934,60.880000,4.530000C60.731735,3.961948,60.291680,3.516144,59.725599,3.360520C59.159519,3.204895,58.553415,3.363092,58.135599,3.775520C57.717784,4.187947,57.551735,4.791948,57.700000,5.360000C57.934541,6.236163,58.832305,6.758743,59.710000,6.530000Z" fill="url(#e0n8dpFsVlg77-fill)" stroke="none" stroke-width="1"/><path id="e0n8dpFsVlg78" d="M98.880000,150.630000C98.445817,150.716779,98.069473,150.985098,97.845899,151.367276C97.622325,151.749454,97.572867,152.209001,97.710000,152.630000C97.939198,153.508133,98.836867,154.034198,99.715000,153.805000C100.593133,153.575802,101.119198,152.678133,100.890000,151.800000C100.621193,150.950639,99.751311,150.444290,98.880000,150.630000Z" fill="url(#e0n8dpFsVlg78-fill)" stroke="none" stroke-width="1"/><path id="e0n8dpFsVlg79" d="M41.470000,14C41.873570,13.790794,42.173691,13.425243,42.300318,12.988664C42.426945,12.552085,42.368997,12.082678,42.140000,11.690000C41.926208,11.283123,41.556774,10.980154,41.115915,10.850157C40.675056,10.720160,40.200346,10.774216,39.800000,11C39.019500,11.485895,38.730619,12.481888,39.130000,13.310000C39.341707,13.718961,39.711133,14.023819,40.152840,14.154065C40.594546,14.284312,41.070275,14.228667,41.470000,14Z" fill="url(#e0n8dpFsVlg79-fill)" stroke="none" stroke-width="1"/><path id="e0n8dpFsVlg80" d="M117.120000,143.190000C116.718546,143.401314,116.420341,143.766863,116.293965,144.202579C116.167589,144.638294,116.223919,145.106673,116.450000,145.500000C116.669019,145.901734,117.040733,146.198219,117.481110,146.322428C117.921487,146.446636,118.393341,146.388081,118.790000,146.160000C119.195723,145.952956,119.497809,145.587401,119.624694,145.149933C119.751578,144.712464,119.691974,144.242003,119.460000,143.850000C119.240981,143.448266,118.869267,143.151781,118.428890,143.027572C117.988513,142.903364,117.516659,142.961919,117.120000,143.190000Z" fill="url(#e0n8dpFsVlg80-fill)" stroke="none" stroke-width="1"/><path id="e0n8dpFsVlg81" d="M24.560000,26.360000C25.475471,26.354485,26.213658,25.608853,26.209987,24.693373C26.206316,23.777894,25.462172,23.038206,24.546687,23.040033C23.631201,23.041861,22.890017,23.784513,22.890000,24.700000C22.895500,25.618408,23.641576,26.360016,24.560000,26.360000Z" fill="url(#e0n8dpFsVlg81-fill)" stroke="none" stroke-width="1"/><path id="e0n8dpFsVlg82" d="M132.850000,131.290000C132.529352,131.590587,132.347428,132.010492,132.347428,132.450000C132.347428,132.889508,132.529352,133.309413,132.850000,133.610000C133.158720,133.927057,133.582469,134.105896,134.025000,134.105896C134.467531,134.105896,134.891280,133.927057,135.200000,133.610000C135.520648,133.309413,135.702572,132.889508,135.702572,132.450000C135.702572,132.010492,135.520648,131.590587,135.200000,131.290000C134.891280,130.972943,134.467531,130.794104,134.025000,130.794104C133.582469,130.794104,133.158720,130.972943,132.850000,131.290000Z" fill="url(#e0n8dpFsVlg82-fill)" stroke="none" stroke-width="1"/><path id="e0n8dpFsVlg83" d="M11.510000,41.890000C11.906659,42.118081,12.378513,42.176636,12.818890,42.052428C13.259267,41.928219,13.630981,41.631734,13.850000,41.230000C14.081974,40.837997,14.141578,40.367536,14.014694,39.930067C13.887809,39.492599,13.585723,39.127044,13.180000,38.920000C12.783341,38.691919,12.311487,38.633364,11.871110,38.757572C11.430733,38.881781,11.059019,39.178266,10.840000,39.580000C10.611003,39.972678,10.553055,40.442085,10.679682,40.878664C10.806309,41.315243,11.106430,41.680794,11.510000,41.890000Z" fill="url(#e0n8dpFsVlg83-fill)" stroke="none" stroke-width="1"/><path id="e0n8dpFsVlg84" d="M147.080000,115.260000C146.682723,115.034705,146.211830,114.977695,145.772267,115.101674C145.332704,115.225654,144.961002,115.520319,144.740000,115.920000C144.510623,116.314203,144.452450,116.785069,144.578992,117.223244C144.705534,117.661419,145.005779,118.028775,145.410000,118.240000C145.807277,118.465295,146.278170,118.522305,146.717733,118.398326C147.157296,118.274346,147.528998,117.979681,147.750000,117.580000C147.979377,117.185797,148.037550,116.714931,147.911008,116.276756C147.784466,115.838581,147.484221,115.471225,147.080000,115.260000Z" fill="url(#e0n8dpFsVlg84-fill)" stroke="none" stroke-width="1"/><path id="e0n8dpFsVlg85" d="M4.150000,60.560000C5.017087,60.794721,5.910279,60.282087,6.145000,59.415000C6.379721,58.547913,5.867087,57.654721,5,57.420000C4.134896,57.239012,3.272476,57.739216,3,58.580000C2.860037,59.430174,3.342183,60.260304,4.150000,60.560000Z" fill="url(#e0n8dpFsVlg85-fill)" stroke="none" stroke-width="1"/><path id="e0n8dpFsVlg86" d="M154.450000,96.590000C153.583329,96.399114,152.714663,96.902940,152.450000,97.750000C152.249679,98.621181,152.762433,99.497684,153.620000,99.750000C154.485104,99.930988,155.347524,99.430784,155.620000,98.590000C156,97.750000,155.280000,96.920000,154.450000,96.590000Z" fill="url(#e0n8dpFsVlg86-fill)" stroke="none" stroke-width="1"/><path id="e0n8dpFsVlg87" d="M2,80.230000C2.912558,80.207989,3.636123,79.453300,3.619704,78.540624C3.603285,77.627949,2.853043,76.899773,1.940285,76.910599C1.027526,76.921426,0.294766,77.667192,0.300000,78.580000C0.302554,79.025541,0.484106,79.451353,0.803824,79.761667C1.123541,80.071980,1.554581,80.240743,2,80.230000Z" fill="url(#e0n8dpFsVlg87-fill)" stroke="none" stroke-width="1"/><path id="e0n8dpFsVlg88" d="M156.620000,80.230000C157.295718,80.246276,157.913830,79.851224,158.182838,79.231148C158.451847,78.611073,158.318028,77.889810,157.844489,77.407502C157.370950,76.925194,156.652264,76.778164,156.027357,77.035751C155.402450,77.293338,154.996124,77.904097,155,78.580000C155.005147,79.477508,155.722738,80.208388,156.620000,80.230000Z" fill="url(#e0n8dpFsVlg88-fill)" stroke="none" stroke-width="1"/><path id="e0n8dpFsVlg89" d="M4.140000,96.750000C3.551482,96.878895,3.082053,97.321904,2.919320,97.901977C2.756587,98.482051,2.927090,99.104585,3.362687,99.520785C3.798285,99.936985,4.427936,100.078971,5,99.890000C5.434183,99.803221,5.810527,99.534902,6.034101,99.152724C6.257675,98.770546,6.307133,98.310999,6.170000,97.890000C6.055852,97.467160,5.776342,97.108046,5.394461,96.893591C5.012581,96.679136,4.560463,96.627384,4.140000,96.750000Z" fill="url(#e0n8dpFsVlg89-fill)" stroke="none" stroke-width="1"/><path id="e0n8dpFsVlg90" d="M154.450000,60.400000C154.879279,60.304734,155.249439,60.034885,155.471474,59.655337C155.693509,59.275790,155.747332,58.820883,155.620000,58.400000C155.519759,57.974145,155.248477,57.608410,154.870031,57.388912C154.491586,57.169413,154.039419,57.115548,153.620000,57.240000C153.187479,57.329682,152.813253,57.598524,152.590208,57.979797C152.367164,58.361069,152.316212,58.819027,152.450000,59.240000C152.718611,60.083897,153.584114,60.585888,154.450000,60.400000Z" fill="url(#e0n8dpFsVlg90-fill)" stroke="none" stroke-width="1"/><path id="e0n8dpFsVlg91" d="M11.510000,115.430000C11.106430,115.639206,10.806309,116.004757,10.679682,116.441336C10.553055,116.877915,10.611003,117.347322,10.840000,117.740000C11.348368,118.509892,12.344261,118.790785,13.180000,118.400000C13.960500,117.914105,14.249381,116.918112,13.850000,116.090000C13.659245,115.660529,13.287217,115.338256,12.834934,115.210689C12.382651,115.083122,11.897055,115.163501,11.510000,115.430000Z" fill="url(#e0n8dpFsVlg91-fill)" stroke="none" stroke-width="1"/><path id="e0n8dpFsVlg92" d="M147.080000,41.720000C147.485723,41.512956,147.787809,41.147401,147.914694,40.709933C148.041578,40.272464,147.981974,39.802003,147.750000,39.410000C147.530981,39.008266,147.159267,38.711781,146.718890,38.587572C146.278513,38.463364,145.806659,38.521919,145.410000,38.750000C145.006430,38.959206,144.706309,39.324757,144.579682,39.761336C144.453055,40.197915,144.511003,40.667322,144.740000,41.060000C144.930755,41.489471,145.302783,41.811744,145.755066,41.939311C146.207349,42.066878,146.692945,41.986499,147.080000,41.720000Z" fill="url(#e0n8dpFsVlg92-fill)" stroke="none" stroke-width="1"/><path id="e0n8dpFsVlg93" d="M24.730000,134.270000C25.645471,134.264485,26.383658,133.518853,26.379987,132.603373C26.376316,131.687894,25.632172,130.948206,24.716687,130.950033C23.801201,130.951861,23.060017,131.694513,23.060000,132.610000C23.065500,133.528408,23.811576,134.270016,24.730000,134.270000Z" fill="url(#e0n8dpFsVlg93-fill)" stroke="none" stroke-width="1"/><path id="e0n8dpFsVlg94" d="M135.200000,25.690000C135.520120,25.391184,135.701865,24.972913,135.701865,24.535000C135.701865,24.097087,135.520120,23.678816,135.200000,23.380000C134.891280,23.062943,134.467531,22.884104,134.025000,22.884104C133.582469,22.884104,133.158720,23.062943,132.850000,23.380000C132.529880,23.678816,132.348135,24.097087,132.348135,24.535000C132.348135,24.972913,132.529880,25.391184,132.850000,25.690000C133.155876,26.012264,133.580687,26.194753,134.025000,26.194753C134.469313,26.194753,134.894124,26.012264,135.200000,25.690000Z" fill="url(#e0n8dpFsVlg94-fill)" stroke="none" stroke-width="1"/><path id="e0n8dpFsVlg95" d="M41.470000,143.190000C41.073341,142.961919,40.601487,142.903364,40.161110,143.027572C39.720733,143.151781,39.349019,143.448266,39.130000,143.850000C38.898026,144.242003,38.838422,144.712464,38.965306,145.149933C39.092191,145.587401,39.394277,145.952956,39.800000,146.160000C40.196659,146.388081,40.668513,146.446636,41.108890,146.322428C41.549267,146.198219,41.920981,145.901734,42.140000,145.500000C42.368997,145.107322,42.426945,144.637915,42.300318,144.201336C42.173691,143.764757,41.873570,143.399206,41.470000,143.190000Z" fill="url(#e0n8dpFsVlg95-fill)" stroke="none" stroke-width="1"/><path id="e0n8dpFsVlg96" d="M117.120000,14C117.516018,14.230924,117.988857,14.291059,118.430071,14.166614C118.871284,14.042169,119.243013,13.743822,119.460000,13.340000C119.691974,12.947997,119.751578,12.477536,119.624694,12.040067C119.497809,11.602599,119.195723,11.237044,118.790000,11.030000C118.393341,10.801919,117.921487,10.743364,117.481110,10.867572C117.040733,10.991781,116.669019,11.288266,116.450000,11.690000C116.221003,12.082678,116.163055,12.552085,116.289682,12.988664C116.416309,13.425243,116.716430,13.790794,117.120000,14Z" fill="url(#e0n8dpFsVlg96-fill)" stroke="none" stroke-width="1"/><path id="e0n8dpFsVlg97" d="M59.710000,150.790000C58.844896,150.609012,57.982476,151.109216,57.710000,151.950000C57.483563,152.828133,58.011867,153.723563,58.890000,153.950000C59.768133,154.176437,60.663563,153.648133,60.890000,152.770000C61.053907,152.350317,61.014865,151.878467,60.784208,151.491432C60.553550,151.104397,60.157118,150.845536,59.710000,150.790000Z" fill="url(#e0n8dpFsVlg97-fill)" stroke="none" stroke-width="1"/><path id="e0n8dpFsVlg98" d="M98.880000,6.530000C99.744324,6.706184,100.603741,6.207722,100.880000,5.370000C101.109198,4.491867,100.583133,3.594198,99.705000,3.365000C98.826867,3.135802,97.929198,3.661867,97.700000,4.540000C97.370000,5.370000,97.870000,6.190000,98.880000,6.530000Z" fill="url(#e0n8dpFsVlg98-fill)" stroke="none" stroke-width="1"/><path id="e0n8dpFsVlg99" d="M132.350000,109C131.010000,107.680000,133.690000,103.220000,131.010000,99.910000C135.370000,99.420000,136.700000,94.300000,138.540000,94.460000C136.870000,93.630000,138.210000,88.680000,134.860000,86.030000C139.050000,84.550000,139.050000,79.090000,140.860000,78.760000C139.020000,78.430000,139.020000,73.310000,135.170000,71.660000C138.510000,69.180000,137.170000,64.050000,138.850000,63.230000C137.010000,63.230000,135.670000,58.230000,131.320000,57.770000C133.830000,54.470000,131.150000,50.010000,132.490000,48.850000C130.650000,49.350000,127.970000,44.720000,123.620000,45.550000C125.130000,41.740000,121.440000,37.940000,122.450000,36.460000C120.940000,37.460000,117.090000,33.650000,113.080000,35.460000C113.740000,31.330000,109.080000,28.690000,109.560000,26.870000C108.220000,28.190000,103.700000,25.550000,100.350000,28.190000C99.850000,23.900000,94.660000,22.570000,94.830000,20.760000C93.990000,22.410000,88.970000,21.090000,86.300000,24.390000C84.790000,20.260000,79.300000,20.260000,78.930000,18.440000C78.600000,20.260000,73.410000,20.260000,71.730000,24.060000C69.220000,20.760000,64.030000,22.060000,63.200000,20.430000C63.200000,22.240000,58.200000,23.570000,57.670000,27.860000C54.330000,25.380000,49.810000,28.030000,48.670000,26.710000C49.170000,28.520000,44.480000,31.170000,45.320000,35.460000C41.470000,33.980000,37.620000,37.610000,36.110000,36.620000C37.110000,38.110000,33.270000,41.910000,35.110000,45.880000C30.920000,45.210000,28.250000,49.880000,26.410000,49.350000C27.740000,50.670000,25.070000,55.130000,27.740000,58.440000C23.390000,58.930000,22.050000,64.050000,20.210000,63.890000C21.890000,64.710000,20.550000,69.670000,23.900000,72.320000C19.710000,73.800000,19.710000,79.260000,17.900000,79.590000C19.740000,79.920000,19.740000,85.040000,23.590000,86.690000C20.240000,89.170000,21.590000,94.300000,19.910000,95.120000C21.750000,95.120000,23.090000,100.120000,27.440000,100.580000C24.930000,103.880000,27.610000,108.340000,26.270000,109.500000C28.110000,109,30.790000,113.630000,35.140000,112.800000C33.630000,116.600000,37.310000,120.410000,36.310000,121.890000C37.820000,120.890000,41.670000,124.700000,45.680000,122.890000C45.010000,127.030000,49.680000,129.670000,49.200000,131.490000C50.540000,130.160000,55.060000,132.810000,58.400000,130.160000C58.910000,134.460000,64.090000,135.780000,63.930000,137.600000C64.760000,135.950000,69.790000,137.270000,72.460000,133.970000C73.970000,138.100000,79.460000,138.100000,79.830000,139.910000C80.160000,138.100000,85.350000,138.100000,87.020000,134.300000C89.540000,137.600000,94.720000,136.300000,95.560000,137.930000C95.560000,136.120000,100.560000,134.790000,101.080000,130.500000C104.430000,132.980000,108.950000,130.330000,110.080000,131.650000C109.580000,129.830000,114.270000,127.190000,113.430000,122.890000C117.280000,124.380000,121.130000,120.750000,122.630000,121.740000C121.630000,120.250000,125.480000,116.450000,123.630000,112.480000C127.830000,113,130.510000,108.320000,132.350000,109Z" fill="url(#e0n8dpFsVlg99-fill)" stroke="none" stroke-width="1"/></g><g id="e0n8dpFsVlg100_to" transform="translate(106.126770,58.503643)"><g id="e0n8dpFsVlg100_tr" transform="rotate(0)"><g id="e0n8dpFsVlg100" transform="translate(-106.126770,-58.503643)"><path id="e0n8dpFsVlg101" d="M117.130000,62.420000C113,57.870000,110.420000,53,109.700000,47.510000C109.314302,44.104709,106.727156,41.362741,103.350000,40.780000C102.816334,40.632823,102.263180,40.568738,101.710000,40.590000C100.273398,40.613717,98.855874,40.923056,97.540000,41.500000C85.750000,47.320000,98.810000,76.420000,111,76.420000C112.129459,76.441365,113.247513,76.191003,114.260000,75.690000C116.832376,74.495438,118.660993,72.121968,119.160000,69.330000C119.715567,66.830870,118.949004,64.221535,117.130000,62.420000ZM111.870000,70.780000C111.596136,70.932941,111.282314,70.999193,110.970000,70.970000C107.340000,70.970000,100.970000,63.330000,98.970000,54.780000C98.250000,51.320000,98.250000,47.510000,99.880000,46.600000C100.408229,46.226264,101.043140,46.033335,101.690000,46.050000L102.420000,46.050000C103.422380,46.201031,104.179446,47.037567,104.230000,48.050000C105.140000,54.420000,108.040000,60.420000,113.120000,66.050000C113.684869,66.626206,113.953970,67.429825,113.850000,68.230000C113.577568,69.320427,112.858946,70.245925,111.870000,70.780000Z" fill="rgb(255,255,255)" stroke="none" stroke-width="1"/></g></g></g><g id="e0n8dpFsVlg102_to" transform="translate(86.616695,107.409954)"><g id="e0n8dpFsVlg102_tr" transform="rotate(0)"><g id="e0n8dpFsVlg102" transform="translate(-86.616695,-107.409954)"><path id="e0n8dpFsVlg103" d="M94.760000,97.940000C88.890000,99.850000,83.370000,100.120000,78.110000,98.520000C74.847733,97.456507,71.275420,98.679902,69.350000,101.520000C68.996568,101.942175,68.712981,102.418195,68.510000,102.930000C67.926798,104.243834,67.617177,105.662645,67.600000,107.100000C68,120.240000,99.890000,120.440000,104.940000,109.390000C105.428391,108.370931,105.665020,107.249514,105.630000,106.120000C105.613874,103.283099,104.214000,100.632672,101.880000,99.020000C99.849073,97.462451,97.161460,97.054779,94.760000,97.940000ZM100.190000,106.200000C100.206056,106.513781,100.133269,106.825728,99.980000,107.100000C98.470000,110.400000,88.880000,113.010000,80.280000,111.270000C76.840000,110.500000,73.360000,108.910000,73.210000,107.050000C73.098666,106.411550,73.189566,105.754269,73.470000,105.170000L73.770000,104.510000C74.322357,103.659884,75.397353,103.316890,76.340000,103.690000C82.510000,105.510000,89.180000,105.360000,96.410000,103.080000C97.172039,102.814286,98.013244,102.906120,98.700000,103.330000C99.578465,104.034320,100.119405,105.076263,100.190000,106.200000Z" fill="rgb(255,255,255)" stroke="none" stroke-width="1"/></g></g></g><g id="e0n8dpFsVlg104_to" transform="translate(49.832678,82.717190)"><g id="e0n8dpFsVlg104_tr" transform="rotate(0)"><g id="e0n8dpFsVlg104" transform="translate(-49.832678,-82.717190)"><path id="e0n8dpFsVlg105" d="M42,73.470000C43,79.550000,42.530000,85.060000,40.180000,90.040000C38.664979,93.111287,39.357422,96.813820,41.880000,99.130000C42.254224,99.521372,42.681766,99.858020,43.150000,100.130000C44.371754,100.886149,45.731295,101.392578,47.150000,101.620000C60.180000,103.150000,65,71.620000,54.730000,65C53.790392,64.369290,52.713979,63.971634,51.590000,63.840000C48.763989,63.455600,45.928815,64.479102,44,66.580000C42.198561,68.383302,41.444100,70.982420,42,73.470000ZM51,69.280000C51.311615,69.315587,51.608294,69.432879,51.860000,69.620000C54.860000,71.620000,56.110000,81.450000,53.160000,89.710000C51.900000,93.010000,49.830000,96.220000,47.970000,96.100000C47.323707,96.122683,46.686756,95.940697,46.150000,95.580000L45.540000,95.190000C44.736369,94.548693,44.508741,93.423195,45,92.520000C47.680000,86.680000,48.490000,80.060000,47.270000,72.520000C47.109074,71.731734,47.319229,70.913236,47.840000,70.300000C48.676492,69.540193,49.795344,69.169664,50.920000,69.280000Z" fill="rgb(255,255,255)" stroke="none" stroke-width="1"/></g></g></g><g id="e0n8dpFsVlg106_to" transform="translate(106.872894,86.563553)"><g id="e0n8dpFsVlg106_tr" transform="rotate(0)"><g id="e0n8dpFsVlg106" transform="translate(-96.872894,-86.563553)"><path id="e0n8dpFsVlg107" d="M107.720000,87C109.556347,87.709686,110.469686,89.773653,109.760000,91.610000C109.050314,93.446347,106.986347,94.359686,105.150000,93.650000L86,86.180000C84.251824,85.410709,83.418801,83.401753,84.109635,81.621114C84.800469,79.840475,86.770417,78.918988,88.580000,79.530000L107.720000,87M109.530000,82.340000L90.410000,74.870000C86.000375,73.176230,81.050562,75.360759,79.330000,79.760000L79.330000,79.760000C77.629238,84.166975,79.810600,89.119739,84.210000,90.840000L103.340000,98.260000C107.749479,99.947872,112.695179,97.765158,114.420000,93.370000L114.420000,93.370000C116.113770,88.960375,113.929241,84.010562,109.530000,82.290000Z" fill="rgb(255,255,255)" stroke="none" stroke-width="1"/></g></g></g><g id="e0n8dpFsVlg108_to" transform="translate(74.554995,71.885008)"><g id="e0n8dpFsVlg108_tr" transform="rotate(0)"><g id="e0n8dpFsVlg108" transform="translate(-74.554995,-71.885008)"><path id="e0n8dpFsVlg109" d="M83.740000,66.070000C84.986307,65.756042,86.305078,66.138229,87.190383,67.069939C88.075688,68.001650,88.390059,69.338210,88.012892,70.566866C87.635725,71.795522,86.625585,72.725490,85.370000,73L65.370000,77.700000C63.470615,78.115265,61.589361,76.929853,61.144203,75.037251C60.699046,73.144648,61.854651,71.244940,63.740000,70.770000L83.740000,66.070000M82.590000,61.200000L62.590000,65.900000C57.995925,66.998017,55.150310,71.599247,56.220000,76.200000L56.220000,76.200000C57.318017,80.794075,61.919247,83.639690,66.520000,82.570000L86.520000,77.870000C91.114075,76.771983,93.959690,72.170753,92.890000,67.570000L92.890000,67.570000C91.791983,62.975925,87.190753,60.130310,82.590000,61.200000Z" fill="rgb(255,255,255)" stroke="none" stroke-width="1"/></g></g></g></svg>