<svg id="eLwcIWnFAEl1" xmlns="http://www.w3.org/2000/svg" xmlns:xlink="http://www.w3.org/1999/xlink" viewBox="0 0 159 157" shape-rendering="geometricPrecision" text-rendering="geometricPrecision"><style><![CDATA[#eLwcIWnFAEl105_to {animation: eLwcIWnFAEl105_to__to 5000ms linear infinite normal forwards}@keyframes eLwcIWnFAEl105_to__to { 0% {transform: translate(107.143932px,64.236633px)} 50% {transform: translate(107.143932px,142.329117px)} 100% {transform: translate(107.143932px,142.329117px)}}]]></style><defs><linearGradient id="eLwcIWnFAEl5-fill" x1="59.280000" y1="-20.780000" x2="171.280000" y2="149.670000" spreadMethod="pad" gradientUnits="userSpaceOnUse"><stop id="eLwcIWnFAEl5-fill-0" offset="0%" stop-color="rgb(237,207,49)"/><stop id="eLwcIWnFAEl5-fill-1" offset="100%" stop-color="rgb(206,14,45)"/></linearGradient><linearGradient id="eLwcIWnFAEl6-fill" x1="-3.930000" y1="20.760000" x2="108.070000" y2="191.210000" spreadMethod="pad" gradientUnits="userSpaceOnUse"><stop id="eLwcIWnFAEl6-fill-0" offset="0%" stop-color="rgb(237,207,49)"/><stop id="eLwcIWnFAEl6-fill-1" offset="100%" stop-color="rgb(206,14,45)"/></linearGradient><linearGradient id="eLwcIWnFAEl7-fill" x1="45.420000" y1="-11.670000" x2="157.420000" y2="158.780000" spreadMethod="pad" gradientUnits="userSpaceOnUse"><stop id="eLwcIWnFAEl7-fill-0" offset="0%" stop-color="rgb(237,207,49)"/><stop id="eLwcIWnFAEl7-fill-1" offset="100%" stop-color="rgb(206,14,45)"/></linearGradient><linearGradient id="eLwcIWnFAEl8-fill" x1="9.890000" y1="11.680000" x2="121.890000" y2="182.130000" spreadMethod="pad" gradientUnits="userSpaceOnUse"><stop id="eLwcIWnFAEl8-fill-0" offset="0%" stop-color="rgb(237,207,49)"/><stop id="eLwcIWnFAEl8-fill-1" offset="100%" stop-color="rgb(206,14,45)"/></linearGradient><linearGradient id="eLwcIWnFAEl9-fill" x1="30.660000" y1="-1.970000" x2="142.660000" y2="168.480000" spreadMethod="pad" gradientUnits="userSpaceOnUse"><stop id="eLwcIWnFAEl9-fill-0" offset="0%" stop-color="rgb(237,207,49)"/><stop id="eLwcIWnFAEl9-fill-1" offset="100%" stop-color="rgb(206,14,45)"/></linearGradient><linearGradient id="eLwcIWnFAEl10-fill" x1="24.660000" y1="1.970000" x2="136.660000" y2="172.420000" spreadMethod="pad" gradientUnits="userSpaceOnUse"><stop id="eLwcIWnFAEl10-fill-0" offset="0%" stop-color="rgb(237,207,49)"/><stop id="eLwcIWnFAEl10-fill-1" offset="100%" stop-color="rgb(206,14,45)"/></linearGradient><linearGradient id="eLwcIWnFAEl11-fill" x1="15.610000" y1="7.920000" x2="127.610000" y2="178.360000" spreadMethod="pad" gradientUnits="userSpaceOnUse"><stop id="eLwcIWnFAEl11-fill-0" offset="0%" stop-color="rgb(237,207,49)"/><stop id="eLwcIWnFAEl11-fill-1" offset="100%" stop-color="rgb(206,14,45)"/></linearGradient><linearGradient id="eLwcIWnFAEl12-fill" x1="39.730000" y1="-7.930000" x2="151.730000" y2="162.520000" spreadMethod="pad" gradientUnits="userSpaceOnUse"><stop id="eLwcIWnFAEl12-fill-0" offset="0%" stop-color="rgb(237,207,49)"/><stop id="eLwcIWnFAEl12-fill-1" offset="100%" stop-color="rgb(206,14,45)"/></linearGradient><linearGradient id="eLwcIWnFAEl13-fill" x1="1.270000" y1="17.340000" x2="113.270000" y2="187.790000" spreadMethod="pad" gradientUnits="userSpaceOnUse"><stop id="eLwcIWnFAEl13-fill-0" offset="0%" stop-color="rgb(237,207,49)"/><stop id="eLwcIWnFAEl13-fill-1" offset="100%" stop-color="rgb(206,14,45)"/></linearGradient><linearGradient id="eLwcIWnFAEl14-fill" x1="54.100000" y1="-17.370000" x2="166.100000" y2="153.080000" spreadMethod="pad" gradientUnits="userSpaceOnUse"><stop id="eLwcIWnFAEl14-fill-0" offset="0%" stop-color="rgb(237,207,49)"/><stop id="eLwcIWnFAEl14-fill-1" offset="100%" stop-color="rgb(206,14,45)"/></linearGradient><linearGradient id="eLwcIWnFAEl15-fill" x1="-11.280000" y1="25.590000" x2="100.720000" y2="196.030000" spreadMethod="pad" gradientUnits="userSpaceOnUse"><stop id="eLwcIWnFAEl15-fill-0" offset="0%" stop-color="rgb(237,207,49)"/><stop id="eLwcIWnFAEl15-fill-1" offset="100%" stop-color="rgb(206,14,45)"/></linearGradient><linearGradient id="eLwcIWnFAEl16-fill" x1="66.610000" y1="-25.590000" x2="178.610000" y2="144.850000" spreadMethod="pad" gradientUnits="userSpaceOnUse"><stop id="eLwcIWnFAEl16-fill-0" offset="0%" stop-color="rgb(237,207,49)"/><stop id="eLwcIWnFAEl16-fill-1" offset="100%" stop-color="rgb(206,14,45)"/></linearGradient><linearGradient id="eLwcIWnFAEl17-fill" x1="-21.260000" y1="32.150000" x2="90.740000" y2="202.590000" spreadMethod="pad" gradientUnits="userSpaceOnUse"><stop id="eLwcIWnFAEl17-fill-0" offset="0%" stop-color="rgb(237,207,49)"/><stop id="eLwcIWnFAEl17-fill-1" offset="100%" stop-color="rgb(206,14,45)"/></linearGradient><linearGradient id="eLwcIWnFAEl18-fill" x1="76.590000" y1="-32.150000" x2="188.590000" y2="138.300000" spreadMethod="pad" gradientUnits="userSpaceOnUse"><stop id="eLwcIWnFAEl18-fill-0" offset="0%" stop-color="rgb(237,207,49)"/><stop id="eLwcIWnFAEl18-fill-1" offset="100%" stop-color="rgb(206,14,45)"/></linearGradient><linearGradient id="eLwcIWnFAEl19-fill" x1="-27.810000" y1="36.450000" x2="84.200000" y2="206.890000" spreadMethod="pad" gradientUnits="userSpaceOnUse"><stop id="eLwcIWnFAEl19-fill-0" offset="0%" stop-color="rgb(237,207,49)"/><stop id="eLwcIWnFAEl19-fill-1" offset="100%" stop-color="rgb(206,14,45)"/></linearGradient><linearGradient id="eLwcIWnFAEl20-fill" x1="83.110000" y1="-36.440000" x2="195.120000" y2="134.010000" spreadMethod="pad" gradientUnits="userSpaceOnUse"><stop id="eLwcIWnFAEl20-fill-0" offset="0%" stop-color="rgb(237,207,49)"/><stop id="eLwcIWnFAEl20-fill-1" offset="100%" stop-color="rgb(206,14,45)"/></linearGradient><linearGradient id="eLwcIWnFAEl21-fill" x1="-30.440000" y1="38.180000" x2="81.560000" y2="208.630000" spreadMethod="pad" gradientUnits="userSpaceOnUse"><stop id="eLwcIWnFAEl21-fill-0" offset="0%" stop-color="rgb(237,207,49)"/><stop id="eLwcIWnFAEl21-fill-1" offset="100%" stop-color="rgb(206,14,45)"/></linearGradient><linearGradient id="eLwcIWnFAEl22-fill" x1="85.750000" y1="-38.170000" x2="197.750000" y2="132.280000" spreadMethod="pad" gradientUnits="userSpaceOnUse"><stop id="eLwcIWnFAEl22-fill-0" offset="0%" stop-color="rgb(237,207,49)"/><stop id="eLwcIWnFAEl22-fill-1" offset="100%" stop-color="rgb(206,14,45)"/></linearGradient><linearGradient id="eLwcIWnFAEl23-fill" x1="-29.220000" y1="37.380000" x2="82.780000" y2="207.830000" spreadMethod="pad" gradientUnits="userSpaceOnUse"><stop id="eLwcIWnFAEl23-fill-0" offset="0%" stop-color="rgb(237,207,49)"/><stop id="eLwcIWnFAEl23-fill-1" offset="100%" stop-color="rgb(206,14,45)"/></linearGradient><linearGradient id="eLwcIWnFAEl24-fill" x1="84.580000" y1="-37.400000" x2="196.580000" y2="133.050000" spreadMethod="pad" gradientUnits="userSpaceOnUse"><stop id="eLwcIWnFAEl24-fill-0" offset="0%" stop-color="rgb(237,207,49)"/><stop id="eLwcIWnFAEl24-fill-1" offset="100%" stop-color="rgb(206,14,45)"/></linearGradient><linearGradient id="eLwcIWnFAEl25-fill" x1="-24.370000" y1="34.190000" x2="87.630000" y2="204.640000" spreadMethod="pad" gradientUnits="userSpaceOnUse"><stop id="eLwcIWnFAEl25-fill-0" offset="0%" stop-color="rgb(237,207,49)"/><stop id="eLwcIWnFAEl25-fill-1" offset="100%" stop-color="rgb(206,14,45)"/></linearGradient><linearGradient id="eLwcIWnFAEl26-fill" x1="79.680000" y1="-34.180000" x2="191.690000" y2="136.260000" spreadMethod="pad" gradientUnits="userSpaceOnUse"><stop id="eLwcIWnFAEl26-fill-0" offset="0%" stop-color="rgb(237,207,49)"/><stop id="eLwcIWnFAEl26-fill-1" offset="100%" stop-color="rgb(206,14,45)"/></linearGradient><linearGradient id="eLwcIWnFAEl27-fill" x1="-15.600000" y1="28.420000" x2="96.400000" y2="198.870000" spreadMethod="pad" gradientUnits="userSpaceOnUse"><stop id="eLwcIWnFAEl27-fill-0" offset="0%" stop-color="rgb(237,207,49)"/><stop id="eLwcIWnFAEl27-fill-1" offset="100%" stop-color="rgb(206,14,45)"/></linearGradient><linearGradient id="eLwcIWnFAEl28-fill" x1="70.900000" y1="-28.420000" x2="182.910000" y2="142.030000" spreadMethod="pad" gradientUnits="userSpaceOnUse"><stop id="eLwcIWnFAEl28-fill-0" offset="0%" stop-color="rgb(237,207,49)"/><stop id="eLwcIWnFAEl28-fill-1" offset="100%" stop-color="rgb(206,14,45)"/></linearGradient><linearGradient id="eLwcIWnFAEl29-fill" x1="50.460000" y1="-14.980000" x2="162.460000" y2="155.470000" spreadMethod="pad" gradientUnits="userSpaceOnUse"><stop id="eLwcIWnFAEl29-fill-0" offset="0%" stop-color="rgb(237,207,49)"/><stop id="eLwcIWnFAEl29-fill-1" offset="100%" stop-color="rgb(206,14,45)"/></linearGradient><linearGradient id="eLwcIWnFAEl30-fill" x1="4.850000" y1="14.990000" x2="116.850000" y2="185.430000" spreadMethod="pad" gradientUnits="userSpaceOnUse"><stop id="eLwcIWnFAEl30-fill-0" offset="0%" stop-color="rgb(237,207,49)"/><stop id="eLwcIWnFAEl30-fill-1" offset="100%" stop-color="rgb(206,14,45)"/></linearGradient><linearGradient id="eLwcIWnFAEl31-fill" x1="37.370000" y1="-6.380000" x2="149.370000" y2="164.070000" spreadMethod="pad" gradientUnits="userSpaceOnUse"><stop id="eLwcIWnFAEl31-fill-0" offset="0%" stop-color="rgb(237,207,49)"/><stop id="eLwcIWnFAEl31-fill-1" offset="100%" stop-color="rgb(206,14,45)"/></linearGradient><linearGradient id="eLwcIWnFAEl32-fill" x1="17.980000" y1="6.360000" x2="129.980000" y2="176.810000" spreadMethod="pad" gradientUnits="userSpaceOnUse"><stop id="eLwcIWnFAEl32-fill-0" offset="0%" stop-color="rgb(237,207,49)"/><stop id="eLwcIWnFAEl32-fill-1" offset="100%" stop-color="rgb(206,14,45)"/></linearGradient><linearGradient id="eLwcIWnFAEl33-fill" x1="23.520000" y1="2.720000" x2="135.520000" y2="173.170000" spreadMethod="pad" gradientUnits="userSpaceOnUse"><stop id="eLwcIWnFAEl33-fill-0" offset="0%" stop-color="rgb(237,207,49)"/><stop id="eLwcIWnFAEl33-fill-1" offset="100%" stop-color="rgb(206,14,45)"/></linearGradient><linearGradient id="eLwcIWnFAEl34-fill" x1="31.840000" y1="-2.740000" x2="143.840000" y2="167.700000" spreadMethod="pad" gradientUnits="userSpaceOnUse"><stop id="eLwcIWnFAEl34-fill-0" offset="0%" stop-color="rgb(237,207,49)"/><stop id="eLwcIWnFAEl34-fill-1" offset="100%" stop-color="rgb(206,14,45)"/></linearGradient><linearGradient id="eLwcIWnFAEl35-fill" x1="9.880000" y1="11.680000" x2="121.880000" y2="182.130000" spreadMethod="pad" gradientUnits="userSpaceOnUse"><stop id="eLwcIWnFAEl35-fill-0" offset="0%" stop-color="rgb(237,207,49)"/><stop id="eLwcIWnFAEl35-fill-1" offset="100%" stop-color="rgb(206,14,45)"/></linearGradient><linearGradient id="eLwcIWnFAEl36-fill" x1="45.470000" y1="-11.700000" x2="157.470000" y2="158.740000" spreadMethod="pad" gradientUnits="userSpaceOnUse"><stop id="eLwcIWnFAEl36-fill-0" offset="0%" stop-color="rgb(237,207,49)"/><stop id="eLwcIWnFAEl36-fill-1" offset="100%" stop-color="rgb(206,14,45)"/></linearGradient><linearGradient id="eLwcIWnFAEl37-fill" x1="-2.390000" y1="19.740000" x2="109.610000" y2="190.190000" spreadMethod="pad" gradientUnits="userSpaceOnUse"><stop id="eLwcIWnFAEl37-fill-0" offset="0%" stop-color="rgb(237,207,49)"/><stop id="eLwcIWnFAEl37-fill-1" offset="100%" stop-color="rgb(206,14,45)"/></linearGradient><linearGradient id="eLwcIWnFAEl38-fill" x1="57.700000" y1="-19.740000" x2="169.700000" y2="150.710000" spreadMethod="pad" gradientUnits="userSpaceOnUse"><stop id="eLwcIWnFAEl38-fill-0" offset="0%" stop-color="rgb(237,207,49)"/><stop id="eLwcIWnFAEl38-fill-1" offset="100%" stop-color="rgb(206,14,45)"/></linearGradient><linearGradient id="eLwcIWnFAEl39-fill" x1="-12.870000" y1="26.630000" x2="99.130000" y2="197.080000" spreadMethod="pad" gradientUnits="userSpaceOnUse"><stop id="eLwcIWnFAEl39-fill-0" offset="0%" stop-color="rgb(237,207,49)"/><stop id="eLwcIWnFAEl39-fill-1" offset="100%" stop-color="rgb(206,14,45)"/></linearGradient><linearGradient id="eLwcIWnFAEl40-fill" x1="68.340000" y1="-26.730000" x2="180.340000" y2="143.720000" spreadMethod="pad" gradientUnits="userSpaceOnUse"><stop id="eLwcIWnFAEl40-fill-0" offset="0%" stop-color="rgb(237,207,49)"/><stop id="eLwcIWnFAEl40-fill-1" offset="100%" stop-color="rgb(206,14,45)"/></linearGradient><linearGradient id="eLwcIWnFAEl41-fill" x1="-20.800000" y1="31.850000" x2="91.200000" y2="202.290000" spreadMethod="pad" gradientUnits="userSpaceOnUse"><stop id="eLwcIWnFAEl41-fill-0" offset="0%" stop-color="rgb(237,207,49)"/><stop id="eLwcIWnFAEl41-fill-1" offset="100%" stop-color="rgb(206,14,45)"/></linearGradient><linearGradient id="eLwcIWnFAEl42-fill" x1="76.110000" y1="-31.840000" x2="188.110000" y2="138.610000" spreadMethod="pad" gradientUnits="userSpaceOnUse"><stop id="eLwcIWnFAEl42-fill-0" offset="0%" stop-color="rgb(237,207,49)"/><stop id="eLwcIWnFAEl42-fill-1" offset="100%" stop-color="rgb(206,14,45)"/></linearGradient><linearGradient id="eLwcIWnFAEl43-fill" x1="-24.940000" y1="34.560000" x2="87.060000" y2="205.010000" spreadMethod="pad" gradientUnits="userSpaceOnUse"><stop id="eLwcIWnFAEl43-fill-0" offset="0%" stop-color="rgb(237,207,49)"/><stop id="eLwcIWnFAEl43-fill-1" offset="100%" stop-color="rgb(206,14,45)"/></linearGradient><linearGradient id="eLwcIWnFAEl44-fill" x1="80.250000" y1="-34.550000" x2="192.250000" y2="135.890000" spreadMethod="pad" gradientUnits="userSpaceOnUse"><stop id="eLwcIWnFAEl44-fill-0" offset="0%" stop-color="rgb(237,207,49)"/><stop id="eLwcIWnFAEl44-fill-1" offset="100%" stop-color="rgb(206,14,45)"/></linearGradient><linearGradient id="eLwcIWnFAEl45-fill" x1="-25.810000" y1="35.130000" x2="86.190000" y2="205.580000" spreadMethod="pad" gradientUnits="userSpaceOnUse"><stop id="eLwcIWnFAEl45-fill-0" offset="0%" stop-color="rgb(237,207,49)"/><stop id="eLwcIWnFAEl45-fill-1" offset="100%" stop-color="rgb(206,14,45)"/></linearGradient><linearGradient id="eLwcIWnFAEl46-fill" x1="81.160000" y1="-35.160000" x2="193.160000" y2="135.290000" spreadMethod="pad" gradientUnits="userSpaceOnUse"><stop id="eLwcIWnFAEl46-fill-0" offset="0%" stop-color="rgb(237,207,49)"/><stop id="eLwcIWnFAEl46-fill-1" offset="100%" stop-color="rgb(206,14,45)"/></linearGradient><linearGradient id="eLwcIWnFAEl47-fill" x1="-22.740000" y1="33.120000" x2="89.260000" y2="203.560000" spreadMethod="pad" gradientUnits="userSpaceOnUse"><stop id="eLwcIWnFAEl47-fill-0" offset="0%" stop-color="rgb(237,207,49)"/><stop id="eLwcIWnFAEl47-fill-1" offset="100%" stop-color="rgb(206,14,45)"/></linearGradient><linearGradient id="eLwcIWnFAEl48-fill" x1="78.030000" y1="-33.090000" x2="190.030000" y2="137.350000" spreadMethod="pad" gradientUnits="userSpaceOnUse"><stop id="eLwcIWnFAEl48-fill-0" offset="0%" stop-color="rgb(237,207,49)"/><stop id="eLwcIWnFAEl48-fill-1" offset="100%" stop-color="rgb(206,14,45)"/></linearGradient><linearGradient id="eLwcIWnFAEl49-fill" x1="-16.370000" y1="28.930000" x2="95.630000" y2="199.380000" spreadMethod="pad" gradientUnits="userSpaceOnUse"><stop id="eLwcIWnFAEl49-fill-0" offset="0%" stop-color="rgb(237,207,49)"/><stop id="eLwcIWnFAEl49-fill-1" offset="100%" stop-color="rgb(206,14,45)"/></linearGradient><linearGradient id="eLwcIWnFAEl50-fill" x1="71.720000" y1="-28.950000" x2="183.720000" y2="141.490000" spreadMethod="pad" gradientUnits="userSpaceOnUse"><stop id="eLwcIWnFAEl50-fill-0" offset="0%" stop-color="rgb(237,207,49)"/><stop id="eLwcIWnFAEl50-fill-1" offset="100%" stop-color="rgb(206,14,45)"/></linearGradient><linearGradient id="eLwcIWnFAEl51-fill" x1="-6.960000" y1="22.750000" x2="105.040000" y2="193.200000" spreadMethod="pad" gradientUnits="userSpaceOnUse"><stop id="eLwcIWnFAEl51-fill-0" offset="0%" stop-color="rgb(237,207,49)"/><stop id="eLwcIWnFAEl51-fill-1" offset="100%" stop-color="rgb(206,14,45)"/></linearGradient><linearGradient id="eLwcIWnFAEl52-fill" x1="62.260000" y1="-22.730000" x2="174.260000" y2="147.720000" spreadMethod="pad" gradientUnits="userSpaceOnUse"><stop id="eLwcIWnFAEl52-fill-0" offset="0%" stop-color="rgb(237,207,49)"/><stop id="eLwcIWnFAEl52-fill-1" offset="100%" stop-color="rgb(206,14,45)"/></linearGradient><linearGradient id="eLwcIWnFAEl53-fill" x1="67.420000" y1="-26.120000" x2="179.420000" y2="144.330000" spreadMethod="pad" gradientUnits="userSpaceOnUse"><stop id="eLwcIWnFAEl53-fill-0" offset="0%" stop-color="rgb(237,207,49)"/><stop id="eLwcIWnFAEl53-fill-1" offset="100%" stop-color="rgb(206,14,45)"/></linearGradient><linearGradient id="eLwcIWnFAEl54-fill" x1="-12.080000" y1="26.110000" x2="99.920000" y2="196.560000" spreadMethod="pad" gradientUnits="userSpaceOnUse"><stop id="eLwcIWnFAEl54-fill-0" offset="0%" stop-color="rgb(237,207,49)"/><stop id="eLwcIWnFAEl54-fill-1" offset="100%" stop-color="rgb(206,14,45)"/></linearGradient><linearGradient id="eLwcIWnFAEl55-fill" x1="53.990000" y1="-17.300000" x2="165.990000" y2="153.150000" spreadMethod="pad" gradientUnits="userSpaceOnUse"><stop id="eLwcIWnFAEl55-fill-0" offset="0%" stop-color="rgb(237,207,49)"/><stop id="eLwcIWnFAEl55-fill-1" offset="100%" stop-color="rgb(206,14,45)"/></linearGradient><linearGradient id="eLwcIWnFAEl56-fill" x1="1.320000" y1="17.310000" x2="113.320000" y2="187.760000" spreadMethod="pad" gradientUnits="userSpaceOnUse"><stop id="eLwcIWnFAEl56-fill-0" offset="0%" stop-color="rgb(237,207,49)"/><stop id="eLwcIWnFAEl56-fill-1" offset="100%" stop-color="rgb(206,14,45)"/></linearGradient><linearGradient id="eLwcIWnFAEl57-fill" x1="38.890000" y1="-7.380000" x2="150.890000" y2="163.070000" spreadMethod="pad" gradientUnits="userSpaceOnUse"><stop id="eLwcIWnFAEl57-fill-0" offset="0%" stop-color="rgb(237,207,49)"/><stop id="eLwcIWnFAEl57-fill-1" offset="100%" stop-color="rgb(206,14,45)"/></linearGradient><linearGradient id="eLwcIWnFAEl58-fill" x1="16.430000" y1="7.380000" x2="128.430000" y2="177.830000" spreadMethod="pad" gradientUnits="userSpaceOnUse"><stop id="eLwcIWnFAEl58-fill-0" offset="0%" stop-color="rgb(237,207,49)"/><stop id="eLwcIWnFAEl58-fill-1" offset="100%" stop-color="rgb(206,14,45)"/></linearGradient><linearGradient id="eLwcIWnFAEl59-fill" x1="22.730000" y1="3.240000" x2="134.730000" y2="173.690000" spreadMethod="pad" gradientUnits="userSpaceOnUse"><stop id="eLwcIWnFAEl59-fill-0" offset="0%" stop-color="rgb(237,207,49)"/><stop id="eLwcIWnFAEl59-fill-1" offset="100%" stop-color="rgb(206,14,45)"/></linearGradient><linearGradient id="eLwcIWnFAEl60-fill" x1="32.580000" y1="-3.230000" x2="144.580000" y2="167.210000" spreadMethod="pad" gradientUnits="userSpaceOnUse"><stop id="eLwcIWnFAEl60-fill-0" offset="0%" stop-color="rgb(237,207,49)"/><stop id="eLwcIWnFAEl60-fill-1" offset="100%" stop-color="rgb(206,14,45)"/></linearGradient><linearGradient id="eLwcIWnFAEl61-fill" x1="7.260000" y1="13.410000" x2="119.260000" y2="183.850000" spreadMethod="pad" gradientUnits="userSpaceOnUse"><stop id="eLwcIWnFAEl61-fill-0" offset="0%" stop-color="rgb(237,207,49)"/><stop id="eLwcIWnFAEl61-fill-1" offset="100%" stop-color="rgb(206,14,45)"/></linearGradient><linearGradient id="eLwcIWnFAEl62-fill" x1="48.090000" y1="-13.430000" x2="160.090000" y2="157.020000" spreadMethod="pad" gradientUnits="userSpaceOnUse"><stop id="eLwcIWnFAEl62-fill-0" offset="0%" stop-color="rgb(237,207,49)"/><stop id="eLwcIWnFAEl62-fill-1" offset="100%" stop-color="rgb(206,14,45)"/></linearGradient><linearGradient id="eLwcIWnFAEl63-fill" x1="-7.120000" y1="22.850000" x2="104.880000" y2="193.300000" spreadMethod="pad" gradientUnits="userSpaceOnUse"><stop id="eLwcIWnFAEl63-fill-0" offset="0%" stop-color="rgb(237,207,49)"/><stop id="eLwcIWnFAEl63-fill-1" offset="100%" stop-color="rgb(206,14,45)"/></linearGradient><linearGradient id="eLwcIWnFAEl64-fill" x1="62.480000" y1="-22.880000" x2="174.480000" y2="147.570000" spreadMethod="pad" gradientUnits="userSpaceOnUse"><stop id="eLwcIWnFAEl64-fill-0" offset="0%" stop-color="rgb(237,207,49)"/><stop id="eLwcIWnFAEl64-fill-1" offset="100%" stop-color="rgb(206,14,45)"/></linearGradient><linearGradient id="eLwcIWnFAEl65-fill" x1="-18.950000" y1="30.630000" x2="93.050000" y2="201.070000" spreadMethod="pad" gradientUnits="userSpaceOnUse"><stop id="eLwcIWnFAEl65-fill-0" offset="0%" stop-color="rgb(237,207,49)"/><stop id="eLwcIWnFAEl65-fill-1" offset="100%" stop-color="rgb(206,14,45)"/></linearGradient><linearGradient id="eLwcIWnFAEl66-fill" x1="74.300000" y1="-30.650000" x2="186.300000" y2="139.800000" spreadMethod="pad" gradientUnits="userSpaceOnUse"><stop id="eLwcIWnFAEl66-fill-0" offset="0%" stop-color="rgb(237,207,49)"/><stop id="eLwcIWnFAEl66-fill-1" offset="100%" stop-color="rgb(206,14,45)"/></linearGradient><linearGradient id="eLwcIWnFAEl67-fill" x1="-27.580000" y1="36.300000" x2="84.420000" y2="206.740000" spreadMethod="pad" gradientUnits="userSpaceOnUse"><stop id="eLwcIWnFAEl67-fill-0" offset="0%" stop-color="rgb(237,207,49)"/><stop id="eLwcIWnFAEl67-fill-1" offset="100%" stop-color="rgb(206,14,45)"/></linearGradient><linearGradient id="eLwcIWnFAEl68-fill" x1="82.830000" y1="-36.250000" x2="194.830000" y2="134.200000" spreadMethod="pad" gradientUnits="userSpaceOnUse"><stop id="eLwcIWnFAEl68-fill-0" offset="0%" stop-color="rgb(237,207,49)"/><stop id="eLwcIWnFAEl68-fill-1" offset="100%" stop-color="rgb(206,14,45)"/></linearGradient><linearGradient id="eLwcIWnFAEl69-fill" x1="-32.600000" y1="39.600000" x2="79.400000" y2="210.050000" spreadMethod="pad" gradientUnits="userSpaceOnUse"><stop id="eLwcIWnFAEl69-fill-0" offset="0%" stop-color="rgb(237,207,49)"/><stop id="eLwcIWnFAEl69-fill-1" offset="100%" stop-color="rgb(206,14,45)"/></linearGradient><linearGradient id="eLwcIWnFAEl70-fill" x1="87.890000" y1="-39.580000" x2="199.890000" y2="130.870000" spreadMethod="pad" gradientUnits="userSpaceOnUse"><stop id="eLwcIWnFAEl70-fill-0" offset="0%" stop-color="rgb(237,207,49)"/><stop id="eLwcIWnFAEl70-fill-1" offset="100%" stop-color="rgb(206,14,45)"/></linearGradient><linearGradient id="eLwcIWnFAEl71-fill" x1="-33.270000" y1="40.040000" x2="78.730000" y2="210.480000" spreadMethod="pad" gradientUnits="userSpaceOnUse"><stop id="eLwcIWnFAEl71-fill-0" offset="0%" stop-color="rgb(237,207,49)"/><stop id="eLwcIWnFAEl71-fill-1" offset="100%" stop-color="rgb(206,14,45)"/></linearGradient><linearGradient id="eLwcIWnFAEl72-fill" x1="88.630000" y1="-40.060000" x2="200.630000" y2="130.390000" spreadMethod="pad" gradientUnits="userSpaceOnUse"><stop id="eLwcIWnFAEl72-fill-0" offset="0%" stop-color="rgb(237,207,49)"/><stop id="eLwcIWnFAEl72-fill-1" offset="100%" stop-color="rgb(206,14,45)"/></linearGradient><linearGradient id="eLwcIWnFAEl73-fill" x1="-30.140000" y1="37.980000" x2="81.860000" y2="208.430000" spreadMethod="pad" gradientUnits="userSpaceOnUse"><stop id="eLwcIWnFAEl73-fill-0" offset="0%" stop-color="rgb(237,207,49)"/><stop id="eLwcIWnFAEl73-fill-1" offset="100%" stop-color="rgb(206,14,45)"/></linearGradient><linearGradient id="eLwcIWnFAEl74-fill" x1="85.450000" y1="-37.970000" x2="197.450000" y2="132.480000" spreadMethod="pad" gradientUnits="userSpaceOnUse"><stop id="eLwcIWnFAEl74-fill-0" offset="0%" stop-color="rgb(237,207,49)"/><stop id="eLwcIWnFAEl74-fill-1" offset="100%" stop-color="rgb(206,14,45)"/></linearGradient><linearGradient id="eLwcIWnFAEl75-fill" x1="-22.770000" y1="33.140000" x2="89.230000" y2="203.580000" spreadMethod="pad" gradientUnits="userSpaceOnUse"><stop id="eLwcIWnFAEl75-fill-0" offset="0%" stop-color="rgb(237,207,49)"/><stop id="eLwcIWnFAEl75-fill-1" offset="100%" stop-color="rgb(206,14,45)"/></linearGradient><linearGradient id="eLwcIWnFAEl76-fill" x1="78.090000" y1="-33.140000" x2="190.100000" y2="137.310000" spreadMethod="pad" gradientUnits="userSpaceOnUse"><stop id="eLwcIWnFAEl76-fill-0" offset="0%" stop-color="rgb(237,207,49)"/><stop id="eLwcIWnFAEl76-fill-1" offset="100%" stop-color="rgb(206,14,45)"/></linearGradient><linearGradient id="eLwcIWnFAEl77-fill" x1="62.730000" y1="-23.040000" x2="174.730000" y2="147.410000" spreadMethod="pad" gradientUnits="userSpaceOnUse"><stop id="eLwcIWnFAEl77-fill-0" offset="0%" stop-color="rgb(237,207,49)"/><stop id="eLwcIWnFAEl77-fill-1" offset="100%" stop-color="rgb(206,14,45)"/></linearGradient><linearGradient id="eLwcIWnFAEl78-fill" x1="-7.350000" y1="23.010000" x2="104.650000" y2="193.460000" spreadMethod="pad" gradientUnits="userSpaceOnUse"><stop id="eLwcIWnFAEl78-fill-0" offset="0%" stop-color="rgb(237,207,49)"/><stop id="eLwcIWnFAEl78-fill-1" offset="100%" stop-color="rgb(206,14,45)"/></linearGradient><linearGradient id="eLwcIWnFAEl79-fill" x1="47.500000" y1="-13.030000" x2="159.500000" y2="157.410000" spreadMethod="pad" gradientUnits="userSpaceOnUse"><stop id="eLwcIWnFAEl79-fill-0" offset="0%" stop-color="rgb(237,207,49)"/><stop id="eLwcIWnFAEl79-fill-1" offset="100%" stop-color="rgb(206,14,45)"/></linearGradient><linearGradient id="eLwcIWnFAEl80-fill" x1="7.830000" y1="13.030000" x2="119.840000" y2="183.480000" spreadMethod="pad" gradientUnits="userSpaceOnUse"><stop id="eLwcIWnFAEl80-fill-0" offset="0%" stop-color="rgb(237,207,49)"/><stop id="eLwcIWnFAEl80-fill-1" offset="100%" stop-color="rgb(206,14,45)"/></linearGradient><linearGradient id="eLwcIWnFAEl81-fill" x1="31.030000" y1="-2.210000" x2="143.030000" y2="168.240000" spreadMethod="pad" gradientUnits="userSpaceOnUse"><stop id="eLwcIWnFAEl81-fill-0" offset="0%" stop-color="rgb(237,207,49)"/><stop id="eLwcIWnFAEl81-fill-1" offset="100%" stop-color="rgb(206,14,45)"/></linearGradient><linearGradient id="eLwcIWnFAEl82-fill" x1="24.290000" y1="2.220000" x2="136.290000" y2="172.660000" spreadMethod="pad" gradientUnits="userSpaceOnUse"><stop id="eLwcIWnFAEl82-fill-0" offset="0%" stop-color="rgb(237,207,49)"/><stop id="eLwcIWnFAEl82-fill-1" offset="100%" stop-color="rgb(206,14,45)"/></linearGradient><linearGradient id="eLwcIWnFAEl83-fill" x1="14.190000" y1="8.850000" x2="126.190000" y2="179.300000" spreadMethod="pad" gradientUnits="userSpaceOnUse"><stop id="eLwcIWnFAEl83-fill-0" offset="0%" stop-color="rgb(237,207,49)"/><stop id="eLwcIWnFAEl83-fill-1" offset="100%" stop-color="rgb(206,14,45)"/></linearGradient><linearGradient id="eLwcIWnFAEl84-fill" x1="41.180000" y1="-8.880000" x2="153.180000" y2="161.560000" spreadMethod="pad" gradientUnits="userSpaceOnUse"><stop id="eLwcIWnFAEl84-fill-0" offset="0%" stop-color="rgb(237,207,49)"/><stop id="eLwcIWnFAEl84-fill-1" offset="100%" stop-color="rgb(206,14,45)"/></linearGradient><linearGradient id="eLwcIWnFAEl85-fill" x1="-1.590000" y1="19.220000" x2="110.410000" y2="189.670000" spreadMethod="pad" gradientUnits="userSpaceOnUse"><stop id="eLwcIWnFAEl85-fill-0" offset="0%" stop-color="rgb(237,207,49)"/><stop id="eLwcIWnFAEl85-fill-1" offset="100%" stop-color="rgb(206,14,45)"/></linearGradient><linearGradient id="eLwcIWnFAEl86-fill" x1="56.900000" y1="-19.220000" x2="168.900000" y2="151.230000" spreadMethod="pad" gradientUnits="userSpaceOnUse"><stop id="eLwcIWnFAEl86-fill-0" offset="0%" stop-color="rgb(237,207,49)"/><stop id="eLwcIWnFAEl86-fill-1" offset="100%" stop-color="rgb(206,14,45)"/></linearGradient><linearGradient id="eLwcIWnFAEl87-fill" x1="-15.550000" y1="28.390000" x2="96.450000" y2="198.840000" spreadMethod="pad" gradientUnits="userSpaceOnUse"><stop id="eLwcIWnFAEl87-fill-0" offset="0%" stop-color="rgb(237,207,49)"/><stop id="eLwcIWnFAEl87-fill-1" offset="100%" stop-color="rgb(206,14,45)"/></linearGradient><linearGradient id="eLwcIWnFAEl88-fill" x1="70.860000" y1="-28.380000" x2="182.860000" y2="142.060000" spreadMethod="pad" gradientUnits="userSpaceOnUse"><stop id="eLwcIWnFAEl88-fill-0" offset="0%" stop-color="rgb(237,207,49)"/><stop id="eLwcIWnFAEl88-fill-1" offset="100%" stop-color="rgb(206,14,45)"/></linearGradient><linearGradient id="eLwcIWnFAEl89-fill" x1="-26.300000" y1="35.460000" x2="85.700000" y2="205.900000" spreadMethod="pad" gradientUnits="userSpaceOnUse"><stop id="eLwcIWnFAEl89-fill-0" offset="0%" stop-color="rgb(237,207,49)"/><stop id="eLwcIWnFAEl89-fill-1" offset="100%" stop-color="rgb(206,14,45)"/></linearGradient><linearGradient id="eLwcIWnFAEl90-fill" x1="81.690000" y1="-35.500000" x2="193.690000" y2="134.950000" spreadMethod="pad" gradientUnits="userSpaceOnUse"><stop id="eLwcIWnFAEl90-fill-0" offset="0%" stop-color="rgb(237,207,49)"/><stop id="eLwcIWnFAEl90-fill-1" offset="100%" stop-color="rgb(206,14,45)"/></linearGradient><linearGradient id="eLwcIWnFAEl91-fill" x1="-33.650000" y1="40.280000" x2="78.350000" y2="210.730000" spreadMethod="pad" gradientUnits="userSpaceOnUse"><stop id="eLwcIWnFAEl91-fill-0" offset="0%" stop-color="rgb(237,207,49)"/><stop id="eLwcIWnFAEl91-fill-1" offset="100%" stop-color="rgb(206,14,45)"/></linearGradient><linearGradient id="eLwcIWnFAEl92-fill" x1="88.930000" y1="-40.260000" x2="200.930000" y2="130.190000" spreadMethod="pad" gradientUnits="userSpaceOnUse"><stop id="eLwcIWnFAEl92-fill-0" offset="0%" stop-color="rgb(237,207,49)"/><stop id="eLwcIWnFAEl92-fill-1" offset="100%" stop-color="rgb(206,14,45)"/></linearGradient><linearGradient id="eLwcIWnFAEl93-fill" x1="-36.700000" y1="42.290000" x2="75.300000" y2="212.740000" spreadMethod="pad" gradientUnits="userSpaceOnUse"><stop id="eLwcIWnFAEl93-fill-0" offset="0%" stop-color="rgb(237,207,49)"/><stop id="eLwcIWnFAEl93-fill-1" offset="100%" stop-color="rgb(206,14,45)"/></linearGradient><linearGradient id="eLwcIWnFAEl94-fill" x1="92.050000" y1="-42.310000" x2="204.050000" y2="128.140000" spreadMethod="pad" gradientUnits="userSpaceOnUse"><stop id="eLwcIWnFAEl94-fill-0" offset="0%" stop-color="rgb(237,207,49)"/><stop id="eLwcIWnFAEl94-fill-1" offset="100%" stop-color="rgb(206,14,45)"/></linearGradient><linearGradient id="eLwcIWnFAEl95-fill" x1="-35.240000" y1="41.330000" x2="76.760000" y2="211.780000" spreadMethod="pad" gradientUnits="userSpaceOnUse"><stop id="eLwcIWnFAEl95-fill-0" offset="0%" stop-color="rgb(237,207,49)"/><stop id="eLwcIWnFAEl95-fill-1" offset="100%" stop-color="rgb(206,14,45)"/></linearGradient><linearGradient id="eLwcIWnFAEl96-fill" x1="90.700000" y1="-41.420000" x2="202.700000" y2="129.030000" spreadMethod="pad" gradientUnits="userSpaceOnUse"><stop id="eLwcIWnFAEl96-fill-0" offset="0%" stop-color="rgb(237,207,49)"/><stop id="eLwcIWnFAEl96-fill-1" offset="100%" stop-color="rgb(206,14,45)"/></linearGradient><linearGradient id="eLwcIWnFAEl97-fill" x1="-29.660000" y1="37.670000" x2="82.340000" y2="208.110000" spreadMethod="pad" gradientUnits="userSpaceOnUse"><stop id="eLwcIWnFAEl97-fill-0" offset="0%" stop-color="rgb(237,207,49)"/><stop id="eLwcIWnFAEl97-fill-1" offset="100%" stop-color="rgb(206,14,45)"/></linearGradient><linearGradient id="eLwcIWnFAEl98-fill" x1="84.970000" y1="-37.650000" x2="196.970000" y2="132.790000" spreadMethod="pad" gradientUnits="userSpaceOnUse"><stop id="eLwcIWnFAEl98-fill-0" offset="0%" stop-color="rgb(237,207,49)"/><stop id="eLwcIWnFAEl98-fill-1" offset="100%" stop-color="rgb(206,14,45)"/></linearGradient><linearGradient id="eLwcIWnFAEl99-fill" x1="-20.150000" y1="31.420000" x2="91.850000" y2="201.860000" spreadMethod="pad" gradientUnits="userSpaceOnUse"><stop id="eLwcIWnFAEl99-fill-0" offset="0%" stop-color="rgb(237,207,49)"/><stop id="eLwcIWnFAEl99-fill-1" offset="100%" stop-color="rgb(206,14,45)"/></linearGradient><linearGradient id="eLwcIWnFAEl100-fill" x1="75.420000" y1="-31.380000" x2="187.420000" y2="139.060000" spreadMethod="pad" gradientUnits="userSpaceOnUse"><stop id="eLwcIWnFAEl100-fill-0" offset="0%" stop-color="rgb(237,207,49)"/><stop id="eLwcIWnFAEl100-fill-1" offset="100%" stop-color="rgb(206,14,45)"/></linearGradient><linearGradient id="eLwcIWnFAEl101-fill" x1="27.520000" y1="0.090000" x2="139.520000" y2="170.540000" spreadMethod="pad" gradientUnits="userSpaceOnUse"><stop id="eLwcIWnFAEl101-fill-0" offset="0%" stop-color="rgb(237,207,49)"/><stop id="eLwcIWnFAEl101-fill-1" offset="100%" stop-color="rgb(206,14,45)"/></linearGradient></defs><g id="eLwcIWnFAEl2"><g id="eLwcIWnFAEl3"><g id="eLwcIWnFAEl4"><path id="eLwcIWnFAEl5" d="M79.300000,13.100000C80.100000,12.400000,82.500000,11.900000,83.300000,10.300000C84.100000,8.700000,81.100000,6,79.300000,6C77.500000,6,74.600000,8.800000,75.300000,10.300000C76.100000,12,78.300000,12.300000,79.300000,13.100000Z" fill="url(#eLwcIWnFAEl5-fill)" stroke="none" stroke-width="1"/><path id="eLwcIWnFAEl6" d="M79.300000,144C78.500000,144.700000,76.100000,145.200000,75.300000,146.800000C74.600000,148.100000,77.300000,151.100000,79.300000,151.100000C81.300000,151.100000,84,148.100000,83.300000,146.800000C82.500000,145.200000,80.300000,144.800000,79.300000,144Z" fill="url(#eLwcIWnFAEl6-fill)" stroke="none" stroke-width="1"/><path id="eLwcIWnFAEl7" d="M62.100000,15.300000C62.800000,14.300000,64.800000,13.500000,65.100000,11.700000C65.400000,10.200000,61.900000,8.100000,60.100000,8.600000C58.300000,9.100000,56.400000,12.600000,57.400000,13.700000C58.900000,15.100000,61.100000,14.800000,62.100000,15.300000Z" fill="url(#eLwcIWnFAEl7-fill)" stroke="none" stroke-width="1"/><path id="eLwcIWnFAEl8" d="M96.500000,141.900000C95.800000,142.900000,93.800000,143.700000,93.500000,145.500000C93.200000,147,96.700000,149.100000,98.500000,148.600000C100.300000,148.100000,102.200000,144.600000,101.200000,143.500000C99.700000,142,97.500000,142.400000,96.500000,141.900000Z" fill="url(#eLwcIWnFAEl8-fill)" stroke="none" stroke-width="1"/><path id="eLwcIWnFAEl9" d="M41.300000,21.400000C42.800000,22.400000,44.800000,21.600000,46.200000,21.900000C46.500000,20.900000,48.400000,19.400000,48.200000,17.600000C48,16.100000,44.200000,14.800000,42.500000,15.800000C41,16.600000,40,20.600000,41.300000,21.400000Z" fill="url(#eLwcIWnFAEl9-fill)" stroke="none" stroke-width="1"/><path id="eLwcIWnFAEl10" d="M117.300000,135.800000C115.800000,134.800000,113.800000,135.600000,112.400000,135.300000C112.100000,136.300000,110.200000,137.800000,110.400000,139.600000C110.600000,141.100000,114.400000,142.400000,116.100000,141.400000C117.800000,140.400000,118.600000,136.600000,117.300000,135.800000Z" fill="url(#eLwcIWnFAEl10-fill)" stroke="none" stroke-width="1"/><path id="eLwcIWnFAEl11" d="M27.600000,33.100000C29.400000,33.800000,31.100000,32.400000,32.500000,32.300000C32.500000,31.100000,34,29.300000,33.300000,27.500000C32.800000,26,28.800000,25.800000,27.400000,27.200000C26,28.600000,26.100000,32.600000,27.600000,33.100000Z" fill="url(#eLwcIWnFAEl11-fill)" stroke="none" stroke-width="1"/><path id="eLwcIWnFAEl12" d="M131,124C129.200000,123.300000,127.500000,124.700000,126.100000,124.800000C126.100000,126,124.600000,127.800000,125.300000,129.600000C125.800000,131.100000,129.800000,131.300000,131.200000,129.900000C132.600000,128.500000,132.500000,124.700000,131,124Z" fill="url(#eLwcIWnFAEl12-fill)" stroke="none" stroke-width="1"/><path id="eLwcIWnFAEl13" d="M17.400000,47.800000C19.200000,48,20.600000,46.100000,21.800000,45.800000C21.600000,44.800000,22.500000,42.700000,21.300000,41C20.500000,39.700000,16.400000,40.500000,15.400000,42.200000C14.700000,43.900000,15.900000,47.700000,17.400000,47.800000Z" fill="url(#eLwcIWnFAEl13-fill)" stroke="none" stroke-width="1"/><path id="eLwcIWnFAEl14" d="M141.200000,109.300000C139.400000,109.100000,138,111,136.800000,111.300000C137,112.300000,136.100000,114.400000,137.300000,116.100000C138.100000,117.400000,142.200000,116.600000,143.200000,114.900000C144.200000,113.200000,142.700000,109.500000,141.200000,109.300000Z" fill="url(#eLwcIWnFAEl14-fill)" stroke="none" stroke-width="1"/><path id="eLwcIWnFAEl15" d="M11.500000,64.700000C13.300000,64.400000,14.200000,62.400000,15.200000,61.700000C14.700000,60.700000,14.900000,58.400000,13.500000,57.200000C12.300000,56.200000,8.600000,58,8.300000,59.800000C8,61.600000,10,65,11.500000,64.700000Z" fill="url(#eLwcIWnFAEl15-fill)" stroke="none" stroke-width="1"/><path id="eLwcIWnFAEl16" d="M147.100000,92.500000C145.300000,92.800000,144.400000,94.800000,143.400000,95.500000C143.900000,96.500000,143.700000,98.800000,145.100000,100C146.300000,101,150,99.200000,150.300000,97.400000C150.800000,95.600000,148.600000,92.100000,147.100000,92.500000Z" fill="url(#eLwcIWnFAEl16-fill)" stroke="none" stroke-width="1"/><path id="eLwcIWnFAEl17" d="M10.200000,74.600000C8.900000,73.900000,5.800000,76.600000,5.800000,78.600000C5.800000,80.600000,8.600000,83.200000,10.200000,82.600000C11.900000,81.800000,12.200000,79.600000,13,78.600000C12.200000,77.700000,11.800000,75.400000,10.200000,74.600000Z" fill="url(#eLwcIWnFAEl17-fill)" stroke="none" stroke-width="1"/><path id="eLwcIWnFAEl18" d="M148.400000,82.500000C149.700000,83.200000,152.800000,80.500000,152.800000,78.500000C152.800000,76.500000,149.800000,73.900000,148.400000,74.500000C146.700000,75.300000,146.400000,77.500000,145.600000,78.500000C146.400000,79.400000,146.700000,81.700000,148.400000,82.500000Z" fill="url(#eLwcIWnFAEl18-fill)" stroke="none" stroke-width="1"/><path id="eLwcIWnFAEl19" d="M11.500000,92.500000C10,92.200000,7.800000,95.600000,8.300000,97.500000C8.800000,99.400000,12.300000,101.100000,13.500000,100.100000C15,98.900000,14.700000,96.800000,15.200000,95.600000C14.400000,94.900000,13.400000,92.800000,11.500000,92.500000Z" fill="url(#eLwcIWnFAEl19-fill)" stroke="none" stroke-width="1"/><path id="eLwcIWnFAEl20" d="M147.100000,64.700000C148.600000,65,150.800000,61.600000,150.300000,59.700000C149.800000,57.800000,146.300000,56.100000,145.100000,57.100000C143.600000,58.300000,143.900000,60.400000,143.400000,61.600000C144.200000,62.200000,145.200000,64.400000,147.100000,64.700000Z" fill="url(#eLwcIWnFAEl20-fill)" stroke="none" stroke-width="1"/><path id="eLwcIWnFAEl21" d="M21.400000,116.100000C22.400000,114.600000,21.600000,112.600000,21.900000,111.300000C20.900000,111,19.400000,109.200000,17.500000,109.300000C16,109.500000,14.700000,113.300000,15.700000,114.900000C16.500000,116.600000,20.500000,117.400000,21.400000,116.100000Z" fill="url(#eLwcIWnFAEl21-fill)" stroke="none" stroke-width="1"/><path id="eLwcIWnFAEl22" d="M137.200000,41.100000C136.200000,42.600000,137,44.600000,136.700000,45.900000C137.700000,46.200000,139.200000,48,141.100000,47.900000C142.600000,47.700000,143.900000,43.900000,142.900000,42.300000C142.100000,40.700000,138,39.700000,137.200000,41.100000Z" fill="url(#eLwcIWnFAEl22-fill)" stroke="none" stroke-width="1"/><path id="eLwcIWnFAEl23" d="M33.300000,129.600000C34,127.800000,32.600000,126.100000,32.500000,124.800000C31.300000,124.800000,29.500000,123.300000,27.600000,124C26.100000,124.500000,25.900000,128.500000,27.300000,129.800000C28.600000,131.300000,32.800000,131.100000,33.300000,129.600000Z" fill="url(#eLwcIWnFAEl23-fill)" stroke="none" stroke-width="1"/><path id="eLwcIWnFAEl24" d="M125.300000,27.500000C124.600000,29.300000,126,31,126.100000,32.300000C127.300000,32.300000,129.100000,33.800000,131,33.100000C132.500000,32.600000,132.700000,28.600000,131.300000,27.300000C129.900000,26,126,26,125.300000,27.500000Z" fill="url(#eLwcIWnFAEl24-fill)" stroke="none" stroke-width="1"/><path id="eLwcIWnFAEl25" d="M41.300000,135.800000C40,136.600000,40.800000,140.600000,42.500000,141.600000C44.200000,142.600000,48,141.300000,48.200000,139.800000C48.400000,138,46.500000,136.700000,46.200000,135.500000C45,135.600000,42.800000,134.800000,41.300000,135.800000Z" fill="url(#eLwcIWnFAEl25-fill)" stroke="none" stroke-width="1"/><path id="eLwcIWnFAEl26" d="M117.300000,21.400000C118.600000,20.600000,117.800000,16.600000,116.100000,15.600000C114.400000,14.600000,110.600000,15.900000,110.400000,17.400000C110.200000,19.200000,112.100000,20.500000,112.400000,21.700000C113.600000,21.600000,115.800000,22.400000,117.300000,21.400000Z" fill="url(#eLwcIWnFAEl26-fill)" stroke="none" stroke-width="1"/><path id="eLwcIWnFAEl27" d="M62.100000,141.900000C61.100000,142.400000,58.800000,142.200000,57.600000,143.600000C56.600000,144.800000,58.400000,148.400000,60.300000,148.700000C62.200000,149,65.500000,147,65.300000,145.600000C64.900000,143.700000,62.900000,142.900000,62.100000,141.900000Z" fill="url(#eLwcIWnFAEl27-fill)" stroke="none" stroke-width="1"/><path id="eLwcIWnFAEl28" d="M96.500000,15.300000C97.500000,14.800000,99.800000,15,101,13.600000C102,12.400000,100.200000,8.800000,98.300000,8.500000C96.500000,8,93.100000,10.200000,93.300000,11.600000C93.700000,13.500000,95.700000,14.300000,96.500000,15.300000Z" fill="url(#eLwcIWnFAEl28-fill)" stroke="none" stroke-width="1"/><path id="eLwcIWnFAEl29" d="M66.200000,18.100000C67.400000,18.800000,70,18.800000,71.400000,20.100000C72.400000,18.400000,74.900000,17.800000,75.900000,16.800000C77.200000,15.500000,75.700000,13.700000,74.400000,12.800000C73.132805,11.928165,71.705256,11.316358,70.200000,11C68.837706,11.749425,67.591384,12.692588,66.500000,13.800000C65.600000,15.100000,64.700000,17.300000,66.200000,18.100000Z" fill="url(#eLwcIWnFAEl29-fill)" stroke="none" stroke-width="1"/><path id="eLwcIWnFAEl30" d="M92.400000,139.100000C91.200000,138.400000,88.600000,138.400000,87.200000,137.100000C86.200000,138.800000,83.700000,139.400000,82.700000,140.400000C81.400000,141.700000,82.900000,143.500000,84.200000,144.400000C85.467195,145.271835,86.894744,145.883642,88.400000,146.200000C89.762294,145.450575,91.008616,144.507412,92.100000,143.400000C93,142,93.900000,139.900000,92.400000,139.100000Z" fill="url(#eLwcIWnFAEl30-fill)" stroke="none" stroke-width="1"/><path id="eLwcIWnFAEl31" d="M50.200000,19.400000C49.400000,20.700000,49.200000,23.200000,51,23.500000C52.300000,23.800000,54.800000,23.200000,56.500000,24.200000C57,22.400000,59.300000,21.100000,60,19.900000C61,18.200000,59.200000,16.800000,57.500000,16.400000C56.033490,15.987093,54.522640,15.752071,53,15.700000C51.831183,16.736046,50.879484,17.993648,50.200000,19.400000Z" fill="url(#eLwcIWnFAEl31-fill)" stroke="none" stroke-width="1"/><path id="eLwcIWnFAEl32" d="M108.400000,137.700000C109.200000,136.400000,109.400000,133.900000,107.600000,133.600000C106.300000,133.300000,103.800000,133.900000,102.100000,132.900000C101.600000,134.700000,99.300000,136,98.600000,137.200000C97.600000,138.900000,99.400000,140.300000,101.100000,140.700000C102.566510,141.112907,104.077360,141.347929,105.600000,141.400000C106.815497,140.408045,107.775632,139.139296,108.400000,137.700000Z" fill="url(#eLwcIWnFAEl32-fill)" stroke="none" stroke-width="1"/><path id="eLwcIWnFAEl33" d="M37.500000,32.600000C38.800000,32.600000,41.200000,31.300000,43,31.800000C43,29.800000,44.800000,28,45.200000,26.700000C45.700000,24.900000,43.500000,24.100000,41.900000,23.900000C40.384087,23.857552,38.869622,24.025825,37.400000,24.400000C36.617928,25.738526,36.044664,27.188545,35.700000,28.700000C35.300000,30.300000,35.600000,32.600000,37.500000,32.600000Z" fill="url(#eLwcIWnFAEl33-fill)" stroke="none" stroke-width="1"/><path id="eLwcIWnFAEl34" d="M121.100000,124.500000C119.800000,124.500000,117.400000,125.800000,115.600000,125.300000C115.600000,127.300000,113.800000,129.100000,113.400000,130.400000C112.900000,132.200000,115.100000,133,116.700000,133.200000C118.215913,133.242448,119.730378,133.074175,121.200000,132.700000C121.982072,131.361474,122.555336,129.911455,122.900000,128.400000C123.300000,126.800000,123,124.500000,121.100000,124.500000Z" fill="url(#eLwcIWnFAEl34-fill)" stroke="none" stroke-width="1"/><path id="eLwcIWnFAEl35" d="M28.900000,35.400000C27.377867,35.811078,25.903113,36.380870,24.500000,37.100000C24.018731,38.548147,23.848355,40.081529,24,41.600000C24,43.300000,25,45.400000,26.800000,44.900000C28.100000,44.600000,30,42.600000,32,42.800000C31.500000,41,32.800000,38.700000,32.800000,37.300000C32.800000,35.400000,30.400000,35.100000,28.900000,35.400000Z" fill="url(#eLwcIWnFAEl35-fill)" stroke="none" stroke-width="1"/><path id="eLwcIWnFAEl36" d="M129.700000,121.700000C131.222133,121.288922,132.696887,120.719130,134.100000,120C134.581269,118.551853,134.751645,117.018471,134.600000,115.500000C134.600000,113.800000,133.600000,111.700000,131.800000,112.200000C130.500000,112.500000,128.600000,114.500000,126.600000,114.300000C127.100000,116.100000,125.800000,118.400000,125.800000,119.800000C125.800000,121.700000,128.200000,122,129.700000,121.700000Z" fill="url(#eLwcIWnFAEl36-fill)" stroke="none" stroke-width="1"/><path id="eLwcIWnFAEl37" d="M23.600000,50.500000C23.100000,48.700000,20.800000,49,19.400000,49.700000C17.993648,50.379484,16.736046,51.331183,15.700000,52.500000C15.637372,54.031311,15.875178,55.560070,16.400000,57C16.900000,58.500000,18.400000,60.300000,19.900000,59.500000C21.100000,58.800000,22.400000,56.500000,24.300000,56C23.200000,54.400000,23.900000,51.800000,23.600000,50.500000Z" fill="url(#eLwcIWnFAEl37-fill)" stroke="none" stroke-width="1"/><path id="eLwcIWnFAEl38" d="M135,106.700000C135.500000,108.500000,137.800000,108.200000,139.200000,107.500000C140.606352,106.820516,141.863954,105.868817,142.900000,104.700000C142.962628,103.168689,142.724822,101.639930,142.200000,100.200000C141.700000,98.700000,140.200000,96.900000,138.700000,97.700000C137.500000,98.400000,136.200000,100.700000,134.300000,101.200000C135.400000,102.700000,134.700000,105.300000,135,106.700000Z" fill="url(#eLwcIWnFAEl38-fill)" stroke="none" stroke-width="1"/><path id="eLwcIWnFAEl39" d="M11,69.700000C11.347494,71.164149,11.957340,72.553241,12.800000,73.800000C13.600000,75.100000,15.600000,76.600000,16.800000,75.300000C17.600000,74.300000,18.300000,71.800000,20.100000,70.800000C18.800000,69.500000,18.800000,66.800000,18.100000,65.700000C17.400000,64,15,64.900000,13.900000,66C12.693362,67.024813,11.706853,68.283463,11,69.700000Z" fill="url(#eLwcIWnFAEl39-fill)" stroke="none" stroke-width="1"/><path id="eLwcIWnFAEl40" d="M147.600000,87.500000C147.222810,85.998815,146.651318,84.553274,145.900000,83.200000C145.100000,81.900000,143.100000,80.400000,141.900000,81.700000C141.100000,82.700000,140.400000,85.200000,138.600000,86.200000C139.900000,87.500000,139.900000,90.200000,140.600000,91.300000C141.400000,93,143.800000,92.100000,145,91C145.995824,89.935067,146.868032,88.760941,147.600000,87.500000Z" fill="url(#eLwcIWnFAEl40-fill)" stroke="none" stroke-width="1"/><path id="eLwcIWnFAEl41" d="M18,91.500000C18.700000,90.300000,18.700000,87.700000,20,86.400000C18.300000,85.400000,17.700000,82.900000,16.700000,81.900000C15.400000,80.600000,13.500000,82.100000,12.700000,83.400000C11.849737,84.642551,11.239251,86.033102,10.900000,87.500000C11.631342,88.844288,12.577097,90.060259,13.700000,91.100000C15,92.100000,17.200000,93,18,91.500000Z" fill="url(#eLwcIWnFAEl41-fill)" stroke="none" stroke-width="1"/><path id="eLwcIWnFAEl42" d="M140.600000,65.700000C139.900000,66.900000,139.900000,69.500000,138.600000,70.800000C140.300000,71.800000,140.900000,74.300000,141.900000,75.300000C143.200000,76.600000,145.100000,75.100000,145.900000,73.800000C146.750263,72.557449,147.360749,71.166898,147.700000,69.700000C146.968658,68.355712,146.022903,67.139741,144.900000,66.100000C143.600000,65,141.400000,64.200000,140.600000,65.700000Z" fill="url(#eLwcIWnFAEl42-fill)" stroke="none" stroke-width="1"/><path id="eLwcIWnFAEl43" d="M19.900000,97.700000C18.200000,96.700000,16.700000,98.500000,16.400000,100.200000C15.980409,101.665047,15.745259,103.176724,15.700000,104.700000C16.816116,105.778882,18.058444,106.719022,19.400000,107.500000C20.700000,108.300000,23.200000,108.500000,23.600000,106.700000C23.900000,105.400000,23.300000,102.900000,24.300000,101.200000C22.200000,100.700000,20.900000,98.400000,19.900000,97.700000Z" fill="url(#eLwcIWnFAEl43-fill)" stroke="none" stroke-width="1"/><path id="eLwcIWnFAEl44" d="M138.700000,59.400000C140.400000,60.400000,141.900000,58.600000,142.200000,56.900000C142.619591,55.434953,142.854741,53.923276,142.900000,52.400000C141.860046,51.286435,140.600091,50.401062,139.200000,49.800000C137.900000,49,135.400000,48.800000,135,50.600000C134.700000,51.900000,135.300000,54.400000,134.300000,56.100000C136.400000,56.400000,137.700000,58.700000,138.700000,59.400000Z" fill="url(#eLwcIWnFAEl44-fill)" stroke="none" stroke-width="1"/><path id="eLwcIWnFAEl45" d="M28.900000,121.700000C30.400000,122,32.900000,121.700000,32.700000,119.900000C32.700000,118.600000,31.400000,116.300000,31.900000,114.400000C29.900000,114.400000,28.100000,112.600000,26.700000,112.300000C24.900000,111.800000,24,114,23.900000,115.600000C23.864312,117.115626,24.032484,118.629174,24.400000,120.100000C25.851694,120.760522,27.357169,121.295802,28.900000,121.700000Z" fill="url(#eLwcIWnFAEl45-fill)" stroke="none" stroke-width="1"/><path id="eLwcIWnFAEl46" d="M129.700000,35.400000C128.200000,35.100000,125.700000,35.400000,125.900000,37.200000C125.900000,38.500000,127.200000,40.800000,126.700000,42.700000C128.700000,42.700000,130.500000,44.500000,131.900000,44.800000C133.700000,45.300000,134.600000,43.100000,134.700000,41.500000C134.735688,39.984374,134.567516,38.470826,134.200000,37C132.730711,36.383942,131.228407,35.849790,129.700000,35.400000Z" fill="url(#eLwcIWnFAEl46-fill)" stroke="none" stroke-width="1"/><path id="eLwcIWnFAEl47" d="M45.200000,130.300000C44.900000,129,42.900000,127.200000,43,125.200000C41.200000,125.900000,38.800000,124.500000,37.500000,124.500000C35.700000,124.500000,35.300000,126.800000,35.700000,128.300000C36.089495,129.797197,36.660388,131.241221,37.400000,132.600000C38.849716,133.074071,40.381579,133.244278,41.900000,133.100000C43.500000,133.100000,45.700000,132.100000,45.200000,130.300000Z" fill="url(#eLwcIWnFAEl47-fill)" stroke="none" stroke-width="1"/><path id="eLwcIWnFAEl48" d="M113.400000,26.900000C113.700000,28.200000,115.700000,30,115.600000,32C117.400000,31.500000,119.800000,32.800000,121.100000,32.800000C122.900000,32.800000,123.300000,30.500000,122.900000,29C122.510505,27.502803,121.939612,26.058779,121.200000,24.700000C119.750284,24.225929,118.218421,24.055722,116.700000,24.200000C115.100000,24,112.900000,25,113.400000,26.900000Z" fill="url(#eLwcIWnFAEl48-fill)" stroke="none" stroke-width="1"/><path id="eLwcIWnFAEl49" d="M59.900000,137.200000C59.200000,136,56.900000,134.700000,56.400000,132.900000C54.700000,133.900000,52,133.200000,50.900000,133.600000C49.100000,134.100000,49.400000,136.400000,50.100000,137.700000C50.749357,139.096135,51.706665,140.326959,52.900000,141.300000C54.431311,141.362628,55.960070,141.124822,57.400000,140.600000C59,140.400000,60.900000,138.900000,59.900000,137.200000Z" fill="url(#eLwcIWnFAEl49-fill)" stroke="none" stroke-width="1"/><path id="eLwcIWnFAEl50" d="M98.700000,19.900000C99.400000,21.100000,101.700000,22.400000,102.200000,24.200000C103.900000,23.200000,106.600000,23.900000,107.700000,23.500000C109.500000,23,109.200000,20.700000,108.500000,19.400000C107.850643,18.003865,106.893335,16.773041,105.700000,15.800000C104.168689,15.737372,102.639930,15.975178,101.200000,16.500000C99.500000,16.800000,97.700000,18.300000,98.700000,19.900000Z" fill="url(#eLwcIWnFAEl50-fill)" stroke="none" stroke-width="1"/><path id="eLwcIWnFAEl51" d="M75.900000,140.200000C74.900000,139.400000,72.400000,138.700000,71.400000,136.900000C70.100000,138.200000,67.400000,138.200000,66.200000,138.900000C64.500000,139.700000,65.400000,142,66.500000,143.200000C67.551384,144.352123,68.805547,145.301219,70.200000,146C71.696496,145.656357,73.119089,145.046675,74.400000,144.200000C75.900000,143.500000,77.300000,141.500000,75.900000,140.200000Z" fill="url(#eLwcIWnFAEl51-fill)" stroke="none" stroke-width="1"/><path id="eLwcIWnFAEl52" d="M82.600000,16.900000C83.600000,17.700000,86.100000,18.400000,87.100000,20.200000C88.400000,18.900000,91.100000,18.900000,92.300000,18.200000C94,17.400000,93.100000,15.100000,92,13.900000C90.948616,12.747877,89.694453,11.798781,88.300000,11.100000C86.765833,11.473509,85.286761,12.044969,83.900000,12.800000C82.600000,13.600000,81.300000,15.600000,82.600000,16.900000Z" fill="url(#eLwcIWnFAEl52-fill)" stroke="none" stroke-width="1"/><path id="eLwcIWnFAEl53" d="M91.600000,7C91.666910,6.323575,91.462061,5.648310,91.030612,5.123068C90.599164,4.597826,89.976540,4.265733,89.300000,4.200000C87.896867,3.974496,86.568384,4.904434,86.300000,6.300000C86.233090,6.976425,86.437939,7.651690,86.869388,8.176932C87.300836,8.702174,87.923460,9.034267,88.600000,9.100000C90.005677,9.336682,91.341248,8.401782,91.600000,7Z" fill="url(#eLwcIWnFAEl53-fill)" stroke="none" stroke-width="1"/><path id="eLwcIWnFAEl54" d="M70.100000,148C69.400000,148,67.300000,148.800000,67.100000,150.100000C67.030344,150.776976,67.234184,151.453708,67.666156,151.979586C68.098127,152.505465,68.722386,152.836854,69.400000,152.900000C70.803133,153.125504,72.131616,152.195566,72.400000,150.800000C72.600000,149.500000,70.600000,148.100000,70.100000,148Z" fill="url(#eLwcIWnFAEl54-fill)" stroke="none" stroke-width="1"/><path id="eLwcIWnFAEl55" d="M70.100000,9.200000C70.800000,9.200000,72.600000,7.700000,72.400000,6.400000C72.131616,5.004434,70.803133,4.074496,69.400000,4.300000C68.711177,4.335024,68.069022,4.658768,67.631233,5.191727C67.193445,5.724687,67.000580,6.417490,67.100000,7.100000C67.200000,8.300000,69.400000,9.200000,70.100000,9.200000Z" fill="url(#eLwcIWnFAEl55-fill)" stroke="none" stroke-width="1"/><path id="eLwcIWnFAEl56" d="M88.500000,148C87.800000,148,86,149.500000,86.200000,150.800000C86.468384,152.195566,87.796867,153.125504,89.200000,152.900000C89.877614,152.836854,90.501873,152.505465,90.933844,151.979586C91.365816,151.453708,91.569656,150.776976,91.500000,150.100000C91.300000,148.800000,89.200000,148,88.500000,148Z" fill="url(#eLwcIWnFAEl56-fill)" stroke="none" stroke-width="1"/><path id="eLwcIWnFAEl57" d="M52.200000,13.800000C52.700000,13.600000,54.200000,11.800000,53.700000,10.500000C53.436478,9.888556,52.939937,9.407490,52.320458,9.163453C51.700979,8.919415,51.009745,8.932570,50.400000,9.200000C49.085281,9.708517,48.418657,11.175090,48.900000,12.500000C49.300000,13.800000,51.500000,14.100000,52.200000,13.800000Z" fill="url(#eLwcIWnFAEl57-fill)" stroke="none" stroke-width="1"/><path id="eLwcIWnFAEl58" d="M106.400000,143.400000C105.900000,143.600000,104.400000,145.400000,104.900000,146.700000C105.163522,147.311444,105.660063,147.792510,106.279542,148.036547C106.899021,148.280585,107.590255,148.267430,108.200000,148C109.514719,147.491483,110.181343,146.024910,109.700000,144.700000C109.400000,143.400000,107.100000,143,106.400000,143.400000Z" fill="url(#eLwcIWnFAEl58-fill)" stroke="none" stroke-width="1"/><path id="eLwcIWnFAEl59" d="M36.100000,23.100000C36.600000,22.800000,37.600000,20.600000,36.600000,19.500000C36.173775,18.932553,35.524868,18.574896,34.817497,18.517542C34.110125,18.460187,33.412075,18.708631,32.900000,19.200000C32.313801,19.578866,31.921575,20.194155,31.825555,20.885494C31.729536,21.576832,31.939237,22.275723,32.400000,22.800000C33.300000,23.700000,35.600000,23.400000,36.100000,23.100000Z" fill="url(#eLwcIWnFAEl59-fill)" stroke="none" stroke-width="1"/><path id="eLwcIWnFAEl60" d="M122.500000,134.100000C122,134.400000,121,136.600000,122,137.700000C122.428144,138.264668,123.076598,138.620167,123.782911,138.677435C124.489223,138.734704,125.186479,138.488317,125.700000,138C126.286199,137.621134,126.678425,137.005845,126.774445,136.314506C126.870464,135.623168,126.660763,134.924277,126.200000,134.400000C125.300000,133.400000,123,133.800000,122.500000,134.100000Z" fill="url(#eLwcIWnFAEl60-fill)" stroke="none" stroke-width="1"/><path id="eLwcIWnFAEl61" d="M19.400000,36.400000C20.600000,37.200000,22.600000,36.400000,23.100000,35.900000C23.400000,35.400000,23.800000,33.100000,22.800000,32.300000C21.632956,31.444281,19.998057,31.665213,19.100000,32.800000C18.584888,33.280572,18.318426,33.970710,18.376929,34.672756C18.435433,35.374801,18.812450,36.011316,19.400000,36.400000Z" fill="url(#eLwcIWnFAEl61-fill)" stroke="none" stroke-width="1"/><path id="eLwcIWnFAEl62" d="M139.200000,120.700000C138,119.900000,136,120.700000,135.500000,121.200000C135.200000,121.700000,134.800000,124,135.800000,124.800000C136.967044,125.655719,138.601943,125.434787,139.500000,124.300000C140.011477,123.817557,140.275385,123.128429,140.216995,122.427750C140.158605,121.727072,139.784275,121.091130,139.200000,120.700000Z" fill="url(#eLwcIWnFAEl62-fill)" stroke="none" stroke-width="1"/><path id="eLwcIWnFAEl63" d="M10.300000,53.300000C11.611873,53.596219,12.960577,52.983171,13.600000,51.800000C13.800000,51.300000,13.600000,49,12.300000,48.500000C10.975090,48.018657,9.508517,48.685281,9,50C8.620433,51.268172,9.157478,52.631439,10.300000,53.300000Z" fill="url(#eLwcIWnFAEl63-fill)" stroke="none" stroke-width="1"/><path id="eLwcIWnFAEl64" d="M148.300000,103.900000C146.988127,103.603781,145.639423,104.216829,145,105.400000C144.800000,105.900000,145,108.200000,146.300000,108.700000C147.625483,109.252285,149.147715,108.625483,149.700000,107.300000C150.252285,105.974517,149.625483,104.452285,148.300000,103.900000Z" fill="url(#eLwcIWnFAEl64-fill)" stroke="none" stroke-width="1"/><path id="eLwcIWnFAEl65" d="M4,68.800000C3.893752,69.489586,4.065874,70.193132,4.478483,70.755779C4.891091,71.318427,5.510366,71.694061,6.200000,71.800000C7.500000,72,9,70.100000,9,69.500000C9,68.900000,8.200000,66.700000,6.800000,66.500000C6.114731,66.383896,5.412782,66.570568,4.875710,67.011734C4.338638,67.452900,4.019194,68.105230,4,68.800000Z" fill="url(#eLwcIWnFAEl65-fill)" stroke="none" stroke-width="1"/><path id="eLwcIWnFAEl66" d="M154.600000,88.300000C154.706248,87.610414,154.534126,86.906868,154.121517,86.344221C153.708909,85.781573,153.089634,85.405939,152.400000,85.300000C151.100000,85.100000,149.600000,87,149.600000,87.600000C149.600000,88.200000,150.400000,90.400000,151.800000,90.600000C152.482510,90.699420,153.175313,90.506555,153.708273,90.068767C154.241232,89.630978,154.564976,88.988823,154.600000,88.300000Z" fill="url(#eLwcIWnFAEl66-fill)" stroke="none" stroke-width="1"/><path id="eLwcIWnFAEl67" d="M6.200000,85.500000C4.807027,85.789695,3.857601,87.084366,4,88.500000C4.081166,89.155179,4.425415,89.749134,4.953565,90.145247C5.481715,90.541359,6.148301,90.705531,6.800000,90.600000C8.100000,90.400000,9,88.300000,9,87.600000C9,86.900000,7.500000,85.200000,6.200000,85.500000Z" fill="url(#eLwcIWnFAEl67-fill)" stroke="none" stroke-width="1"/><path id="eLwcIWnFAEl68" d="M152.500000,71.800000C153.165730,71.699431,153.763145,71.335619,154.158032,70.790299C154.552919,70.244979,154.712167,69.563874,154.600000,68.900000C154.432736,67.507466,153.198505,66.493633,151.800000,66.600000C150.448200,66.880209,149.543145,68.157935,149.727325,69.526129C149.911505,70.894324,151.122223,71.887234,152.500000,71.800000Z" fill="url(#eLwcIWnFAEl68-fill)" stroke="none" stroke-width="1"/><path id="eLwcIWnFAEl69" d="M12.300000,108.800000C13.600000,108.300000,13.800000,106,13.600000,105.500000C13.400000,105,11.600000,103.500000,10.300000,104C9.688556,104.263522,9.207490,104.760063,8.963453,105.379542C8.719415,105.999021,8.732570,106.690255,9,107.300000C9.532529,108.591802,10.976569,109.248184,12.300000,108.800000Z" fill="url(#eLwcIWnFAEl69-fill)" stroke="none" stroke-width="1"/><path id="eLwcIWnFAEl70" d="M146.200000,48.300000C144.900000,48.800000,144.700000,51.100000,144.900000,51.600000C145.100000,52.100000,146.900000,53.600000,148.200000,53.100000C148.811444,52.836478,149.292510,52.339937,149.536547,51.720458C149.780585,51.100979,149.767430,50.409745,149.500000,49.800000C148.959932,48.515499,147.522888,47.862298,146.200000,48.300000Z" fill="url(#eLwcIWnFAEl70-fill)" stroke="none" stroke-width="1"/><path id="eLwcIWnFAEl71" d="M23.100000,121.200000C22.800000,120.700000,20.600000,119.700000,19.400000,120.700000C18.837307,121.106827,18.480337,121.739098,18.422674,122.431056C18.365011,123.123014,18.612405,123.805649,19.100000,124.300000C19.498778,124.891294,20.131113,125.284120,20.837888,125.379630C21.544663,125.475140,22.258582,125.264240,22.800000,124.800000C23.900000,123.900000,23.400000,121.700000,23.100000,121.200000Z" fill="url(#eLwcIWnFAEl71-fill)" stroke="none" stroke-width="1"/><path id="eLwcIWnFAEl72" d="M135.500000,35.900000C135.800000,36.400000,138,37.400000,139.200000,36.400000C139.762693,35.993173,140.119663,35.360902,140.177326,34.668944C140.234989,33.976986,139.987595,33.294351,139.500000,32.800000C139.097173,32.213978,138.465498,31.825432,137.760784,31.730201C137.056069,31.634969,136.343922,31.841917,135.800000,32.300000C134.900000,33.100000,135.200000,35.400000,135.500000,35.900000Z" fill="url(#eLwcIWnFAEl72-fill)" stroke="none" stroke-width="1"/><path id="eLwcIWnFAEl73" d="M32.400000,134.600000C31.988909,135.143692,31.810639,135.828422,31.904408,136.503554C31.998176,137.178687,32.356302,137.788918,32.900000,138.200000C34.040700,139.018436,35.606053,138.891515,36.600000,137.900000C37.400000,136.700000,36.600000,134.800000,36.100000,134.300000C35.600000,133.800000,33.300000,133.400000,32.400000,134.600000Z" fill="url(#eLwcIWnFAEl73-fill)" stroke="none" stroke-width="1"/><path id="eLwcIWnFAEl74" d="M126.200000,22.600000C126.611091,22.056308,126.789361,21.371578,126.695592,20.696446C126.601824,20.021313,126.243698,19.411082,125.700000,19C124.590935,18.075176,122.945585,18.208582,122,19.300000C121.200000,20.500000,122,22.400000,122.500000,22.900000C123,23.400000,125.300000,23.700000,126.200000,22.600000Z" fill="url(#eLwcIWnFAEl74-fill)" stroke="none" stroke-width="1"/><path id="eLwcIWnFAEl75" d="M52.200000,143.400000C51.700000,143.200000,49.400000,143.400000,48.900000,144.700000C48.418657,146.024910,49.085281,147.491483,50.400000,148C51.009745,148.267430,51.700979,148.280585,52.320458,148.036547C52.939937,147.792510,53.436478,147.311444,53.700000,146.700000C54.200000,145.300000,52.700000,143.500000,52.200000,143.400000Z" fill="url(#eLwcIWnFAEl75-fill)" stroke="none" stroke-width="1"/><path id="eLwcIWnFAEl76" d="M106.400000,13.800000C106.900000,14,109.200000,13.800000,109.700000,12.500000C110.181343,11.175090,109.514719,9.708517,108.200000,9.200000C107.590255,8.932570,106.899021,8.919415,106.279542,9.163453C105.660063,9.407490,105.163522,9.888556,104.900000,10.500000C104.400000,11.800000,105.900000,13.600000,106.400000,13.800000Z" fill="url(#eLwcIWnFAEl76-fill)" stroke="none" stroke-width="1"/><path id="eLwcIWnFAEl77" d="M79.300000,3.900000C79.751684,3.902681,80.185645,3.724435,80.505040,3.405040C80.824435,3.085645,81.002681,2.651684,81,2.200000C81.002681,1.748316,80.824435,1.314355,80.505040,0.994960C80.185645,0.675565,79.751684,0.497319,79.300000,0.500000C78.843273,0.479926,78.399110,0.652578,78.075844,0.975844C77.752578,1.299110,77.579926,1.743273,77.600000,2.200000C77.626152,3.127836,78.372164,3.873848,79.300000,3.900000Z" fill="url(#eLwcIWnFAEl77-fill)" stroke="none" stroke-width="1"/><path id="eLwcIWnFAEl78" d="M79.300000,156.600000C80.238884,156.600000,81,155.838884,81,154.900000C81,153.961116,80.238884,153.200000,79.300000,153.200000C78.843273,153.179926,78.399110,153.352578,78.075844,153.675844C77.752578,153.999110,77.579926,154.443273,77.600000,154.900000C77.626152,155.827836,78.372164,156.573848,79.300000,156.600000Z" fill="url(#eLwcIWnFAEl78-fill)" stroke="none" stroke-width="1"/><path id="eLwcIWnFAEl79" d="M59.700000,6.500000C60.573001,6.264841,61.103331,5.380958,60.900000,4.500000C60.771883,3.912389,60.334196,3.441029,59.757674,3.269789C59.181153,3.098549,58.557124,3.254557,58.129012,3.676955C57.700899,4.099353,57.536522,4.721230,57.700000,5.300000C57.790974,5.733217,58.058429,6.108897,58.438012,6.336647C58.817595,6.564396,59.274939,6.623596,59.700000,6.500000Z" fill="url(#eLwcIWnFAEl79-fill)" stroke="none" stroke-width="1"/><path id="eLwcIWnFAEl80" d="M98.900000,150.600000C98.252355,150.761595,97.765871,151.297482,97.667474,151.957691C97.569078,152.617899,97.878154,153.272356,98.450531,153.615782C99.022908,153.959208,99.745817,153.923943,100.282050,153.526436C100.818282,153.128929,101.062190,152.447496,100.900000,151.800000C100.614269,150.966527,99.769879,150.459893,98.900000,150.600000Z" fill="url(#eLwcIWnFAEl80-fill)" stroke="none" stroke-width="1"/><path id="eLwcIWnFAEl81" d="M41.500000,14C42.328427,13.558172,42.641828,12.528427,42.200000,11.700000C41.758172,10.871573,40.728427,10.558172,39.900000,11C39.149615,11.502809,38.856955,12.464408,39.200000,13.300000C39.401764,13.708080,39.763163,14.014670,40.198673,14.147216C40.634184,14.279763,41.105106,14.226489,41.500000,14Z" fill="url(#eLwcIWnFAEl81-fill)" stroke="none" stroke-width="1"/><path id="eLwcIWnFAEl82" d="M117.100000,143.200000C116.493307,143.523570,116.141266,144.180742,116.208034,144.865078C116.274802,145.549415,116.747230,146.126147,117.405025,146.326346C118.062821,146.526544,118.776442,146.310784,119.213129,145.779673C119.649816,145.248562,119.723570,144.506693,119.400000,143.900000C119.215282,143.475922,118.854005,143.154088,118.411485,143.019408C117.968964,142.884727,117.489650,142.950729,117.100000,143.200000Z" fill="url(#eLwcIWnFAEl82-fill)" stroke="none" stroke-width="1"/><path id="eLwcIWnFAEl83" d="M24.600000,26.400000C25.287586,26.400000,25.907468,25.985808,26.170595,25.350562C26.433723,24.715315,26.288278,23.984115,25.802082,23.497918C25.315885,23.011722,24.584685,22.866277,23.949438,23.129405C23.314192,23.392532,22.900000,24.012414,22.900000,24.700000C22.897319,25.151684,23.075565,25.585645,23.394960,25.905040C23.714355,26.224435,24.148316,26.402681,24.600000,26.400000Z" fill="url(#eLwcIWnFAEl83-fill)" stroke="none" stroke-width="1"/><path id="eLwcIWnFAEl84" d="M132.900000,131.300000C132.432310,131.765600,132.291514,132.467264,132.543379,133.077250C132.795243,133.687235,133.390062,134.085162,134.050000,134.085162C134.709938,134.085162,135.304757,133.687235,135.556621,133.077250C135.808486,132.467264,135.667690,131.765600,135.200000,131.300000C134.911271,130.965935,134.491547,130.773932,134.050000,130.773932C133.608453,130.773932,133.188729,130.965935,132.900000,131.300000Z" fill="url(#eLwcIWnFAEl84-fill)" stroke="none" stroke-width="1"/><path id="eLwcIWnFAEl85" d="M11.500000,41.900000C12.106693,42.223570,12.848562,42.149816,13.379673,41.713129C13.910784,41.276442,14.126544,40.562821,13.926346,39.905025C13.726147,39.247230,13.149415,38.774802,12.465078,38.708034C11.780742,38.641266,11.123570,38.993307,10.800000,39.600000C10.358172,40.428427,10.671573,41.458172,11.500000,41.900000Z" fill="url(#eLwcIWnFAEl85-fill)" stroke="none" stroke-width="1"/><path id="eLwcIWnFAEl86" d="M147.100000,115.300000C146.493307,114.976430,145.751438,115.050184,145.220327,115.486871C144.689216,115.923558,144.473456,116.637179,144.673654,117.294975C144.873853,117.952770,145.450585,118.425198,146.134922,118.491966C146.819258,118.558734,147.476430,118.206693,147.800000,117.600000C148.241828,116.771573,147.928427,115.741828,147.100000,115.300000Z" fill="url(#eLwcIWnFAEl86-fill)" stroke="none" stroke-width="1"/><path id="eLwcIWnFAEl87" d="M4.100000,60.600000C4.971331,60.789977,5.835934,60.253231,6.052228,59.388057C6.268522,58.522883,5.758223,57.642412,4.900000,57.400000C4.019042,57.196669,3.135159,57.726999,2.900000,58.600000C2.829631,59.455042,3.312436,60.259718,4.100000,60.600000Z" fill="url(#eLwcIWnFAEl87-fill)" stroke="none" stroke-width="1"/><path id="eLwcIWnFAEl88" d="M154.400000,96.600000C153.752504,96.437810,153.071071,96.681718,152.673564,97.217950C152.276057,97.754183,152.240792,98.477092,152.584218,99.049469C152.927644,99.621846,153.582101,99.930922,154.242309,99.832526C154.902518,99.734129,155.438405,99.247645,155.600000,98.600000C156,97.700000,155.300000,96.900000,154.400000,96.600000Z" fill="url(#eLwcIWnFAEl88-fill)" stroke="none" stroke-width="1"/><path id="eLwcIWnFAEl89" d="M2,80.200000C2.938884,80.200000,3.700000,79.438884,3.700000,78.500000C3.700000,77.561116,2.938884,76.800000,2,76.800000C1.548316,76.797319,1.114355,76.975565,0.794960,77.294960C0.475565,77.614355,0.297319,78.048316,0.300000,78.500000C0.279926,78.956727,0.452578,79.400890,0.775844,79.724156C1.099110,80.047422,1.543273,80.220074,2,80.200000Z" fill="url(#eLwcIWnFAEl89-fill)" stroke="none" stroke-width="1"/><path id="eLwcIWnFAEl90" d="M156.600000,80.200000C157.287586,80.200000,157.907468,79.785808,158.170595,79.150562C158.433723,78.515315,158.288278,77.784115,157.802082,77.297918C157.315885,76.811722,156.584685,76.666277,155.949438,76.929405C155.314192,77.192532,154.900000,77.812414,154.900000,78.500000C154.897319,78.951684,155.075565,79.385645,155.394960,79.705040C155.714355,80.024435,156.148316,80.202681,156.600000,80.200000Z" fill="url(#eLwcIWnFAEl90-fill)" stroke="none" stroke-width="1"/><path id="eLwcIWnFAEl91" d="M4.100000,96.800000C3.241777,97.042412,2.731478,97.922883,2.947772,98.788057C3.164066,99.653231,4.028669,100.189977,4.900000,100C5.773001,99.764841,6.303331,98.880958,6.100000,98C6.020577,97.560314,5.755282,97.176288,5.372153,96.946411C4.989025,96.716534,4.525333,96.663168,4.100000,96.800000Z" fill="url(#eLwcIWnFAEl91-fill)" stroke="none" stroke-width="1"/><path id="eLwcIWnFAEl92" d="M154.400000,60.400000C155.047645,60.238405,155.534129,59.702518,155.632526,59.042309C155.730922,58.382101,155.421846,57.727644,154.849469,57.384218C154.277092,57.040792,153.554183,57.076057,153.017950,57.473564C152.481718,57.871071,152.237810,58.552504,152.400000,59.200000C152.635159,60.073001,153.519042,60.603331,154.400000,60.400000Z" fill="url(#eLwcIWnFAEl92-fill)" stroke="none" stroke-width="1"/><path id="eLwcIWnFAEl93" d="M11.500000,115.400000C10.671573,115.841828,10.358172,116.871573,10.800000,117.700000C11.302809,118.450385,12.264408,118.743045,13.100000,118.400000C13.850385,117.897191,14.143045,116.935592,13.800000,116.100000C13.629739,115.663063,13.268508,115.328337,12.819887,115.191800C12.371266,115.055263,11.884808,115.131998,11.500000,115.400000Z" fill="url(#eLwcIWnFAEl93-fill)" stroke="none" stroke-width="1"/><path id="eLwcIWnFAEl94" d="M147.100000,41.700000C147.928427,41.258172,148.241828,40.228427,147.800000,39.400000C147.358172,38.571573,146.328427,38.258172,145.500000,38.700000C144.671573,39.141828,144.358172,40.171573,144.800000,41C144.945591,41.457531,145.306830,41.814234,145.766164,41.954031C146.225499,42.093829,146.724206,41.998849,147.100000,41.700000Z" fill="url(#eLwcIWnFAEl94-fill)" stroke="none" stroke-width="1"/><path id="eLwcIWnFAEl95" d="M24.700000,134.300000C25.387586,134.300000,26.007468,133.885808,26.270595,133.250562C26.533723,132.615315,26.388278,131.884115,25.902082,131.397918C25.415885,130.911722,24.684685,130.766277,24.049438,131.029405C23.414192,131.292532,23,131.912414,23,132.600000C23.062756,133.511626,23.788374,134.237244,24.700000,134.300000Z" fill="url(#eLwcIWnFAEl95-fill)" stroke="none" stroke-width="1"/><path id="eLwcIWnFAEl96" d="M135.200000,25.700000C135.667690,25.234400,135.808486,24.532736,135.556621,23.922750C135.304757,23.312765,134.709938,22.914838,134.050000,22.914838C133.390062,22.914838,132.795243,23.312765,132.543379,23.922750C132.291514,24.532736,132.432310,25.234400,132.900000,25.700000C133.188729,26.034065,133.608453,26.226068,134.050000,26.226068C134.491547,26.226068,134.911271,26.034065,135.200000,25.700000Z" fill="url(#eLwcIWnFAEl96-fill)" stroke="none" stroke-width="1"/><path id="eLwcIWnFAEl97" d="M41.500000,143.200000C40.671573,142.758172,39.641828,143.071573,39.200000,143.900000C38.758172,144.728427,39.071573,145.758172,39.900000,146.200000C40.728427,146.641828,41.758172,146.328427,42.200000,145.500000C42.592851,144.667398,42.290081,143.672580,41.500000,143.200000Z" fill="url(#eLwcIWnFAEl97-fill)" stroke="none" stroke-width="1"/><path id="eLwcIWnFAEl98" d="M117.100000,14C117.492832,14.235820,117.967152,14.294266,118.405480,14.160862C118.843808,14.027458,119.205147,13.714681,119.400000,13.300000C119.685812,12.764102,119.664016,12.116432,119.342820,11.600962C119.021625,11.085492,118.449828,10.780534,117.842820,10.800962C117.235812,10.821390,116.685812,11.164102,116.400000,11.700000C115.958172,12.528427,116.271573,13.558172,117.100000,14Z" fill="url(#eLwcIWnFAEl98-fill)" stroke="none" stroke-width="1"/><path id="eLwcIWnFAEl99" d="M59.700000,150.800000C59.052504,150.637810,58.371071,150.881718,57.973564,151.417950C57.576057,151.954183,57.540792,152.677092,57.884218,153.249469C58.227644,153.821846,58.882101,154.130922,59.542309,154.032526C60.202518,153.934129,60.738405,153.447645,60.900000,152.800000C61.051452,152.374631,61.004600,151.903806,60.772291,151.516625C60.539983,151.129444,60.146597,150.866540,59.700000,150.800000Z" fill="url(#eLwcIWnFAEl99-fill)" stroke="none" stroke-width="1"/><path id="eLwcIWnFAEl100" d="M98.900000,6.500000C99.780958,6.703331,100.664841,6.173001,100.900000,5.300000C101.063478,4.721230,100.899101,4.099353,100.470988,3.676955C100.042876,3.254557,99.418847,3.098549,98.842326,3.269789C98.265804,3.441029,97.828117,3.912389,97.700000,4.500000C97.559652,4.925367,97.611459,5.390762,97.841913,5.774852C98.072367,6.158943,98.458630,6.423664,98.900000,6.500000Z" fill="url(#eLwcIWnFAEl100-fill)" stroke="none" stroke-width="1"/><path id="eLwcIWnFAEl101" d="M132.400000,109C131.100000,107.700000,133.700000,103.200000,131.100000,99.900000C135.500000,99.400000,136.800000,94.300000,138.600000,94.400000C136.900000,93.600000,138.300000,88.600000,134.900000,86C139.100000,84.500000,139.100000,79.100000,140.900000,78.700000C139.100000,78.400000,139.100000,73.200000,135.200000,71.600000C138.500000,69.100000,137.200000,64,138.900000,63.200000C137.100000,63.200000,135.700000,58.200000,131.400000,57.700000C133.900000,54.400000,131.200000,49.900000,132.600000,48.800000C130.800000,49.300000,128.100000,44.700000,123.700000,45.500000C125.200000,41.700000,121.500000,37.900000,122.500000,36.400000C121,37.400000,117.100000,33.600000,113.100000,35.400000C113.800000,31.300000,109.100000,28.600000,109.600000,26.800000C108.300000,28.100000,103.700000,25.500000,100.400000,28.100000C99.900000,23.800000,94.700000,22.500000,94.900000,20.700000C94.100000,22.400000,89,21,86.400000,24.300000C84.900000,20.200000,79.400000,20.200000,79,18.400000C78.700000,20.200000,73.500000,20.200000,71.800000,24C69.300000,20.700000,64.100000,22,63.300000,20.400000C63.300000,22.200000,58.300000,23.500000,57.800000,27.800000C54.500000,25.300000,49.900000,28,48.800000,26.600000C49.300000,28.400000,44.600000,31.100000,45.500000,35.400000C41.700000,33.900000,37.800000,37.500000,36.300000,36.600000C37.300000,38.100000,33.500000,41.900000,35.300000,45.900000C31.100000,45.200000,28.400000,49.900000,26.600000,49.400000C27.900000,50.700000,25.300000,55.200000,27.900000,58.500000C23.500000,59,22.200000,64.100000,20.400000,64C22.100000,64.800000,20.700000,69.800000,24.100000,72.400000C19.900000,73.900000,19.900000,79.300000,18.100000,79.700000C19.900000,80,19.900000,85.200000,23.800000,86.800000C20.500000,89.300000,21.800000,94.400000,20.100000,95.200000C21.900000,95.200000,23.300000,100.200000,27.600000,100.700000C25.100000,104,27.800000,108.500000,26.400000,109.600000C28.200000,109.100000,30.900000,113.700000,35.300000,112.900000C33.800000,116.700000,37.500000,120.500000,36.500000,122C38,121,41.900000,124.800000,45.900000,123C45.200000,127.100000,49.900000,129.800000,49.400000,131.600000C50.700000,130.300000,55.300000,132.900000,58.600000,130.300000C59.100000,134.600000,64.300000,135.900000,64.100000,137.700000C64.900000,136,70,137.400000,72.600000,134.100000C74.100000,138.200000,79.600000,138.200000,80,140C80.300000,138.200000,85.500000,138.200000,87.200000,134.400000C89.700000,137.700000,94.900000,136.400000,95.700000,138C95.700000,136.200000,100.700000,134.900000,101.200000,130.600000C104.500000,133.100000,109.100000,130.400000,110.200000,131.800000C109.700000,130,114.400000,127.300000,113.500000,123C117.300000,124.500000,121.200000,120.900000,122.700000,121.800000C121.700000,120.300000,125.500000,116.500000,123.700000,112.500000C127.800000,112.900000,130.500000,108.300000,132.400000,109Z" fill="url(#eLwcIWnFAEl101-fill)" stroke="none" stroke-width="1"/></g></g><g id="eLwcIWnFAEl102"><g id="eLwcIWnFAEl103"><g id="eLwcIWnFAEl104" clip-path="url(#eLwcIWnFAEl107)"><g id="eLwcIWnFAEl105_to" transform="translate(107.143932,64.236633)"><g id="eLwcIWnFAEl105" transform="translate(-108.143932,-94.236633)"><path id="eLwcIWnFAEl106" d="M108.150000,102.800000L107.530000,102.800000C103.875458,102.446625,101.193687,99.206152,101.530000,95.550000C101.830000,92.350000,106.920000,87.130000,107.930000,86.110000C108.246173,85.795380,108.685963,85.637789,109.130000,85.680000C109.576124,85.719083,109.980559,85.958068,110.230000,86.330000C111.040000,87.510000,115.070000,93.590000,114.770000,96.790000C114.435894,100.196986,111.573327,102.795782,108.150000,102.800000ZM108.770000,89.570000C106.770000,91.730000,104.630000,94.570000,104.510000,95.810000C104.421182,97.761557,105.880718,99.438851,107.825829,99.620537C109.770940,99.802223,111.515858,98.424247,111.790000,96.490000C111.900000,95.230000,110.290000,92.050000,108.770000,89.570000Z" fill="rgb(255,255,255)" stroke="none" stroke-width="1"/></g></g><clipPath id="eLwcIWnFAEl107"><path id="eLwcIWnFAEl108" d="M135.200000,71.600000C135.955852,71.017236,136.548329,70.249083,136.920000,69.370000L110.920000,69.370000C110.742458,69.654339,110.523365,69.910509,110.270000,70.130000C109.614874,70.682555,108.765479,70.949228,107.912089,70.870280C107.058698,70.791332,106.272640,70.373362,105.730000,69.710000L105.440000,69.370000L105.440000,69.370000L105.880000,69.890000L63.110000,105.330000C58.576317,108.680329,52.215657,107.908871,48.614337,103.571883C45.013016,99.234894,45.423583,92.840789,49.550000,89L73.140000,69.370000L22.050000,69.370000C22.406837,70.557846,23.123020,71.605918,24.100000,72.370000C19.900000,73.870000,19.900000,79.270000,18.100000,79.670000C19.900000,79.970000,19.900000,85.170000,23.800000,86.770000C20.500000,89.270000,21.800000,94.370000,20.100000,95.170000C21.900000,95.170000,23.300000,100.170000,27.600000,100.670000C25.100000,103.970000,27.800000,108.470000,26.400000,109.570000C28.200000,109.070000,30.900000,113.670000,35.300000,112.870000C33.800000,116.670000,37.500000,120.470000,36.500000,121.970000C38,120.970000,41.900000,124.770000,45.900000,122.970000C45.200000,127.070000,49.900000,129.770000,49.400000,131.570000C50.700000,130.270000,55.300000,132.870000,58.600000,130.270000C59.100000,134.570000,64.300000,135.870000,64.100000,137.670000C64.900000,135.970000,70,137.370000,72.600000,134.070000C74.100000,138.170000,79.600000,138.170000,80,139.970000C80.300000,138.170000,85.500000,138.170000,87.200000,134.370000C89.700000,137.670000,94.900000,136.370000,95.700000,137.970000C95.700000,136.170000,100.700000,134.870000,101.200000,130.570000C104.500000,133.070000,109.100000,130.370000,110.200000,131.770000C109.700000,129.970000,114.400000,127.270000,113.500000,122.970000C117.300000,124.470000,121.200000,120.870000,122.700000,121.770000C121.700000,120.270000,125.500000,116.470000,123.700000,112.470000C127.800000,112.870000,130.500000,108.270000,132.400000,108.970000C131.100000,107.670000,133.700000,103.170000,131.100000,99.870000C135.500000,99.370000,136.800000,94.270000,138.600000,94.370000C136.900000,93.570000,138.300000,88.570000,134.900000,85.970000C139.100000,84.470000,139.100000,79.070000,140.900000,78.670000C139.100000,78.400000,139.100000,73.200000,135.200000,71.600000Z" fill="none" stroke="none" stroke-width="1"/></clipPath></g></g></g><g id="eLwcIWnFAEl109"><path id="eLwcIWnFAEl110" d="M111.860000,64.550000L98.520000,48.460000C97.286990,46.971439,95.278838,46.371973,93.431596,46.941028C91.584354,47.510084,90.261638,49.135647,90.080000,51.060000C90.022028,51.758065,90.114089,52.460454,90.350000,53.120000L48.590000,87.800000C43.431661,92.074684,42.715316,99.721660,46.990000,104.880000C51.264684,110.038339,58.911660,110.754684,64.070000,106.480000L106,71.770000C106.686468,72.158832,107.461072,72.365393,108.250000,72.370000C109.345588,72.372248,110.407241,71.990053,111.250000,71.290000C113.271945,69.593216,113.544453,66.582229,111.860000,64.550000ZM96.920000,75.370000C95.980734,75.062411,95.173475,74.445510,94.630000,73.620000C92.365101,70.448385,87.981557,69.666720,84.760000,71.860000C83.825599,72.562790,82.641021,72.845350,81.490000,72.640000C80.337563,72.438855,79.324022,71.759528,78.700000,70.770000C78.061580,69.917606,77.263418,69.197562,76.350000,68.650000L92,55.620000L103.760000,69.700000ZM62.160000,104.170000C59.651774,106.282494,56.203278,106.887553,53.125710,105.755120C50.048142,104.622688,47.814297,101.926735,47.273536,98.692325C46.732775,95.457916,47.968171,92.181940,50.510000,90.110000L73.700000,70.850000C74.809142,71.073033,75.780060,71.737155,76.390000,72.690000C77.472191,74.239338,79.134865,75.285272,81,75.590000C82.846534,75.925552,84.750907,75.519526,86.300000,74.460000C87.235344,73.751051,88.425647,73.467991,89.580000,73.680000C90.727502,73.880217,91.737098,74.555702,92.360000,75.540000C92.939004,76.288692,93.630545,76.943125,94.410000,77.480000ZM109.310000,69C108.957900,69.293271,108.503331,69.433917,108.047132,69.390737C107.590933,69.347558,107.170824,69.124123,106.880000,68.770000L106.880000,68.770000L93.460000,52.650000C92.848232,51.886050,92.954546,50.774176,93.700000,50.140000C94.012538,49.875371,94.410534,49.733230,94.820000,49.740000L95,49.740000C95.470370,49.783107,95.904949,50.009375,96.210000,50.370000L109.540000,66.460000C110.168564,67.227800,110.066259,68.357597,109.310000,69Z" fill="rgb(255,255,255)" stroke="none" stroke-width="1"/></g></g></svg>